<svg width="36" height="25" viewBox="0 0 36 25" fill="none" xmlns="http://www.w3.org/2000/svg">
<g clip-path="url(#clip0_96_347)">
<path d="M17.4208 0.618352C17.4585 0.327665 17.6304 0.0158728 17.9646 0.000523036C18.2988 -0.0148267 18.578 0.310397 18.578 0.618352V3.52714H21.0719C22.3479 3.52714 23.2008 4.79062 23.28 5.92938C23.5833 10.2494 23.054 14.9244 23.2674 19.2808C23.222 20.3313 22.145 21.4797 21.071 21.4797H18.577V24.3885C18.577 24.6705 18.3336 24.9833 18.0294 24.9986C17.6942 25.0159 17.4208 24.6954 17.4208 24.3885V21.4797H14.8544C13.8538 21.4797 12.7459 20.267 12.7304 19.2808C12.9449 14.9244 12.4156 10.2494 12.7179 5.92938C12.798 4.79062 13.6509 3.52714 14.9259 3.52714H17.4199C17.5058 2.6167 17.304 1.50384 17.4199 0.618352H17.4208ZM18.7692 9.79944C19.2802 10.2762 19.1865 11.2394 18.6147 11.6414C18.4408 11.7642 18.266 11.7728 18.1182 11.8669C17.8806 12.0175 17.5425 12.4031 17.4981 12.6871C17.4643 12.9049 17.4566 13.9957 17.5087 14.1751C17.6256 14.5742 18.3732 14.5771 18.4901 14.1751C18.5915 13.8278 18.3877 13.2109 18.5847 12.9049C18.6784 12.7591 19.285 12.525 19.5101 12.3158C21.5955 10.3808 18.7064 7.01346 16.5177 8.98398C16.0821 9.37636 15.348 10.9459 16.1227 11.1694C16.907 11.3958 16.8007 10.5545 17.019 10.1285C17.3581 9.4675 18.2109 9.27851 18.7692 9.79944ZM17.7618 15.1757C17.3098 15.3081 17.331 16.7241 18.0912 16.585C18.5664 16.4987 18.5944 15.7859 18.4911 15.4261C18.4099 15.1469 18.0052 15.1038 17.7618 15.1747V15.1757Z" fill="white"/>
<path d="M32.3152 8.33876H34.3755C35.1395 8.33876 35.9702 9.51782 35.9209 10.2508C35.778 13.4915 36.1431 16.9385 35.9335 20.1552C35.8842 20.917 35.6601 21.6566 34.9425 22.0432C34.8729 22.0807 34.4064 22.2697 34.3755 22.2697H32.3152V24.4599C32.3152 24.6565 32.0592 24.9712 31.839 24.9981C31.6603 25.0201 31.2305 24.8014 31.2305 24.6757V22.3781L31.1223 22.2706H29.0978C28.5482 22.2706 27.6335 21.2978 27.6219 20.7203C27.8054 17.2627 27.3563 13.5203 27.6123 10.0954C27.6654 9.38447 28.3203 8.33876 29.0978 8.33876H31.1223L31.2305 8.23132V5.93365C31.2305 5.64008 31.84 5.50385 32.096 5.72067C32.1356 5.75424 32.3152 6.05644 32.3152 6.07755V8.33972V8.33876ZM29.2581 9.43052C29.0147 9.4852 28.6979 9.83537 28.6989 10.0963L28.7327 20.6944C28.867 20.9371 29.0881 21.1808 29.3856 21.1952L34.2712 21.1616C34.6933 20.9544 34.8101 20.5946 34.8478 20.1552C34.6401 17.02 35.1163 13.551 34.8478 10.4551C34.8043 9.95913 34.6633 9.46601 34.0876 9.41421L29.2572 9.43148L29.2581 9.43052Z" fill="white"/>
<path d="M3.68395 6.07659C3.69168 6.03917 3.86361 5.75328 3.90321 5.7197C4.16111 5.50193 4.76866 5.6631 4.76866 5.93268V8.23035L4.87684 8.3378H6.90136C6.92937 8.3378 7.36016 8.50665 7.42198 8.53831C8.01697 8.84242 8.33765 9.44298 8.38595 10.0944C8.64191 13.5193 8.19277 17.2618 8.37629 20.7193C8.3647 21.2969 7.44999 22.2696 6.9004 22.2696H4.87587L4.76769 22.3771V24.6748C4.76769 24.8014 4.33787 25.0192 4.15918 24.9971C3.93895 24.9702 3.68299 24.6556 3.68299 24.4589V22.2687H1.62273C1.59182 22.2687 1.12529 22.0797 1.05574 22.0423C0.339048 21.6557 0.11496 20.916 0.0647329 20.1543C-0.143901 16.9567 0.227004 13.5356 0.0695624 10.3141C-0.0173685 9.62718 0.84711 8.3378 1.55028 8.3378H3.68299C3.77475 7.67968 3.56032 6.68962 3.68299 6.07563L3.68395 6.07659ZM1.39477 9.65596C1.20256 9.85935 1.16875 10.2508 1.14944 10.5251C0.928246 13.6412 1.32426 17.0114 1.14944 20.1543C1.16875 20.6243 1.38801 21.1338 1.9096 21.1942C3.40095 21.0877 5.07388 21.3304 6.54205 21.1961C6.94 21.1597 7.24232 20.9179 7.29931 20.5121L7.24329 9.8651C7.09647 9.65021 6.8975 9.4238 6.61256 9.4142C5.1328 9.54851 3.35169 9.24056 1.9096 9.4142C1.7454 9.43435 1.50296 9.5418 1.39381 9.65596H1.39477Z" fill="white"/>
<path d="M31.356 12.0898C33.2356 11.7693 34.2933 13.997 33.0048 15.2355C32.8589 15.3756 32.3866 15.6029 32.3499 15.6624C32.2031 15.8994 32.5025 16.9077 31.7674 16.9556C31.0923 16.9998 31.1657 15.861 31.2352 15.4168C31.3656 14.5774 32.3914 14.7606 32.4629 13.9759C32.5431 13.0952 31.467 12.84 31.1164 13.5039C30.9841 13.7552 31.0546 14.0133 30.903 14.2263C30.6016 14.6493 29.9699 14.4316 29.9245 13.9039C29.8559 13.1048 30.5678 12.2241 31.355 12.0898H31.356Z" fill="white"/>
<path d="M31.5724 17.6873C32.405 17.5051 32.5422 18.6611 31.98 18.9556C31.1522 19.3902 30.9369 17.8265 31.5724 17.6873Z" fill="white"/>
<path d="M3.84709 16.794C3.5921 16.5216 3.66937 15.6438 3.79397 15.3061C4.04317 14.6316 4.67583 14.693 4.90282 14.2537C5.35389 13.3816 4.12044 12.6832 3.66744 13.4574C3.45687 13.8181 3.48198 14.7544 2.71699 14.3601C2.03603 14.01 2.69188 12.7427 3.18159 12.3992C5.19162 10.9918 7.37069 14.0157 5.15492 15.5075C5.05736 15.5737 4.85356 15.5814 4.8014 15.6591C4.69998 15.8078 4.80913 16.3335 4.76663 16.558C4.69419 16.9399 4.10692 17.0703 3.84709 16.7931V16.794Z" fill="white"/>
<path d="M4.09836 17.6874C5.14153 17.4639 4.9329 19.35 4.06552 18.9835C3.56229 18.7715 3.54394 17.8064 4.09836 17.6874Z" fill="white"/>
</g>
<defs>
<clipPath id="clip0_96_347">
<rect width="36" height="25" fill="white"/>
</clipPath>
</defs>
</svg>
