<svg width="38" height="38" viewBox="0 0 38 38" fill="none" xmlns="http://www.w3.org/2000/svg">
<g clip-path="url(#clip0_96_377)">
<path d="M24.7417 20.5203H32.6252C33.3187 20.5203 34.3998 21.602 34.3998 22.2958V36.2193H37.3064C37.9591 36.2193 38.4027 37.5918 37.4645 37.9591L0.678089 37.9948C0.127365 37.8111 -0.183693 37.2244 0.122265 36.6734C0.198755 36.5356 0.576103 36.2142 0.718884 36.2142H3.62549V27.1173C3.62549 26.4234 4.70654 25.3418 5.40004 25.3418H13.2836V17.454C13.2836 17.3877 13.4722 16.8877 13.5232 16.7907C13.8853 16.0867 14.589 15.7346 15.3539 15.6785C17.7964 15.4948 20.4889 15.806 22.9569 15.6989C23.7014 15.7193 24.7468 16.7244 24.7468 17.454V20.5101L24.7417 20.5203ZM22.9314 36.2193V17.6887C22.9314 17.6887 22.8142 17.556 22.7785 17.5407H15.2366C15.2009 17.556 15.0836 17.6785 15.0836 17.6887V36.2193H22.9263H22.9314ZM32.5895 36.2193V22.5203C32.5895 22.5203 32.4161 22.3316 32.4009 22.3316H24.7417V36.2193H32.5844H32.5895ZM13.2785 27.1632H5.61931C5.61931 27.1632 5.43064 27.3367 5.43064 27.352V36.2193H13.2734V27.1632H13.2785Z" fill="white"/>
<path d="M18.9184 0.000219228C19.2805 -0.0405971 19.5814 0.188995 19.8057 0.438995C20.5043 1.21961 21.0194 2.38287 21.7639 3.15838C22.6766 3.54614 23.8801 3.62267 24.7673 4.00022C25.3334 4.24512 25.522 4.79104 25.2314 5.34206L22.9469 7.66348L23.3038 11.2655C22.7633 13.3676 20.2137 10.9135 18.9847 10.7196L15.9965 12.1023C15.2928 12.2757 14.8594 11.9441 14.7166 11.2655L15.0736 7.66348C14.7319 7.07675 12.8656 5.7043 12.7075 5.1992C12.5698 4.76042 12.6973 4.30634 13.1001 4.07165C13.8548 3.62777 15.4254 3.58185 16.2566 3.15328C16.9909 2.37777 17.4957 1.26042 18.179 0.474709C18.3677 0.260423 18.6176 0.0308315 18.9133 -0.00488281L18.9184 0.000219228ZM22.6307 5.27573C21.8199 5.05124 20.9072 5.04104 20.336 4.36246C19.9536 3.90838 19.5559 3.05634 19.1581 2.66859C19.0765 2.59206 19.0612 2.51553 18.9286 2.58695C18.7553 2.67879 17.9139 4.07675 17.6793 4.35736C17.1082 5.03593 16.1954 5.04104 15.3846 5.27063C15.354 5.38287 15.4152 5.39818 15.4611 5.4594C15.8028 5.9492 16.8328 6.57165 16.9399 7.15328L16.7461 9.71961C17.4396 9.56655 18.3575 8.79104 19.0459 8.80634C19.4947 8.81655 21.1927 9.80634 21.2692 9.71961L21.0754 7.15328C21.1825 6.57165 22.2126 5.9492 22.5542 5.4594C22.6001 5.39308 22.6613 5.38287 22.6307 5.27063V5.27573Z" fill="white"/>
</g>
<defs>
<clipPath id="clip0_96_377">
<rect width="38" height="38" fill="white"/>
</clipPath>
</defs>
</svg>
