<svg width="516" height="85" viewBox="0 0 516 85" fill="none" xmlns="http://www.w3.org/2000/svg">
<mask id="path-1-outside-1_142_1113" maskUnits="userSpaceOnUse" x="73.2686" y="4.81396" width="443" height="76" fill="black">
<rect fill="white" x="73.2686" y="4.81396" width="443" height="76"/>
<path d="M76.2686 21.6865C76.2686 14.0249 82.4795 7.81396 90.141 7.81396H498.738C506.399 7.81396 512.61 14.0249 512.61 21.6865V63.724C512.61 71.3856 506.399 77.5965 498.738 77.5965H90.1411C82.4795 77.5965 76.2686 71.3856 76.2686 63.724V21.6865Z"/>
</mask>
<path d="M76.2686 21.6865C76.2686 14.0249 82.4795 7.81396 90.141 7.81396H498.738C506.399 7.81396 512.61 14.0249 512.61 21.6865V63.724C512.61 71.3856 506.399 77.5965 498.738 77.5965H90.1411C82.4795 77.5965 76.2686 71.3856 76.2686 63.724V21.6865Z" fill="url(#paint0_linear_142_1113)"/>
<path d="M76.2686 21.6865C76.2686 14.0249 82.4795 7.81396 90.141 7.81396H498.738C506.399 7.81396 512.61 14.0249 512.61 21.6865V63.724C512.61 71.3856 506.399 77.5965 498.738 77.5965H90.1411C82.4795 77.5965 76.2686 71.3856 76.2686 63.724V21.6865Z" fill="url(#paint1_linear_142_1113)" fill-opacity="0.3" style="mix-blend-mode:overlay"/>
<path d="M76.2686 21.6865C76.2686 14.0249 82.4795 7.81396 90.141 7.81396H498.738C506.399 7.81396 512.61 14.0249 512.61 21.6865V63.724C512.61 71.3856 506.399 77.5965 498.738 77.5965H90.1411C82.4795 77.5965 76.2686 71.3856 76.2686 63.724V21.6865Z" fill="url(#paint2_radial_142_1113)" fill-opacity="0.6" style="mix-blend-mode:overlay"/>
<path d="M90.141 10.7155H498.738V4.91239H90.141V10.7155ZM509.708 21.6865V63.724H515.512V21.6865H509.708ZM498.738 74.6949H90.1411V80.4981H498.738V74.6949ZM79.1701 63.724V21.6865H73.367V63.724H79.1701ZM90.1411 74.6949C84.082 74.6949 79.1701 69.7831 79.1701 63.724H73.367C73.367 72.9881 80.877 80.4981 90.1411 80.4981V74.6949ZM509.708 63.724C509.708 69.7831 504.797 74.6949 498.738 74.6949V80.4981C508.002 80.4981 515.512 72.9881 515.512 63.724H509.708ZM498.738 10.7155C504.797 10.7155 509.708 15.6274 509.708 21.6865H515.512C515.512 12.4224 508.002 4.91239 498.738 4.91239V10.7155ZM90.141 4.91239C80.877 4.91239 73.367 12.4224 73.367 21.6865H79.1701C79.1701 15.6274 84.082 10.7155 90.141 10.7155V4.91239Z" fill="white" mask="url(#path-1-outside-1_142_1113)"/>
<path d="M72.8812 1.54921H12.4491C6.42969 1.54921 1.54921 6.4275 1.54921 12.4461V72.0505C1.54921 78.0692 6.42968 82.9474 12.4491 82.9474H72.8812C78.9006 82.9474 83.7811 78.0692 83.7811 72.0505V12.4461C83.7811 6.4275 78.9006 1.54921 72.8812 1.54921Z" fill="#D84728" stroke="white" stroke-width="2.90158"/>
<path d="M17.4941 75.9301H67.83C72.4736 75.9301 76.2436 72.1613 76.2436 67.5191V27.9392C58.7207 31.061 33.4961 41.235 10.1484 71.5952C11.5885 74.167 14.339 75.9139 17.4941 75.9139V75.9301Z" fill="url(#paint3_linear_142_1113)"/>
<path d="M17.4794 76.9854H67.8152C73.0414 76.9854 77.2643 72.7476 77.2643 67.5393V16.9766C77.2643 11.7522 73.0252 7.53052 67.8152 7.53052H17.4794C12.2532 7.53052 8.03027 11.7683 8.03027 16.9766V67.5393C8.03027 69.3671 8.56421 71.0816 9.45411 72.5212C11.1206 75.2062 14.0816 76.9854 17.4794 76.9854ZM9.06579 67.5393V16.9766C9.06579 12.3345 12.8357 8.56571 17.4794 8.56571H67.8152C72.4589 8.56571 76.2288 12.3345 76.2288 16.9766V67.5393C76.2288 72.1815 72.4589 75.9502 67.8152 75.9502H17.4794C14.3243 75.9502 11.5737 74.2033 10.1337 71.6315C9.45411 70.4184 9.06579 69.0274 9.06579 67.5555V67.5393Z" fill="#EEEEEE"/>
<path d="M24.4394 52.5732C25.4588 42.7389 26.915 37.5791 27.9828 34.9426H20.1517C20.0223 41.1053 20.1679 57.0213 24.6498 66.6616C24.1482 61.8414 23.9864 56.9728 24.4394 52.5732Z" fill="#EEEEEE"/>
<path d="M31.1326 27.8526L27.3142 26.8983L31.6342 26.2999C31.7313 25.847 31.7798 25.3617 31.7798 24.8765C31.7798 20.9783 28.6247 17.8242 24.7254 17.8242C20.826 17.8242 17.6709 20.9783 17.6709 24.8765C17.6709 28.7746 20.826 31.9287 24.7254 31.9287C27.5568 31.9287 29.9838 30.2627 31.1164 27.8526H31.1326ZM26.8773 22.1106C27.5245 22.1106 28.0584 22.6443 28.0584 23.2913C28.0584 23.9383 27.5245 24.4721 26.8773 24.4721C26.2301 24.4721 25.6962 23.9383 25.6962 23.2913C25.6962 22.6443 26.2301 22.1106 26.8773 22.1106Z" fill="#EEEEEE"/>
<path d="M65.0966 23.9321C60.8736 17.074 45.2276 17.9798 33.1897 18.5621C34.5165 20.3252 35.3093 22.5088 35.3093 24.8865C35.3093 25.6143 35.2284 26.326 35.0989 27.0216C34.9371 27.8303 34.6621 28.6067 34.3223 29.3507C34.2576 29.4801 34.1929 29.6095 34.1281 29.7389C43.0756 27.4421 57.3302 25.6305 59.6763 34.6237C63.0255 47.4666 39.8397 61.3932 25.3101 66.65C32.7367 64.9678 47.6384 60.7623 56.7962 52.4646C69.3519 41.0775 69.4004 30.8712 65.1289 23.9321H65.0966Z" fill="#EEEEEE"/>
<path d="M114.099 50.5103L117.755 32.2303H125.694C131.387 32.2303 134.86 35.1812 134.86 39.9079C134.86 46.3842 130.16 50.5103 123.448 50.5103H114.099ZM120.106 46.3842H123.605C127.47 46.3842 129.637 43.7206 129.637 40.2213C129.637 37.7926 128.097 36.3564 125.12 36.3564H122.09L120.106 46.3842ZM152.831 36.2258H143.613L143.012 39.3073H151.134L150.377 43.1722H142.229L141.576 46.5148H151.16L150.324 50.5103H135.674L139.33 32.2303H153.641L152.831 36.2258ZM170.377 36.2258H161.237L160.427 40.2474H168.497L167.687 44.2428H159.644L158.39 50.5103H153.22L156.876 32.2303H171.186L170.377 36.2258ZM169.975 50.5103L173.631 32.2303H178.801L175.145 50.5103H169.975ZM194.78 32.2303H199.846L196.19 50.5103H191.933L185.901 40.4824L183.89 50.5103H178.824L182.48 32.2303H186.737L192.795 42.2321L194.78 32.2303ZM217.02 36.2258H207.802L207.201 39.3073H215.323L214.565 43.1722H206.418L205.765 46.5148H215.349L214.513 50.5103H199.863L203.519 32.2303H217.83L217.02 36.2258ZM217.409 50.5103L221.065 32.2303H229.003C234.696 32.2303 238.169 35.1812 238.169 39.9079C238.169 46.3842 233.469 50.5103 226.758 50.5103H217.409ZM223.415 46.3842H226.914C230.779 46.3842 232.947 43.7206 232.947 40.2213C232.947 37.7926 231.406 36.3564 228.429 36.3564H225.4L223.415 46.3842ZM252.093 46.1492L253.137 40.9786H257.707L256.167 48.6823C254.286 50.0924 251.727 50.8759 248.959 50.8759C243.371 50.8759 239.767 47.6116 239.767 42.8327C239.767 36.4869 244.441 31.8647 251.388 31.8647C255.044 31.8647 257.707 33.0399 259.353 35.2334L255.644 38.1582C254.443 36.6697 253.033 36.1474 251.153 36.1474C247.392 36.1474 244.99 38.8372 244.99 42.4932C244.99 44.9479 246.661 46.5931 249.664 46.5931C250.5 46.5931 251.309 46.4626 252.093 46.1492ZM276.236 36.2258H267.018L266.417 39.3073H274.539L273.781 43.1722H265.634L264.981 46.5148H274.565L273.729 50.5103H259.079L262.735 32.2303H277.046L276.236 36.2258ZM291.04 50.8759C287.906 50.8759 285.06 50.0402 283.415 48.9173L285.452 45.0524C287.306 46.2275 289.447 46.8543 291.536 46.8543C293.521 46.8543 294.67 46.2275 294.67 45.2352C294.67 42.7805 285.791 44.1384 285.791 38.3933C285.791 34.45 289.16 31.8647 294.565 31.8647C297.151 31.8647 299.501 32.4131 301.146 33.4316L299.266 37.2704C297.83 36.3564 296.054 35.8863 294.252 35.8863C292.111 35.8863 290.962 36.6697 290.962 37.6621C290.936 40.169 299.841 38.7328 299.841 44.3734C299.841 48.2905 296.393 50.8759 291.04 50.8759ZM310.037 50.8759C305.258 50.8759 302.386 48.3428 302.386 44.2951C302.386 43.6944 302.464 43.0416 302.595 42.3626L304.631 32.2303H309.802L307.791 42.2843C307.687 42.8066 307.635 43.2766 307.635 43.7206C307.635 45.6791 308.705 46.5931 310.664 46.5931C312.831 46.5931 314.059 45.3658 314.685 42.2843L316.696 32.2303H321.789L319.725 42.5977C318.629 48.0555 315.417 50.8759 310.037 50.8759ZM333.047 32.2303C337.8 32.2303 340.464 34.3978 340.464 38.106C340.464 42.7282 336.938 45.7314 331.428 45.7314H327.772L326.832 50.5103H321.661L325.317 32.2303H333.047ZM331.663 41.6575C333.935 41.6575 335.241 40.5607 335.241 38.55C335.241 37.0092 334.17 36.3041 332.368 36.3041H329.652L328.582 41.6575H331.663ZM357.818 36.2258H348.599L347.999 39.3073H356.12L355.363 43.1722H347.215L346.562 46.5148H356.146L355.311 50.5103H340.661L344.317 32.2303H358.627L357.818 36.2258ZM377.034 38.0538C377.034 41.4225 375.154 43.9295 371.968 45.0263L375.076 50.5103H369.67L366.954 45.653H364.343L363.377 50.5103H358.206L361.862 32.2303H369.67C374.345 32.2303 377.034 34.3978 377.034 38.0538ZM371.811 38.55C371.811 37.0092 370.715 36.3041 368.939 36.3041H366.223L365.126 41.6575H368.208C370.48 41.6575 371.811 40.5607 371.811 38.55ZM385.136 50.5103L388.792 32.2303H396.731C402.424 32.2303 405.897 35.1812 405.897 39.9079C405.897 46.3842 401.196 50.5103 394.485 50.5103H385.136ZM391.143 46.3842H394.642C398.507 46.3842 400.674 43.7206 400.674 40.2213C400.674 37.7926 399.133 36.3564 396.156 36.3564H393.127L391.143 46.3842ZM423.868 36.2258H414.65L414.049 39.3073H422.171L421.413 43.1722H413.266L412.613 46.5148H422.197L421.361 50.5103H406.711L410.367 32.2303H424.678L423.868 36.2258ZM444.704 32.2303H449.117L445.513 50.5103H440.735L442.615 40.8741L436.53 48.7084H434.258L430.942 40.8741L429.009 50.5103H424.257L427.913 32.2303H432.117L436.4 42.8066L444.704 32.2303ZM463.065 50.5103L462.334 46.9587H454.552L452.436 50.5103H446.979L458.704 32.2303H463.796L468.209 50.5103H463.065ZM456.824 43.1461H461.55L460.323 37.2181L456.824 43.1461ZM472.648 50.5103L475.495 36.3302H469.88L470.716 32.2303H487.089L486.254 36.3302H480.665L477.819 50.5103H472.648Z" fill="white"/>
<defs>
<linearGradient id="paint0_linear_142_1113" x1="313.272" y1="7.6765" x2="313.272" y2="77.7341" gradientUnits="userSpaceOnUse">
<stop stop-color="#004FFF"/>
<stop offset="1" stop-color="#005764"/>
</linearGradient>
<linearGradient id="paint1_linear_142_1113" x1="313.272" y1="7.6765" x2="313.272" y2="77.7341" gradientUnits="userSpaceOnUse">
<stop stop-color="white"/>
<stop offset="1" stop-color="white" stop-opacity="0"/>
</linearGradient>
<radialGradient id="paint2_radial_142_1113" cx="0" cy="0" r="1" gradientUnits="userSpaceOnUse" gradientTransform="translate(313.272 19.9017) rotate(90) scale(57.8324 237.003)">
<stop stop-color="white"/>
<stop offset="1" stop-color="white" stop-opacity="0"/>
</radialGradient>
<linearGradient id="paint3_linear_142_1113" x1="84.6248" y1="78.4048" x2="43.6652" y2="50.6206" gradientUnits="userSpaceOnUse">
<stop offset="0.06" stop-color="#F3DED5"/>
<stop offset="0.33" stop-color="#ECB5A2"/>
<stop offset="1" stop-color="#E06043"/>
</linearGradient>
</defs>
</svg>
