<svg width="369" height="73" viewBox="0 0 369 73" fill="none" xmlns="http://www.w3.org/2000/svg">
<path d="M91.6136 60.9176C87.2354 58.3901 83.7729 54.9629 81.2261 50.6219C78.665 46.2951 77.3916 41.54 77.3916 36.385C77.3916 31.23 78.665 26.4035 81.2261 22.0767C83.7872 17.7357 87.2354 14.3086 91.6136 11.7954C95.9918 9.26784 100.799 8.01123 106.036 8.01123C109.942 8.01123 113.705 8.75377 117.353 10.2246C120.988 11.6954 124.121 13.8231 126.754 16.5933C129.372 19.3636 131.161 22.6479 132.091 26.4035H124.865C123.334 22.6908 120.888 19.792 117.554 17.6929C114.191 15.5938 110.314 14.5513 105.893 14.5513C101.958 14.5513 98.3669 15.4938 95.0904 17.3787C91.8282 19.2636 89.2528 21.8626 87.3356 25.1897C85.4326 28.5169 84.4883 32.2582 84.4883 36.4279C84.4883 40.5975 85.4326 44.3674 87.3356 47.6803C89.2242 50.9932 91.8139 53.5778 95.0904 55.4199C98.3526 57.2762 101.958 58.2044 105.893 58.2044C109.828 58.2044 113.333 57.4619 116.252 55.9911C119.171 54.5203 121.474 52.5354 123.177 49.9936C124.879 47.4804 125.981 44.6101 126.482 41.3972H105.65V34.9856H133.865C133.893 40.5404 132.792 45.5812 130.588 50.0793C128.371 54.5917 125.18 58.1616 120.973 60.7748C116.767 63.388 111.802 64.7017 106.036 64.7017C100.799 64.7017 95.9918 63.4451 91.6136 60.9176Z" fill="#001139"/>
<path d="M151.549 62.6883C148.759 61.2603 146.57 59.047 145.011 56.034C143.451 53.0209 142.664 49.2368 142.664 44.6387V22.8193H149.532V44.4531C149.532 48.9941 150.548 52.4497 152.579 54.8059C154.611 57.1763 157.516 58.3473 161.293 58.3473C165.07 58.3473 168.003 57.1621 170.021 54.8202C172.038 52.4783 173.04 49.0083 173.04 44.4531V22.8193H179.936V44.6387C179.936 49.2083 179.149 52.9924 177.561 56.0197C175.987 59.0327 173.798 61.2603 171.022 62.6883C168.247 64.1163 165.013 64.8303 161.35 64.8303C157.687 64.8303 154.339 64.102 151.549 62.6883Z" fill="#001139"/>
<path d="M198.722 22.8193V31.9584C199.738 29.1024 201.326 26.8605 203.501 25.2612C205.661 23.6476 208.223 22.8479 211.17 22.8479H215.148V28.9025H211.528C209.124 28.9025 206.963 29.5308 205.075 30.7731C203.186 32.0155 201.698 33.8004 200.625 36.1566C199.552 38.4985 199.008 41.283 199.008 44.4959V63.7164H192.055V22.8622H198.736V22.8336L198.722 22.8193Z" fill="#001139"/>
<path d="M230.972 62.7025C228.182 61.2745 225.993 59.0611 224.433 56.0481C222.874 53.0351 222.087 49.251 222.087 44.6529V22.8335H228.955V44.4673C228.955 49.0082 229.971 52.4639 232.002 54.8201C234.034 57.1905 236.938 58.3614 240.716 58.3614C244.493 58.3614 247.426 57.1762 249.444 54.8343C251.461 52.4925 252.463 49.0225 252.463 44.4673V22.8335H259.359V44.6529C259.359 49.2224 258.572 53.0065 256.984 56.0338C255.41 59.0468 253.221 61.2745 250.445 62.7025C247.669 64.1304 244.436 64.8444 240.773 64.8444C237.039 64.8444 233.762 64.1161 230.972 62.7025Z" fill="#001139"/>
<path d="M298.706 63.6875L286.058 43.7387L278.389 52.1923V63.6875H271.492V7.29688H278.389V44.5955L295.959 22.8475H304.429L291.108 39.2263L306.518 63.7017H298.677L298.706 63.6875Z" fill="#001139"/>
<path d="M321.555 62.7025C318.765 61.2745 316.576 59.0611 315.016 56.0481C313.457 53.0351 312.67 49.251 312.67 44.6529V22.8335H319.538V44.4673C319.538 49.0082 320.554 52.4639 322.585 54.8201C324.617 57.1905 327.521 58.3614 331.299 58.3614C335.076 58.3614 338.009 57.1762 340.027 54.8343C342.044 52.4925 343.046 49.0225 343.046 44.4673V22.8335H349.942V44.6529C349.942 49.2224 349.155 53.0065 347.567 56.0338C345.993 59.0468 343.804 61.2745 341.028 62.7025C338.252 64.1304 335.019 64.8444 331.356 64.8444C327.636 64.8444 324.359 64.1161 321.555 62.7025Z" fill="#001139"/>
<path d="M362.075 7.21143H368.972V63.6877H362.075V7.21143Z" fill="#001139"/>
<path d="M20.3458 0.0856789C19.5446 0.02856 18.7147 0 17.8133 0C16.9119 0 16.0821 0.02856 15.2808 0.0856789L14.6084 0.128518V19.0777H21.0326V6.55439C34.6394 7.91096 45.8424 17.6212 49.0474 30.9584C49.634 33.386 49.9488 35.9135 49.9488 38.4553C49.9488 40.5401 49.7485 42.6107 49.3479 44.6241C49.2763 45.0525 49.1762 45.4666 49.0474 45.9378C48.4465 48.5082 47.5022 50.9929 46.2288 53.3918C45.2272 55.5909 43.8823 57.5901 42.1653 59.3179L42.0508 59.4464V59.475C38.0733 63.459 32.8223 65.6438 27.2422 65.6438C22.4634 65.6438 17.9993 64.0731 14.265 61.1029C9.27152 57.1331 6.40994 51.2071 6.40994 44.8526C6.40994 44.4956 6.40994 44.1386 6.43856 43.7245C6.43856 42.3965 6.63887 41.097 7.02518 39.8404L7.0681 39.7262C8.34151 35.6993 11.5179 32.5149 15.5527 31.2012C16.8547 30.7728 18.2282 30.5443 19.6304 30.5443C19.845 30.5443 20.0597 30.5443 20.2743 30.5443C26.0976 30.8156 30.9623 34.8139 32.4073 40.383H14.6084V46.7946H38.989L39.0748 46.1663C39.1893 45.3524 39.2322 44.5527 39.2322 43.6674C39.2322 42.7392 39.175 41.8396 39.0462 40.9971C37.7728 31.5724 29.8892 24.4754 20.3601 24.147C19.9595 24.1042 19.516 24.1042 19.1869 24.147C17.8276 24.1756 16.4684 24.3469 15.1664 24.6468C8.42735 26.2033 2.96175 31.2726 0.91572 37.8555C0.887104 37.9269 0.872797 38.0126 0.844181 38.1268C0.400637 39.8547 0.128787 41.6396 0.0429399 43.4532V43.6674C0.0143241 44.0672 1.62615e-05 44.4527 1.62615e-05 44.8383C-0.0142916 58.0328 9.41459 69.2995 22.3775 71.6128C23.9514 71.8984 25.5825 72.0412 27.2422 72.0412C34.7395 72.0412 41.7361 69.071 46.9441 63.6304C48.9186 61.3456 50.6356 58.8467 52.0091 56.1764C54.8421 50.7358 56.3444 44.6098 56.3444 38.4696C56.3444 18.2495 40.5199 1.38513 20.3458 0.0856789Z" fill="#1681C4"/>
</svg>
