<svg width="498" height="432" viewBox="0 0 498 432" fill="none" xmlns="http://www.w3.org/2000/svg">
<g style="mix-blend-mode:multiply">
<path fill-rule="evenodd" clip-rule="evenodd" d="M-99.8631 135.241C-95.8018 132.23 -91.7406 129.226 -87.6794 126.215C-87.271 126.554 -86.8702 126.886 -86.4618 127.219C-94.2606 134.003 -102.067 140.782 -109.866 147.572C-109.588 147.843 -109.311 148.114 -109.034 148.391C-103.308 144.414 -97.582 140.437 -91.8331 136.472C-91.3091 136.115 -90.6926 135.819 -90.0684 135.567C-86.2461 133.997 -81.63 133.074 -78.7324 130.771C-67.9898 122.256 -53.4095 118.483 -41.9193 111.199C-34.1052 106.243 -24.8499 103.424 -17.2977 98.4184C-13.3289 95.7896 -9.73782 92.7791 -4.89825 89.1221C-6.33936 93.327 -7.4028 96.4114 -8.78995 100.444C-5.29129 98.8678 -2.94858 97.8212 -0.621277 96.7684C-0.536499 96.8485 -0.459442 96.9162 -0.374664 96.9962C-6.58594 101.164 -12.7972 105.326 -19.0085 109.494C-18.9006 109.648 -18.8004 109.808 -18.6925 109.962C-14.4541 107.881 -10.3158 105.665 -5.96173 103.75C-1.71558 101.885 2.73868 100.327 7.41641 98.5046C8.2641 97.4827 9.71292 95.7403 11.1617 94.0042C11.7782 97.6735 12.7415 99.1449 16.9029 96.9162C34.8586 87.3366 52.8605 77.8064 70.8624 68.2699C74.8698 66.1459 78.8231 63.9418 82.9999 62.0456C84.4255 61.3991 86.4523 61.5962 88.3866 61.3869C89.6967 60.3218 91.2225 58.6103 93.257 57.4836C106.157 50.3605 119.258 43.4713 132.081 36.2743C136.474 33.8117 140.335 30.7273 144.342 27.8399C147.563 25.5312 150.785 24.9771 155.038 27.649C149.251 28.5233 145.637 30.7027 143.279 34.8091C141.915 37.1917 138.485 38.9648 135.642 40.6394C123.797 47.6024 111.899 54.51 99.8767 61.2638C93.5652 64.8161 86.7529 67.8081 80.5339 71.4589C74.5923 74.9435 69.3135 79.1547 63.3873 82.6577C60.2971 84.4862 56.0895 85.1203 53.0146 86.9611C46.5414 90.8213 40.7462 95.4141 34.2112 99.2065C10.5991 112.911 -13.198 126.406 -36.9257 139.981C-38.0662 140.621 -39.2068 141.237 -40.17 142.074C16.5715 111.79 73.3208 81.5003 130.062 51.2224C130.702 51.8627 131.349 52.503 131.997 53.1494C129.469 54.8671 127.134 56.8187 124.367 58.2409C120.029 60.4819 115.282 62.2241 110.92 64.4405C100.139 69.9075 89.4269 75.4668 78.8077 81.1308C76.5266 82.3437 74.7542 84.1784 72.7428 85.7298C73.2591 86.1731 73.7755 86.6102 74.2917 87.0534C79.3163 83.7905 84.3331 80.5152 89.3036 77.2708C89.8508 79.0562 90.2515 80.3675 90.8526 82.3191C90.3979 82.4237 88.9029 82.7193 87.431 83.0825C86.1055 83.4088 83.7859 83.6551 83.655 84.1969C81.582 93.0438 70.9626 96.0974 64.8438 102.162C63.318 103.664 61.4454 104.938 60.6285 107.222C64.8978 104.556 69.2673 101.989 73.4132 99.2126C82.0828 93.4008 90.4519 87.2936 99.345 81.7219C102.435 79.7888 107.159 79.561 110.38 77.7078C118.657 72.9427 126.502 67.7035 135.387 63.3939C121.624 73.466 107.86 83.5319 94.1047 93.6101C94.5286 93.9795 94.9601 94.3674 95.3917 94.7368C97.9578 93.1854 100.578 91.677 103.067 90.0517C106.828 87.6075 109.841 84.086 115.96 85.7113C117.177 86.0315 119.143 84.5416 120.599 82.984C119.089 83.0702 117.586 83.1502 116.083 83.2426C122.271 80.0781 125.739 73.0412 135.58 74.6419C136.258 73.977 137.399 72.8626 138.555 71.736C139.657 72.5794 140.512 73.2321 141.56 74.0324C124.051 86.5979 106.335 99.3173 88.6178 112.037C88.8567 112.258 89.0879 112.48 89.3268 112.702C109.972 98.8863 130.609 85.0711 151.247 71.2558C151.64 71.5944 152.033 71.933 152.426 72.2777C140.373 81.1555 128.321 90.0394 116.26 98.9232C116.661 99.3049 117.054 99.6866 117.455 100.062C125.523 95.0569 133.607 90.0517 141.676 85.0465C142.038 85.342 142.408 85.6313 142.77 85.9268C130.116 95.6233 114.603 103.374 109.486 117.793C108.924 119.271 108.901 121.136 107.729 122.164C93.9044 134.373 78.3299 145.011 61.3452 154.301C52.0514 159.38 42.403 164.047 33.1401 169.157C29.2407 171.306 26.1119 174.328 22.2819 176.576C15.2152 180.713 7.8942 184.573 0.67337 188.544C0.943115 188.913 1.21283 189.283 1.49023 189.652C13.6893 184.708 25.8961 179.765 38.0952 174.821C38.5499 175.406 39.0046 175.991 39.4592 176.569C35.2979 178.607 31.1365 180.645 26.9673 182.689C14.1749 187.848 1.20514 192.798 -8.54333 201.633C5.21243 197.594 18.8757 193.445 26.9596 182.609C26.4048 184.653 25.8576 186.697 25.1255 189.418C33.2403 186.032 41.3088 182.664 49.3849 179.303C49.7549 179.697 50.1248 180.097 50.4947 180.491C45.9171 183.514 41.3396 186.537 36.762 189.56C36.9393 189.763 37.1165 189.966 37.2861 190.169C40.962 188.839 44.6379 187.503 48.3215 186.174C48.7685 186.795 49.2 187.417 49.647 188.039C36.5386 195.685 22.1355 201.817 8.88062 209.532C21.1414 204.791 33.4021 200.051 45.6552 195.316C45.8709 195.612 46.0867 195.907 46.3024 196.196C33.0553 203.492 19.8004 210.794 6.55328 218.089C6.9386 218.754 7.31625 219.413 7.70157 220.078C14.0978 217.966 20.494 215.854 26.898 213.743C27.2602 213.933 27.6223 214.124 27.9845 214.321C27.0521 215.423 26.4124 216.858 25.1409 217.572C20.5248 220.17 15.6622 222.503 10.9382 224.991C8.3797 226.339 4.36472 226.61 4.83481 230.316C4.88104 230.741 3.36292 231.473 2.43045 231.781C-10.6009 236.054 -20.8041 244.119 -33.5811 248.841C-38.5209 250.669 -42.5204 254.148 -46.5586 257.749C-41.2874 256.032 -36.0086 254.314 -30.7298 252.596C-30.6836 252.75 -30.6373 252.898 -30.5988 253.052C-40.1623 258.322 -49.7259 263.586 -59.2817 268.85C-46.6279 269.872 -36.0471 264.793 -24.7343 262.047C-24.48 262.49 -24.2257 262.933 -23.9714 263.383C-41.5957 269.964 -59.22 276.545 -76.8444 283.127C-76.8212 283.268 -76.7981 283.41 -76.7827 283.552C-70.818 282.345 -64.8456 281.138 -58.881 279.938C-58.6806 280.449 -58.4879 280.966 -58.2799 281.477C-67.0882 284.019 -75.8965 286.562 -84.6971 289.105C-84.5969 289.536 -84.4967 289.96 -84.3965 290.385C-76.906 289.265 -69.4077 288.15 -61.9095 287.024C-61.74 287.461 -61.5627 287.892 -61.3855 288.335C-68.9069 290.705 -76.4051 293.119 -83.9572 295.434C-89.0357 296.991 -94.4301 298.038 -99.2389 299.996C-103.585 301.769 -107.199 304.638 -111.361 306.743C-123.552 312.931 -135.697 319.216 -148.174 325.04C-161.899 331.449 -175.917 337.464 -189.888 343.529C-211.35 352.85 -233.706 360.859 -253.596 372.47C-261.31 376.977 -270.095 380.308 -278.002 384.845C-272.762 383.066 -267.522 381.287 -262.281 379.507C-262.096 379.729 -261.904 379.957 -261.719 380.184C-266.096 382.352 -270.465 384.543 -274.866 386.692C-287.003 392.615 -298.979 398.765 -311.37 404.343C-319.732 408.111 -328.625 411.14 -337.402 414.279C-338.497 414.673 -340.439 413.855 -341.826 413.331C-343.136 412.833 -344.246 411.983 -346.249 410.826C-343.251 409.342 -340.539 408.006 -336.616 406.054C-341.957 406.873 -345.964 407.809 -350.033 408.037C-354.849 408.308 -357.339 405.045 -355.381 401.049C-359.458 401.585 -363.311 402.089 -367.881 402.687C-367.665 400.821 -367.48 399.276 -367.272 397.435C-371.78 397.503 -376.735 399.965 -381.035 396.53C-381.436 396.21 -383.64 397.183 -384.896 397.718C-391.501 400.532 -398.213 402.237 -405.873 400.483C-408.578 399.867 -411.691 400.52 -414.573 400.249C-416.5 400.064 -418.326 399.264 -420.207 398.74C-419.444 397.121 -419.02 395.317 -417.833 393.938C-416.253 392.097 -414.08 390.577 -411.73 388.545C-415.305 387.505 -417.941 386.594 -420.684 385.959C-428.745 384.094 -428.761 384.131 -425.94 377.894C-432.984 377.174 -432.675 373.572 -430.733 369.497C-429.192 366.258 -427.558 363.051 -425.655 359.185C-430.695 360.231 -434.271 351.464 -441.453 358.212C-442.763 359.449 -448.327 357.793 -452.388 357.43C-449.945 354.093 -447.341 351.304 -441.73 351.107C-440.536 351.064 -439.434 349.143 -438.293 348.09C-439.765 347.524 -441.422 346.293 -442.647 346.527C-446.686 347.29 -450.569 348.595 -454.199 349.605C-455.563 347.413 -456.28 344.883 -458.253 343.455C-460.11 342.119 -463.239 341.589 -465.905 341.349C-472.725 340.733 -474.837 337.772 -471.985 332.705C-470.999 330.951 -470.791 328.919 -470.082 326.518C-469.103 326.469 -467.616 326.395 -466.198 326.327C-464.333 323.083 -467.223 318.176 -471.276 317.843C-476.131 317.449 -476.817 315.781 -477.727 311.829C-479.738 303.08 -469.874 301.984 -465.635 297.373C-464.965 296.64 -463.817 296.179 -461.836 294.935C-468.178 295.347 -473.157 295.68 -478.135 296.006C-478.536 295.397 -478.944 294.793 -479.353 294.184C-471.276 288.544 -463.2 282.899 -455.132 277.26C-455.378 276.835 -455.617 276.404 -455.864 275.973C-460.333 276.287 -464.803 276.601 -469.273 276.915C-469.288 276.508 -469.296 276.096 -469.311 275.69C-460.487 272.932 -451.664 270.173 -442.84 267.415C-442.979 266.966 -443.125 266.516 -443.272 266.067C-451.864 267.132 -460.457 268.203 -469.049 269.275C-469.219 268.604 -469.381 267.932 -469.55 267.261C-463.878 265.193 -458.206 263.124 -452.527 261.056C-452.766 260.446 -452.997 259.837 -453.236 259.233C-457.205 260.003 -461.173 260.772 -465.134 261.536C-465.335 261.173 -465.527 260.809 -465.728 260.44C-445.884 252.775 -426.04 245.11 -406.204 237.445C-406.358 237.07 -406.513 236.688 -406.667 236.319C-409.094 236.99 -411.522 237.661 -413.949 238.338C-414.072 238.153 -414.188 237.969 -414.311 237.784C-409.88 235.721 -405.202 233.936 -401.08 231.535C-391.686 226.062 -382.245 220.576 -373.391 214.555C-359.912 205.401 -346.873 195.833 -333.75 186.352C-326.513 181.119 -319.47 175.732 -312.395 170.358C-304.535 164.392 -297.121 158.02 -288.845 152.454C-275.451 143.441 -261.472 134.988 -247.847 126.191C-243.832 123.599 -240.195 120.644 -235.494 117.202C-236.481 119.178 -236.997 120.225 -237.521 121.271C-206.657 97.8828 -172.487 78.4159 -136.83 60.5557C-136.345 61.0729 -135.859 61.5901 -135.374 62.101C-140.93 65.1608 -146.486 68.2206 -152.043 71.2804C-151.696 71.7175 -151.349 72.1485 -151.01 72.5856C-143.866 69.0456 -136.722 65.5056 -129.571 61.9595C-129.478 62.1134 -129.386 62.2611 -129.286 62.4089C-151.449 75.9163 -173.62 89.4237 -195.784 102.931C-195.352 103.411 -194.913 103.885 -194.481 104.366C-191.745 102.857 -189.002 101.349 -186.266 99.8406C-186.027 100.105 -185.796 100.37 -185.565 100.629C-196.4 108.786 -207.235 116.943 -218.078 125.101C-217.677 125.446 -217.276 125.797 -216.876 126.141C-205.663 118.255 -194.967 109.826 -183.091 102.636C-171.855 95.8327 -159.895 89.7931 -148.559 82.9963C-136.722 75.8916 -123.275 70.4924 -110.536 64.342C-110.12 64.9084 -109.689 65.4748 -109.273 66.0412C-120.185 71.4158 -131.197 76.6674 -141.947 82.2452C-145.87 84.2769 -149.099 87.152 -152.728 89.5715C-159.425 94.0288 -166.168 98.4307 -172.896 102.851C-173.212 103.054 -173.636 103.165 -173.975 103.362C-176.156 104.593 -180.525 102.808 -180.887 106.551C-181.982 106.336 -183.076 106.12 -183.477 106.04C-185.619 108.694 -187.391 111.193 -189.541 113.471C-193.803 117.984 -198.018 122.558 -202.773 126.738C-205.293 128.961 -209.092 130.223 -211.921 132.261C-214.055 133.794 -215.55 135.887 -217.346 137.728C-216.729 138.147 -216.113 138.565 -215.504 138.984C-214.117 138.11 -212.807 137.143 -211.335 136.38C-207.397 134.342 -203.135 132.649 -199.467 130.346C-195.552 127.89 -192.285 124.775 -188.509 122.158C-183.107 118.427 -177.504 114.893 -171.986 111.273C-171.501 111.68 -171.023 112.086 -170.538 112.492C-181.797 121.413 -193.055 130.328 -204.314 139.242C-204.099 139.482 -203.883 139.729 -203.667 139.969C-197.71 136.687 -191.761 133.412 -185.804 130.131C-185.442 130.525 -185.079 130.919 -184.717 131.313C-204.168 143.435 -225.907 153.439 -240.858 169.939C-235.078 166.756 -229.36 163.511 -223.503 160.427C-221.099 159.159 -219.095 156.862 -215.196 159.029C-214.163 159.602 -210.664 157.355 -208.299 156.401C-208.514 156.007 -208.722 155.606 -208.93 155.212C-210.133 155.348 -211.335 155.483 -211.597 155.514C-189.487 140.104 -166.939 124.387 -144.382 108.669C-143.858 109.125 -143.334 109.586 -142.81 110.048C-149.839 115.367 -156.874 120.68 -163.895 126.012C-167.578 128.807 -171.439 131.473 -174.768 134.514C-175.878 135.53 -175.578 137.531 -175.901 138.941C-177.543 138.811 -179.038 138.688 -180.525 138.565C-180.286 140.277 -180.04 141.988 -179.739 144.057C-150.856 128.148 -122.651 112.615 -94.4456 97.0824C-94.068 97.5134 -93.6826 97.9382 -93.305 98.3691C-103.084 104.304 -112.871 110.239 -122.651 116.174C-122.342 116.599 -122.034 117.023 -121.726 117.448C-116.948 114.918 -112.155 112.412 -107.408 109.851C-102.391 107.136 -97.4202 104.359 -92.0412 102.014C-121.294 120.028 -152.967 135.585 -178.629 157.367C-180.471 157.355 -182.305 157.343 -185.118 157.324C-184.702 159.109 -184.363 160.526 -183.877 162.6C-177.936 159.325 -172.857 156.475 -167.709 153.704C-157.707 148.317 -147.604 143.047 -137.678 137.574C-133.201 135.105 -129.101 132.199 -124.708 129.632C-122.967 128.616 -120.917 127.914 -118.944 127.169C-115.7 125.95 -111.438 125.649 -112.671 121.179C-112.941 120.219 -110.821 118.84 -108.818 117.959C-108.995 118.889 -109.172 119.818 -109.612 122.066C-104.001 118.975 -99.3622 116.42 -94.7153 113.859C-94.1527 114.499 -93.5824 115.14 -93.0199 115.774C-112.918 127.434 -132.8 139.101 -153.129 151.02C-151.881 151.371 -151.195 151.562 -150.517 151.759C-151.426 152.399 -152.197 153.322 -153.26 153.636C-156.065 154.467 -158.986 155.04 -161.86 155.711C-161.683 156.228 -161.498 156.739 -161.321 157.25C-159.81 156.869 -158.3 156.487 -155.88 155.877C-157.46 157.774 -158.616 159.153 -159.864 160.655C-153.114 160.803 -146.872 160.519 -141.593 156.037C-136.753 151.919 -131.097 148.366 -125.479 144.906C-123.29 143.558 -120.208 143.14 -117.534 142.296C-118.166 144.574 -118.797 146.852 -119.429 149.124C-119.083 149.407 -118.728 149.69 -118.389 149.973C-112.209 145.03 -106.036 140.086 -99.8554 135.148L-99.9093 135.247L-99.8631 135.241ZM55.4268 120.096C55.2957 119.942 55.1647 119.8 55.0337 119.646C9.44318 144.759 -36.1474 169.871 -81.7379 194.977C-81.6069 195.131 -81.4759 195.279 -81.3448 195.427C-35.7543 170.314 9.84387 145.202 55.4344 120.096H55.4268ZM-197.109 182.72C-196.916 183.262 -196.724 183.81 -196.531 184.357C-194.643 183.76 -192.385 183.508 -190.944 182.504C-185.943 179.026 -181.365 175.166 -176.341 171.73C-174.63 170.561 -171.971 170.321 -169.898 169.422C-168.434 168.788 -166.453 167.938 -166.083 166.879C-165.421 164.964 -165.791 162.828 -165.721 160.476C-170.33 163.013 -175.192 165.691 -180.355 168.535C-179.176 172.82 -179.862 173.756 -185.126 174.218C-184.409 172.796 -183.692 171.386 -182.729 169.459C-190.353 172.586 -193.901 176.818 -193.371 182.153C-194.604 182.338 -195.853 182.529 -197.109 182.714V182.72ZM-145.076 161.147C-144.529 161.683 -143.974 162.219 -143.427 162.754C-136.954 158.438 -130.488 154.123 -124.022 149.807C-124.477 149.364 -124.932 148.92 -125.394 148.471C-131.952 152.701 -138.51 156.924 -145.076 161.147ZM-195.676 178.484C-196.23 178.029 -196.778 177.573 -197.332 177.111C-202.334 180.171 -208.823 181.889 -211.828 186.765C-211.381 187.183 -210.934 187.596 -210.487 188.014C-205.547 184.838 -200.615 181.661 -195.676 178.484ZM-348.777 390.934C-353.678 393.033 -357.816 394.8 -361.947 396.579C-352.83 397.447 -350.303 396.259 -348.777 390.934ZM-2.43225 169.871C-2.29352 169.994 -2.15482 170.117 -2.01611 170.241C8.24869 164.589 18.5135 158.931 28.786 153.279C28.6704 153.144 28.5548 153.008 28.4315 152.873C18.1436 158.543 7.85568 164.207 -2.43225 169.871ZM-99.84 270.604C-99.5626 271.263 -99.2774 271.922 -99 272.581C-93.4823 271.023 -87.9646 269.472 -82.4391 267.914C-82.6549 267.409 -82.863 266.91 -83.0865 266.406C-88.6736 267.803 -94.2606 269.207 -99.84 270.604ZM61.4454 135.062C61.376 135.001 61.3143 134.939 61.2527 134.871C52.2595 139.827 43.2662 144.777 34.2652 149.733C34.3268 149.801 34.3885 149.862 34.4501 149.93C43.4511 144.974 52.4521 140.018 61.4454 135.062ZM-7.58005 173.313C-7.66483 173.22 -7.74188 173.128 -7.82666 173.029C-16.3344 177.715 -24.8345 182.4 -33.3422 187.085C-33.2574 187.183 -33.1804 187.276 -33.0956 187.368C-24.5879 182.683 -16.0878 177.998 -7.58005 173.313ZM100.023 113.003C99.7919 112.788 99.5607 112.578 99.3295 112.357C93.6808 116.162 88.0475 119.96 82.4065 123.759C82.7225 124.048 83.0307 124.337 83.3467 124.633C88.903 120.76 94.4669 116.882 100.023 113.009V113.003ZM-474.575 291.223C-474.305 291.826 -474.027 292.442 -473.765 293.051C-469.658 291.931 -465.551 290.816 -461.443 289.696C-461.721 289.055 -461.998 288.421 -462.275 287.781C-466.383 288.926 -470.475 290.071 -474.575 291.223ZM-418.997 247.296C-419.182 246.822 -419.359 246.354 -419.536 245.88C-424.992 248.195 -430.448 250.516 -435.904 252.824C-435.665 253.175 -435.427 253.526 -435.195 253.877C-429.793 251.679 -424.391 249.487 -418.997 247.29V247.296Z" fill="url(#paint0_linear_125_105)"/>
<path fill-rule="evenodd" clip-rule="evenodd" d="M186.426 1.05895C183.351 3.70626 180.361 6.40898 177.186 8.98241C175.498 10.343 172.316 11.2418 171.869 12.744C170.497 17.3183 167.145 19.1715 161.82 18.7036C160.607 22.8203 156.857 24.6159 150.568 24.0906C162.351 15.7608 173.502 7.88041 184.638 4.57764e-05C185.231 0.357125 185.825 0.708029 186.426 1.05895Z" fill="url(#paint1_linear_125_105)"/>
</g>
<g style="mix-blend-mode:multiply">
<path fill-rule="evenodd" clip-rule="evenodd" d="M-171.902 617.039C-168.758 616.903 -165.606 616.768 -162.454 616.638C-162.377 616.226 -162.3 615.807 -162.215 615.395C-165.22 614.619 -168.226 613.831 -172.094 612.828C-170.407 610.765 -169.174 609.269 -167.602 607.348C-175.871 607.484 -183.014 606.825 -181.658 597.695C-177.173 595.503 -171.964 592.96 -166.746 590.412C-167.178 589.747 -167.602 589.082 -168.033 588.417C-172.141 588.94 -176.256 589.464 -180.363 589.981C-180.564 589.574 -180.772 589.174 -180.98 588.774C-176.842 587.001 -172.711 585.24 -168.58 583.479C-168.704 583.245 -168.812 583.018 -168.927 582.778C-173.096 583.719 -177.258 584.668 -183.816 586.145C-180.964 583.707 -179.616 582.55 -178.868 581.922C-184.956 578.77 -190.243 575.273 -196.292 573.149C-200.616 571.628 -206.095 571.123 -210.819 571.646C-234.616 574.245 -258.328 577.36 -282.087 580.204C-285.393 580.604 -288.791 580.518 -293.846 580.721C-291.342 575.833 -289.454 572.145 -288.29 569.861C-295.827 568.968 -304.944 567.891 -314.068 566.814C-314.253 565.687 -314.43 564.554 -314.607 563.428C-300.435 559.457 -286.256 555.486 -272.076 551.515C-272.23 550.948 -272.384 550.376 -272.539 549.803C-284.198 551.287 -295.858 552.764 -307.34 554.223C-307.294 547.907 -307.255 542.397 -307.194 535.397C-303.726 533.71 -298.147 530.995 -291.049 527.541C-300.435 526.673 -308.65 525.91 -319.239 524.931C-315 523.158 -312.295 522.025 -308.905 520.609C-314.969 515.764 -310.877 513.72 -305.344 511.38C-297.492 508.037 -290.109 503.992 -282.441 500.366C-280.931 499.658 -279.02 499.326 -277.247 499.159C-259.476 497.51 -245.374 490.719 -234.446 479.594C-233.452 478.578 -234.115 476.62 -233.375 475.334C-232.173 473.259 -230.447 471.387 -228.944 469.423C-222.602 473.616 -221.446 469.399 -218.733 466C-217.431 464.387 -213.215 464.264 -210.372 461.869C-218.471 462.011 -226.57 462.153 -234.67 462.288C-235.04 461.334 -235.41 460.386 -235.779 459.437C-223.511 453.81 -211.181 448.264 -199.036 442.47C-196.747 441.38 -195.213 439.287 -192.031 436.529C-188.856 436.394 -183.338 436.16 -177.813 435.926C-177.527 435.039 -177.235 434.153 -176.942 433.266C-179.747 432.583 -182.513 431.665 -185.388 431.29C-188.94 430.834 -192.593 430.816 -198.635 430.471C-195.337 427.497 -193.703 426.014 -190.466 423.102C-200.546 423.311 -209.054 423.49 -217.6 423.674C-216.876 420.738 -216.175 417.826 -215.458 414.877C-210.657 413.651 -205.501 412.328 -200.338 411.004C-200.492 410.505 -200.646 410.013 -200.793 409.514C-211.227 409.939 -223.634 413.344 -231.556 409.988C-240.496 406.19 -253.496 413.067 -260.031 400.889C-240.064 397.62 -221.006 394.498 -201.949 391.377C-202.018 390.774 -202.08 390.164 -202.149 389.567C-223.634 390.706 -245.119 391.851 -266.612 392.99C-267.052 392.134 -267.499 391.279 -267.93 390.423C-259.708 385.147 -251.493 379.877 -243.671 374.853C-251.639 373.948 -260.162 372.975 -268.685 371.996C-268.685 371.14 -268.678 370.285 -268.662 369.423C-256.856 363.839 -248.788 354.333 -232.373 353.545C-214.895 352.708 -197.679 348.423 -180.348 345.652C-180.047 345.603 -179.593 345.689 -179.431 345.548C-167.671 334.971 -150.763 338.966 -136.353 335.968C-122.296 333.05 -108.063 330.532 -93.7522 328.55C-68.1595 325.01 -42.3665 322.332 -16.8278 318.564C-10.2851 317.597 -0.760132 318.908 1.1973 310.493C1.336 309.883 2.5921 308.873 3.03906 308.966C15.6003 311.564 25.7033 300.377 39.1508 305.149C42.7189 306.417 48.8454 303.683 53.5231 302.23C66.8242 298.099 79.9865 293.691 93.7731 289.197C94.0814 290.736 94.3743 292.214 94.8213 294.449C106.758 290.551 118.326 286.778 130.856 282.69C130.139 284.641 129.607 286.094 128.775 288.384C141.753 285.386 151.509 274.107 167.769 279.901C162.09 281.846 156.703 283.681 151.308 285.515C151.524 286.026 151.732 286.531 151.948 287.042C155.061 286.39 158.159 285.639 161.311 285.128C164.571 284.598 168.093 280.135 171.229 285.392C171.391 285.657 174.219 285.497 174.566 284.986C180.492 276.188 192.953 276.878 202.162 272.938C217.128 266.529 232.702 261.006 248.084 255.213C249.741 254.585 251.83 254.677 253.718 254.437C254.01 255.059 254.303 255.675 254.588 256.29C245.094 260.169 235.6 264.048 226.098 267.926C226.476 268.542 226.846 269.151 227.223 269.767C234.159 267.311 241.133 264.916 248.03 262.373C254.874 259.855 261.732 257.355 268.352 254.499C270.386 253.625 271.681 251.624 273.253 250.097C274.186 249.198 275.103 247.363 275.858 247.419C288.612 248.342 294.692 237.969 305.774 236.288C308.525 235.869 311.422 236.054 314.258 235.955C314.443 236.626 314.636 237.291 314.836 237.962C326.303 233.948 337.847 230.07 349.191 225.828C352.197 224.707 354.555 222.491 358.223 220.115C363.602 223.581 370.445 219.16 377.496 216.944C393.302 211.982 408.953 206.706 424.867 201.977C427.464 201.208 431.063 202.599 434.192 202.993C434.323 204.034 434.446 205.074 434.569 206.115C455.392 198.499 476.214 190.89 497.037 183.274C497.36 183.791 497.676 184.302 498 184.819C471.744 196.991 445.474 209.162 419.072 221.401C421.862 220.595 424.836 218.982 427.757 219.049C432.465 219.166 437.189 212.222 442.068 218.896C442.229 219.117 446.044 217.954 447.832 217.036C452.047 214.882 456.062 212.499 460.162 210.203C460.825 210.726 461.487 211.262 462.142 211.791C461.541 213.632 460.933 215.466 459.985 218.305C464.493 217.159 467.807 216.328 471.12 215.491C471.467 216.02 471.814 216.55 472.161 217.079C467.598 219.333 462.952 221.481 458.505 223.87C453.958 226.314 449.974 229.596 445.111 231.467C426.061 238.781 406.865 245.855 387.545 252.695C365.613 260.465 343.404 267.711 321.471 275.48C299.994 283.09 278.694 291.013 257.417 298.967C254.365 300.106 251.945 302.292 249.102 303.837C246.266 305.364 243.468 307.131 240.316 308.042C231.469 310.591 222.384 312.617 213.545 315.184C211.61 315.744 210.3 317.689 209.352 319.783C293.236 297.527 370.53 263.032 452.903 238.301C453.272 238.91 453.642 239.52 454.012 240.136C448.032 242.26 442.044 244.384 436.064 246.514C436.257 247.049 436.457 247.591 436.65 248.127C439.077 248.25 441.505 248.367 446.352 248.613C405.493 262.896 366.738 276.441 327.976 289.991C328.392 290.761 328.8 291.524 329.216 292.294C366.384 279.802 403.559 267.311 440.734 254.825C441.166 255.607 441.597 256.401 442.029 257.189C397.294 275.69 348.621 287.787 305.843 309.871C309.557 309.397 313.264 308.929 316.971 308.455C317.202 308.966 317.426 309.471 317.657 309.969C289.96 319.309 262.256 328.648 234.56 337.981C234.829 338.739 235.099 339.496 235.377 340.259C270.864 330.901 306.167 320.565 346.848 325.945C329.602 332.385 313.935 338.234 298.268 344.076C298.607 345.006 298.938 345.929 299.277 346.859C311.245 344.316 323.221 341.768 335.196 339.219C335.443 339.933 335.69 340.653 335.944 341.368C329.663 343.085 323.375 344.815 317.087 346.533C317.148 347.149 317.202 347.764 317.264 348.386C332.692 347.82 348.12 347.241 363.548 346.668C315.707 354.265 269.284 365.169 224.673 380.88C273.461 371.959 320.138 355.651 372.402 354.616C365.197 357.799 356.412 357.214 354.663 365.002C354.316 366.548 349.607 367.736 346.687 368.598C317.749 377.143 288.612 385.294 259.829 394.203C246.05 398.463 232.826 403.235 220.357 410.518C206.493 418.607 188.776 422.523 172.678 428.132C159.485 432.731 146.207 437.151 133.515 443.227C177.533 433.414 221.559 423.613 266.579 413.584C266.055 415.726 266.078 416.139 265.932 416.182C253.255 420.073 240.44 423.68 227.963 427.928C223.755 429.363 220.303 432.3 216.666 434.701C213.414 436.837 210.385 439.17 207.256 441.423C206.594 440.839 205.931 440.26 205.268 439.675C207.002 438.234 208.728 436.794 211.387 434.584C199.791 437.153 194.253 440.933 194.772 445.924C189.123 447.925 183.274 450 177.425 452.074C176.978 451.446 176.539 450.825 176.1 450.197C180.138 448.005 184.184 445.813 188.229 443.628C187.798 443.012 187.374 442.396 186.942 441.787C180.677 444.502 174.412 447.223 166.505 450.652C169.272 451.206 170.428 451.428 173.564 452.05C169.703 454.174 167.037 456.039 163.962 457.246C159.046 459.185 152.873 459.739 152.719 465.81C152.703 466.536 149.952 467.213 148.473 467.934C138.647 472.723 128.821 477.519 120.298 483.559C177.263 471.16 234.236 458.766 291.24 446.361C293.736 451.015 293.035 451.668 285.321 453.503C267.612 457.732 249.888 461.912 232.379 466.604C227.185 467.995 222.684 471.036 216.982 473.733C216.897 473.591 216.08 472.372 215.679 471.757C159.932 489.297 104.261 506.812 48.5911 524.334C48.7452 524.721 48.8916 525.103 49.0457 525.485C50.3173 525.325 51.5888 525.158 52.8604 524.998C53.4383 525.657 54.0086 526.304 54.5789 526.95C50.3096 529.431 46.0326 531.912 42.7497 533.815C58.1469 533.925 74.8465 534.042 91.5384 534.159C91.5769 534.584 91.623 535.003 91.6539 535.422C67.4561 540.95 43.2583 546.472 19.0605 551.995C19.0605 552.414 19.0682 552.832 19.0836 553.251C26.5125 552.617 33.9182 551.958 41.3471 551.355C58.4243 549.969 75.4707 547.907 92.5941 547.451C112.353 546.928 132.189 547.827 148.658 548.061C110.735 553.971 69.4135 560.399 28.1077 566.832C28.1848 567.325 28.2541 567.811 28.3312 568.304C60.8749 565.656 93.4109 563.009 125.947 560.368C126.055 561.113 126.155 561.864 126.263 562.609C81.1502 573.198 34.3267 574.62 -12.0499 578.69C41.1468 579.533 93.5419 572.422 146.561 568.815C114.673 576.793 82.7608 584.766 50.8721 592.739C50.8567 593.01 50.8413 593.287 50.8336 593.558C68.4348 592.499 86.036 591.446 103.637 590.393C103.645 590.627 103.66 590.861 103.668 591.101C62.8323 596.291 21.9889 601.475 -18.8546 606.665C-19.0318 605.957 -19.209 605.261 -19.3863 604.559C-18.5386 603.962 -17.6986 603.359 -15.6256 601.881C-43.0601 605.366 -69.092 609.048 -95.2626 611.892C-120.763 614.668 -146.417 616.589 -171.994 618.886C-171.979 618.27 -171.956 617.654 -171.94 617.039H-171.902ZM243.645 320.552C244.023 321.242 244.408 321.944 244.778 322.639C270.733 313.534 296.672 304.422 322.627 295.323C322.25 294.639 321.888 293.962 321.518 293.285C295.555 302.372 269.6 311.465 243.645 320.546V320.552ZM129.908 296.523C130.209 297.17 130.509 297.829 130.81 298.475C141.067 295.28 151.308 292.084 161.566 288.895C161.327 288.378 161.088 287.867 160.857 287.356C150.538 290.416 140.219 293.47 129.908 296.523ZM301.142 311.551C300.68 310.751 300.217 309.951 299.755 309.157C291.71 311.97 283.664 314.784 275.619 317.597C275.896 318.071 276.158 318.545 276.428 319.019C284.666 316.532 292.904 314.045 301.142 311.551ZM101.934 490.239C101.503 489.149 101.056 488.059 100.624 486.969C95.5147 488.466 90.4055 489.968 85.2885 491.476C85.6584 492.307 86.036 493.151 86.4136 493.988C91.5846 492.732 96.7632 491.488 101.934 490.239Z" fill="url(#paint2_linear_125_105)"/>
<path fill-rule="evenodd" clip-rule="evenodd" d="M231.331 256.555C250.196 249.358 269.061 242.161 287.926 234.97C288.373 235.728 288.82 236.491 289.267 237.248C270.279 244.236 251.29 251.224 232.302 258.211C231.978 257.663 231.655 257.109 231.323 256.561L231.331 256.555Z" fill="url(#paint3_linear_125_105)"/>
<path fill-rule="evenodd" clip-rule="evenodd" d="M357.199 213.509C340.646 219.166 324.077 224.831 307.524 230.488C307.162 229.805 306.792 229.122 306.414 228.438C323.075 222.934 339.736 217.43 356.382 211.926C356.659 212.456 356.921 212.985 357.199 213.509Z" fill="url(#paint4_linear_125_105)"/>
<path fill-rule="evenodd" clip-rule="evenodd" d="M179.999 274.304C194.41 269.207 208.828 264.103 223.247 258.999C223.563 259.59 223.879 260.181 224.202 260.779C209.768 265.864 195.342 270.955 180.908 276.041C180.608 275.462 180.3 274.883 179.999 274.304Z" fill="url(#paint5_linear_125_105)"/>
</g>
<g style="mix-blend-mode:multiply">
<path fill-rule="evenodd" clip-rule="evenodd" d="M-215.982 397.263C-221.908 399.867 -227.85 402.471 -233.783 405.069C-234.092 404.571 -234.4 404.078 -234.708 403.579C-222.864 397.38 -211.011 391.186 -199.167 384.987C-199.359 384.599 -199.552 384.205 -199.745 383.811C-207.99 387.166 -216.236 390.521 -224.505 393.858C-225.26 394.16 -226.085 394.357 -226.902 394.511C-231.918 395.465 -237.544 395.453 -241.852 397.497C-257.796 405.045 -275.945 406.03 -292.182 411.94C-303.225 415.96 -314.939 417.087 -325.712 421.23C-331.376 423.403 -336.77 426.118 -343.883 429.314C-340.369 424.653 -337.795 421.242 -334.42 416.779C-339.075 417.813 -342.188 418.497 -345.294 419.192C-345.348 419.081 -345.409 418.977 -345.471 418.866C-336.593 415.4 -327.708 411.94 -318.83 408.474C-318.876 408.264 -318.93 408.055 -318.977 407.846C-324.695 409.305 -330.359 410.949 -336.131 412.18C-341.756 413.38 -347.482 414.162 -353.586 415.209C-355.004 416.219 -357.416 417.943 -359.835 419.666C-358.888 415.154 -359.319 413.171 -365.014 414.821C-389.582 421.901 -414.173 428.92 -438.771 435.944C-444.243 437.508 -449.699 439.183 -455.255 440.432C-457.151 440.857 -459.355 440.137 -461.628 439.921C-463.586 440.876 -466.075 442.544 -468.872 443.4C-486.627 448.774 -504.506 453.823 -522.215 459.308C-528.28 461.186 -534.013 463.926 -539.832 466.394C-544.502 468.364 -548.386 468.247 -552 464.049C-545.08 464.4 -540.009 462.67 -535.516 458.354C-532.904 455.848 -528.241 454.561 -524.28 453.25C-507.789 447.808 -491.259 442.452 -474.659 437.299C-465.936 434.59 -456.904 432.663 -448.258 429.812C-439.989 427.091 -432.144 423.354 -423.883 420.602C-419.575 419.168 -414.535 419.426 -410.242 417.973C-401.203 414.932 -392.595 410.862 -383.525 407.92C-350.727 397.287 -317.805 386.944 -284.938 376.491C-283.366 375.998 -281.794 375.542 -280.329 374.779C-357.963 397.183 -435.604 419.58 -513.237 441.978C-513.677 441.06 -514.116 440.143 -514.563 439.219C-510.941 437.785 -507.427 436.024 -503.666 434.99C-497.763 433.365 -491.629 432.435 -485.71 430.847C-471.084 426.931 -456.503 422.892 -441.977 418.706C-438.856 417.807 -436.028 416.052 -433.069 414.692C-433.454 414.039 -433.839 413.399 -434.224 412.746C-441.353 415.424 -448.489 418.109 -455.563 420.781C-455.386 418.521 -455.247 416.871 -455.047 414.402C-454.492 414.39 -452.666 414.402 -450.839 414.316C-449.198 414.249 -446.462 414.513 -446.077 413.898C-439.773 403.875 -426.418 402.785 -416.793 397.041C-414.396 395.619 -411.714 394.548 -409.765 392.03C-415.783 394.172 -421.864 396.185 -427.79 398.488C-440.181 403.321 -452.365 408.578 -464.911 413.067C-469.273 414.624 -474.706 413.762 -479.175 415.197C-490.65 418.878 -501.863 423.225 -513.823 426.217C-493.771 417.536 -473.719 408.868 -453.675 400.187C-453.991 399.639 -454.307 399.085 -454.623 398.531C-458.214 399.762 -461.844 400.926 -465.389 402.256C-470.729 404.257 -475.708 407.729 -481.896 404.324C-483.121 403.653 -486.019 404.952 -488.361 406.454C-486.62 406.719 -484.886 406.978 -483.144 407.236C-491.544 409.514 -498.611 417.056 -509.014 412.789C-510.078 413.417 -511.866 414.47 -513.677 415.535C-514.547 414.267 -515.218 413.282 -516.035 412.081C-490.635 401.338 -464.934 390.46 -439.226 379.581C-439.395 379.261 -439.565 378.941 -439.734 378.621C-469.234 390.103 -498.726 401.578 -528.218 413.054C-528.511 412.556 -528.804 412.063 -529.089 411.558C-511.503 403.893 -493.91 396.216 -476.316 388.545C-476.594 387.997 -476.871 387.449 -477.156 386.901C-488.515 390.922 -499.875 394.929 -511.226 398.95C-511.503 398.512 -511.788 398.075 -512.066 397.644C-493.432 389.148 -472.448 383.657 -460.21 367.724C-458.915 366.098 -458.045 363.888 -456.265 362.946C-435.18 351.741 -412.839 342.827 -389.497 335.857C-376.728 332.046 -363.743 328.808 -350.996 324.954C-345.633 323.329 -340.739 320.491 -335.414 318.736C-325.581 315.51 -315.586 312.684 -305.66 309.686C-305.791 309.181 -305.938 308.676 -306.084 308.171C-322.075 311.12 -338.073 314.069 -354.063 317.025C-354.318 316.218 -354.572 315.418 -354.819 314.617C-349.208 313.189 -343.591 311.767 -337.973 310.339C-321.211 307.273 -304.358 304.496 -289.4 296.332C-306.739 297.828 -324.024 299.485 -338.011 310.437C-336.47 308.141 -334.929 305.838 -332.887 302.772C-343.567 304.847 -354.187 306.916 -364.806 308.978C-365.045 308.418 -365.292 307.858 -365.53 307.291C-359.011 304.792 -352.484 302.292 -345.956 299.799C-346.064 299.515 -346.172 299.232 -346.272 298.949C-351.019 299.651 -355.767 300.353 -360.521 301.055C-360.745 300.205 -360.961 299.361 -361.184 298.512C-342.959 292.565 -323.947 288.729 -305.521 282.733C-321.481 285.429 -337.449 288.12 -353.416 290.81C-353.532 290.404 -353.64 290.004 -353.755 289.603C-335.522 284.106 -317.297 278.602 -299.071 273.104C-299.21 272.223 -299.341 271.343 -299.48 270.457C-307.648 271.429 -315.817 272.408 -323.986 273.381C-324.302 273.061 -324.625 272.753 -324.949 272.433C-323.408 271.343 -322.044 269.798 -320.279 269.244C-313.898 267.261 -307.363 265.654 -300.921 263.826C-297.43 262.841 -292.767 263.475 -291.642 258.956C-291.504 258.439 -289.469 257.934 -288.267 257.793C-271.637 255.841 -256.502 248.699 -239.964 246.151C-233.568 245.159 -227.495 241.983 -221.315 238.664C-228.042 239.44 -234.77 240.222 -241.497 240.998C-241.482 240.807 -241.459 240.616 -241.443 240.419C-228.289 236.448 -215.126 232.483 -201.979 228.512C-215.805 224.258 -230.03 227.755 -244.033 228.309C-244.118 227.724 -244.21 227.133 -244.295 226.536C-221.453 222.94 -198.596 219.345 -175.755 215.743C-175.716 215.571 -175.678 215.393 -175.639 215.22C-182.914 215.22 -190.196 215.22 -197.471 215.22C-197.471 214.561 -197.456 213.903 -197.456 213.244C-186.374 212.339 -175.285 211.422 -164.211 210.517C-164.134 209.981 -164.057 209.445 -163.972 208.916C-172.927 208.448 -181.897 207.974 -190.867 207.512C-190.867 206.946 -190.867 206.392 -190.867 205.831C-181.319 204.822 -171.771 203.75 -162.207 202.815C-155.772 202.181 -149.222 202.236 -142.911 201.054C-137.208 199.989 -131.844 197.446 -126.203 195.938C-109.658 191.505 -93.1355 186.949 -76.4436 183.009C-58.0795 178.681 -39.5535 174.889 -21.0661 171.035C7.34705 165.106 36.1763 160.944 63.8343 151.913C74.5615 148.409 85.9745 146.55 96.9329 143.053C90.2207 143.915 83.5085 144.765 76.7886 145.627C76.6807 145.319 76.5651 145.005 76.4572 144.691C82.3757 143.164 88.2864 141.606 94.2125 140.11C110.573 135.986 126.849 131.541 143.333 127.877C154.461 125.409 165.858 123.937 177.171 122.312C178.581 122.109 180.408 123.549 181.741 124.504C183.005 125.409 183.875 126.689 185.617 128.548C181.571 129.589 177.911 130.531 172.601 131.91C178.997 132.218 183.945 132.064 188.638 132.778C194.202 133.615 195.543 138.091 191.551 142.376C196.391 142.715 200.976 143.041 206.401 143.429C205.314 145.596 204.42 147.394 203.357 149.53C208.474 150.527 215.171 148.791 218.484 153.913C218.793 154.394 221.721 153.766 223.378 153.427C232.102 151.666 240.432 151.248 248.3 155.175C251.074 156.554 254.889 156.524 258.018 157.546C260.106 158.229 261.817 159.62 263.697 160.698C262.11 162.44 260.823 164.484 258.865 165.845C256.253 167.655 253.124 168.941 249.556 170.795C253.124 172.894 255.698 174.605 258.503 176.021C266.772 180.177 266.803 180.134 260.823 186.882C268.452 189.43 266.487 193.641 262.472 198.031C259.282 201.509 255.999 204.939 252.115 209.076C258.28 209.039 258.38 220.336 269.516 214.032C271.55 212.881 277.091 216.181 281.507 217.584C277.253 220.964 273.061 223.655 266.641 222.546C265.27 222.306 263.173 224.332 261.409 225.311C262.811 226.333 264.137 228.204 265.624 228.217C270.525 228.278 275.496 227.663 280.043 227.33C280.597 230.261 280.274 233.45 281.869 235.623C283.364 237.661 286.662 239.04 289.568 239.969C296.989 242.34 298.052 246.372 292.558 251.716C290.654 253.569 289.514 255.939 287.641 258.624C286.516 258.445 284.805 258.174 283.171 257.916C279.619 261.326 280.674 267.865 285.106 269.225C290.407 270.857 290.438 273.005 289.691 277.931C288.042 288.821 276.413 287.763 269.562 292.226C268.475 292.94 266.973 293.211 264.175 294.215C271.519 295.243 277.284 296.049 283.056 296.856C283.241 297.675 283.426 298.493 283.618 299.318C271.974 304.09 260.33 308.861 248.693 313.638C248.778 314.205 248.863 314.771 248.948 315.344C254.134 316.046 259.32 316.741 264.507 317.443C264.337 317.93 264.167 318.422 264.006 318.908C252.808 320.072 241.611 321.236 230.414 322.393C230.375 322.959 230.337 323.532 230.298 324.098C240.478 324.893 250.658 325.687 260.838 326.475C260.73 327.312 260.615 328.149 260.499 328.987C253.171 330.089 245.834 331.185 238.498 332.28C238.498 333.062 238.49 333.844 238.482 334.62C243.307 334.657 248.131 334.694 252.947 334.737C253.009 335.217 253.07 335.697 253.124 336.184C227.293 340.536 201.446 344.889 175.614 349.242C175.614 349.728 175.614 350.214 175.63 350.695C178.674 350.485 181.71 350.264 184.754 350.042C184.808 350.294 184.862 350.541 184.916 350.787C178.99 352.178 172.902 353.176 167.176 355.041C154.114 359.301 140.998 363.556 128.305 368.592C108.986 376.251 89.9818 384.494 70.9086 392.627C60.3973 397.115 50.0246 401.831 39.6288 406.528C28.0847 411.737 16.8489 417.536 5.01971 422.172C-14.1382 429.677 -33.7122 436.375 -53.0319 443.572C-58.7269 445.69 -64.1598 448.337 -71.0107 451.299C-69.0071 449.181 -67.9513 448.06 -66.9033 446.94C-112.232 467.355 -159.533 482.303 -207.798 494.991C-208.114 494.259 -208.437 493.526 -208.746 492.8C-201.101 490.491 -193.456 488.188 -185.812 485.88C-186.004 485.276 -186.205 484.679 -186.397 484.082C-196.053 486.582 -205.702 489.075 -215.365 491.575C-215.404 491.371 -215.442 491.174 -215.481 490.971C-184.401 480.222 -153.314 469.479 -122.242 458.73C-122.52 458.052 -122.797 457.381 -123.075 456.71C-126.843 457.849 -130.611 458.982 -134.372 460.121C-134.518 459.751 -134.665 459.382 -134.811 459.013C-118.921 451.908 -103.03 444.81 -87.14 437.705C-87.4329 437.2 -87.7334 436.689 -88.034 436.178C-104.225 442.87 -120.085 450.326 -136.715 456.027C-152.451 461.426 -168.665 465.736 -184.502 471.104C-201.047 476.719 -218.648 479.908 -235.795 484.162C-236.018 483.386 -236.242 482.611 -236.465 481.835C-221.738 478.061 -206.95 474.466 -192.308 470.402C-186.968 468.925 -182.035 466.277 -176.857 464.277C-167.301 460.583 -157.714 456.963 -148.135 453.324C-147.681 453.158 -147.157 453.127 -146.687 452.973C-143.673 452.031 -139.543 455.208 -137.455 450.837C-136.314 451.36 -135.181 451.877 -134.765 452.068C-131.158 449.427 -128.037 446.878 -124.585 444.686C-117.749 440.34 -110.937 435.913 -103.701 432.084C-99.8555 430.046 -95.0004 429.461 -90.893 427.713C-87.795 426.395 -85.1672 424.271 -82.3236 422.511C-82.8322 421.864 -83.3408 421.218 -83.8417 420.571C-85.7991 421.279 -87.7103 422.117 -89.7139 422.671C-95.0775 424.148 -100.642 425.139 -105.82 426.999C-111.346 428.981 -116.424 431.906 -121.865 434.11C-129.633 437.249 -137.547 440.112 -145.4 443.092C-145.762 442.488 -146.124 441.898 -146.486 441.294C-129.779 433.389 -113.072 425.484 -96.3645 417.579C-96.4955 417.241 -96.6342 416.896 -96.7729 416.557C-104.965 419.032 -113.157 421.501 -121.348 423.97C-121.579 423.416 -121.818 422.862 -122.042 422.308C-94.646 412.562 -65.624 405.876 -41.3491 389.844C-49.2943 392.239 -57.2087 394.726 -65.2002 396.998C-68.4831 397.934 -71.7813 400.181 -75.2029 396.665C-76.1123 395.736 -81.0752 397.571 -84.1731 398.137C-84.1037 398.654 -84.0498 399.183 -83.9882 399.701C-82.5702 399.824 -81.1522 399.953 -80.8362 399.978C-112.702 412.999 -145.207 426.285 -177.712 439.564C-178.098 438.893 -178.483 438.216 -178.868 437.545C-168.549 432.903 -158.223 428.267 -147.912 423.619C-142.502 421.181 -136.946 418.934 -131.821 416.114C-130.118 415.172 -129.556 412.722 -128.554 411.121C-126.758 411.669 -125.132 412.18 -123.498 412.679C-123.005 410.579 -122.512 408.486 -121.926 405.956C-161.66 417.943 -200.469 429.652 -239.27 441.356C-239.509 440.752 -239.748 440.155 -239.987 439.552C-226.285 434.842 -212.583 430.132 -198.882 425.416C-199.036 424.838 -199.197 424.259 -199.359 423.68C-205.887 425.546 -212.421 427.368 -218.926 429.277C-225.807 431.302 -232.666 433.408 -239.787 434.91C-198.689 420.504 -155.95 409.6 -117.218 389.85C-115.145 390.306 -113.079 390.761 -109.912 391.463C-109.581 389.241 -109.327 387.468 -108.949 384.882C-117.125 387.351 -124.13 389.518 -131.189 391.58C-144.899 395.588 -158.662 399.43 -172.326 403.561C-178.491 405.426 -184.417 407.895 -190.528 409.89C-192.948 410.684 -195.583 411.023 -198.134 411.435C-202.342 412.106 -207.297 411.435 -207.898 417.056C-208.021 418.263 -211.034 419.395 -213.693 419.962C-213.077 418.897 -212.452 417.832 -210.957 415.264C-218.671 417.592 -225.06 419.519 -231.448 421.446C-231.803 420.553 -232.157 419.648 -232.504 418.755C-204.815 409.662 -177.134 400.556 -148.844 391.26C-150.093 390.54 -150.786 390.152 -151.465 389.758C-150.155 389.21 -148.86 388.299 -147.527 388.182C-143.989 387.868 -140.429 387.886 -136.884 387.782C-136.853 387.123 -136.83 386.47 -136.807 385.818C-138.688 385.904 -140.552 385.996 -143.566 386.138C-140.93 384.26 -139.011 382.899 -136.923 381.41C-144.483 379.606 -151.657 378.448 -159.618 382.512C-166.923 386.249 -174.899 389.118 -182.798 391.882C-185.873 392.959 -189.541 392.719 -192.94 393.076C-191.206 390.515 -189.472 387.96 -187.746 385.405C-188.008 384.98 -188.278 384.562 -188.54 384.143C-197.733 388.539 -206.919 392.935 -216.105 397.33L-215.997 397.226L-215.982 397.263ZM-398.082 377.974C-398.005 378.184 -397.92 378.393 -397.835 378.602C-335.106 359.677 -272.384 340.752 -209.663 321.833C-209.74 321.624 -209.817 321.414 -209.902 321.205C-272.631 340.13 -335.36 359.055 -398.082 377.974ZM-84.9129 364.134C-84.8898 363.439 -84.8589 362.743 -84.8358 362.047C-87.2325 362.306 -89.8912 362.066 -91.9796 362.909C-99.1773 365.846 -106.082 369.337 -113.295 372.218C-115.754 373.197 -118.859 372.852 -121.603 373.418C-123.545 373.819 -126.157 374.354 -127.051 375.524C-128.662 377.642 -129.201 380.271 -130.326 383.053C-123.984 381.139 -117.303 379.126 -110.197 376.983C-109.612 371.602 -108.417 370.654 -102.26 371.368C-103.701 372.889 -105.142 374.397 -107.099 376.454C-97.0914 374.566 -91.1884 370.383 -89.3903 363.907C-87.9184 363.98 -86.4156 364.054 -84.9206 364.134H-84.9129ZM-153.322 377.297C-153.699 376.534 -154.085 375.758 -154.462 374.988C-163.702 378.565 -172.934 382.155 -182.174 385.731C-181.858 386.366 -181.542 387.006 -181.226 387.646C-171.925 384.192 -162.631 380.745 -153.329 377.297H-153.322ZM-88.427 368.832C-88.0109 369.509 -87.5947 370.18 -87.1709 370.857C-80.1504 368.419 -72.0587 367.933 -66.4794 362.86C-66.7953 362.257 -67.119 361.659 -67.435 361.056C-74.4323 363.648 -81.4297 366.246 -88.427 368.832ZM179.629 152.836C186.103 151.518 191.566 150.404 197.03 149.284C187.128 146.058 183.737 146.864 179.629 152.836ZM-310.461 332.65C-310.561 332.471 -310.669 332.293 -310.762 332.108C-324.887 336.368 -339.013 340.629 -353.139 344.895C-353.069 345.086 -353 345.271 -352.923 345.462C-338.766 341.189 -324.61 336.922 -310.453 332.65H-310.461ZM-155.349 236.195C-155.364 235.352 -155.387 234.49 -155.418 233.641C-162.346 234.164 -169.274 234.687 -176.202 235.21C-176.186 235.863 -176.171 236.503 -176.148 237.156C-169.212 236.83 -162.277 236.509 -155.349 236.189V236.195ZM-398.182 358.723C-398.136 358.815 -398.09 358.901 -398.043 358.994C-385.667 355.263 -373.291 351.526 -360.914 347.795C-360.953 347.703 -360.991 347.61 -361.03 347.518C-373.406 351.255 -385.798 354.992 -398.174 358.723H-398.182ZM-303.109 329.793C-303.063 329.923 -303.009 330.058 -302.963 330.193C-291.265 326.666 -279.559 323.132 -267.861 319.604C-267.915 319.469 -267.961 319.339 -268.007 319.204C-279.705 322.732 -291.411 326.266 -303.109 329.793ZM-451.618 375.696C-451.456 376.01 -451.286 376.318 -451.124 376.638C-443.048 373.474 -434.98 370.303 -426.911 367.139C-427.135 366.72 -427.358 366.295 -427.582 365.877C-435.596 369.152 -443.611 372.427 -451.618 375.696ZM276.975 301.695C276.945 300.907 276.906 300.119 276.875 299.325C271.735 299.669 266.595 300.014 261.463 300.353C261.486 301.178 261.517 302.003 261.547 302.828C266.695 302.452 271.835 302.076 276.975 301.689V301.695ZM194.549 340.61C194.549 341.22 194.533 341.817 194.526 342.426C201.723 340.98 208.921 339.533 216.119 338.092C216.003 337.618 215.895 337.144 215.787 336.664C208.705 337.981 201.623 339.287 194.541 340.604L194.549 340.61Z" fill="url(#paint6_linear_125_105)"/>
</g>
<g style="mix-blend-mode:multiply">
<path fill-rule="evenodd" clip-rule="evenodd" d="M422.154 527.553C400.137 539.59 378.383 551.958 356.019 563.569C333.077 575.494 309.527 586.687 285.051 598.785C287.934 598.822 289.105 598.84 290.276 598.852C290.731 599.499 291.178 600.145 291.64 600.792C255.197 618.812 218.754 636.832 182.311 654.846C182.118 654.649 181.926 654.464 181.733 654.273C196.444 645.58 211.14 636.887 225.852 628.194C225.613 627.985 225.366 627.782 225.119 627.573C193.331 638.562 161.542 649.564 129.754 660.553C174.412 634.708 221.551 611.947 262.58 582.513C222.746 604.406 184.792 628.613 140.427 644.706C139.872 644.06 139.317 643.419 138.77 642.773C166.544 627.246 194.31 611.726 222.091 596.199C221.736 595.774 221.382 595.355 221.02 594.931C183.151 612.224 145.282 629.53 110.519 645.402C123.242 636.309 138.046 624.876 153.998 614.601C167.815 605.698 182.943 598.095 197.515 589.944C203.858 586.398 210.231 582.907 216.596 579.392C216.249 579.059 215.895 578.727 215.548 578.394C191.882 587.149 168.208 595.903 144.542 604.652C144.211 604.301 143.895 603.95 143.564 603.593C156.564 594.475 169.565 585.351 181.548 576.935C177.356 577.218 171.892 577.581 166.444 577.945C166.343 577.126 166.235 576.307 166.135 575.482C167.268 574.922 168.401 574.362 169.542 573.801C169.333 573.42 169.125 573.038 168.917 572.65C110.388 589.014 51.8661 605.378 -6.74033 621.767C-6.53998 622.463 -6.13922 623.86 -6.08527 624.02C-12.8437 624.987 -18.9548 625.036 -24.2105 626.747C-41.9196 632.541 -59.3744 638.845 -76.8523 645.106C-84.4662 647.834 -85.5605 647.704 -87.5487 642.699C-32.3022 621.601 22.8982 600.515 78.1061 579.435C66.3001 579.305 54.5326 580.857 42.7573 582.414C40.9926 582.648 38.2568 583.603 37.6326 583.042C32.3692 578.357 27.0596 581.263 21.5573 582.402C18.128 583.116 14.4521 583.098 9.62021 583.516C11.5545 581.337 12.2711 580.53 13.9742 578.603C4.87308 580.186 -2.35544 581.448 -9.56854 582.704C-9.38358 583.418 -9.19861 584.126 -9.01364 584.84C-3.98914 584.372 1.04303 583.904 6.06757 583.436C6.2525 584.169 6.42978 584.895 6.61472 585.628C0.264709 587.161 -6.07758 588.694 -12.2118 590.184C-16.0341 585.989 -23.5837 586.018 -34.8607 590.27C-30.9073 590.566 -28.3257 590.763 -25.7441 590.96C-25.7672 591.772 -25.798 592.591 -25.8211 593.404C-30.1829 593.33 -34.5447 593.139 -38.9065 593.219C-43.7923 593.305 -48.9863 592.862 -53.5099 594.019C-66.9035 597.436 -80.0119 601.536 -93.259 605.341C-93.4131 605.39 -93.7445 605.052 -95.9716 603.654C-52.1459 587.173 -9.29108 571.056 33.5637 554.944C18.4594 557.043 4.2951 560.756 -9.95386 564.283C-27.3393 568.593 -44.5551 575.1 -62.2951 576.252C-78.2471 577.28 -92.6656 580.691 -107.092 584.797C-137.224 593.373 -166.993 602.737 -196.94 611.682C-199.968 612.587 -204.661 614.2 -206.241 613.172C-214.217 608.007 -220.606 613.222 -228.959 614.619C-187.076 587.161 -136.622 574.712 -90.7776 555.326C-139.096 567.128 -184.764 583.683 -228.744 603.593C-216.152 595.694 -203.559 587.801 -190.967 579.909C-191.445 579.392 -191.923 578.881 -192.401 578.363C-198.789 580.414 -205.185 582.457 -211.574 584.508C-211.982 583.812 -212.391 583.116 -212.807 582.42C-201.255 577.939 -189.696 573.463 -178.152 568.987C-178.676 568.076 -179.2 567.165 -179.716 566.26C-196.963 570.15 -214.21 574.035 -233.198 578.308C-205.833 552.087 -169.374 541.098 -133.594 529.247C-134.025 528.502 -134.457 527.763 -134.881 527.018C-164.527 534.67 -194.173 542.329 -223.819 549.976C-224.058 549.458 -224.313 548.941 -224.567 548.412C-221.261 546.774 -217.947 545.143 -214.633 543.505C-266.913 549.317 -315.355 566.149 -366.139 575.827C-366.471 574.977 -366.802 574.122 -367.134 573.272C-327.384 562.966 -287.635 552.66 -247.878 542.354C-248.202 541.523 -248.533 540.704 -248.849 539.879C-290.749 550.216 -332.632 560.546 -376.797 571.437C-373.198 568.624 -371.395 567.214 -369.592 565.81C-369.9 565.281 -370.193 564.751 -370.501 564.222C-376.998 565.785 -383.494 567.355 -389.99 568.925C-390.222 568.242 -390.445 567.565 -390.676 566.888C-305.09 541.738 -215.204 526.999 -130.527 499.098C-133.047 497.971 -135.721 497.152 -137.709 497.756C-146.818 500.52 -155.665 503.851 -164.766 506.634C-168.018 507.625 -171.702 507.754 -175.223 508.086C-178.768 508.413 -182.513 508.007 -185.881 508.764C-209.324 514.028 -232.751 519.334 -256.047 524.98C-279.836 530.742 -303.41 537.071 -327.199 542.834C-348.153 547.919 -369.207 552.746 -390.353 557.308C-395.755 558.465 -401.658 558.047 -407.299 558.589C-412.809 559.118 -418.28 559.949 -423.767 560.645C-423.944 560.042 -424.122 559.438 -424.299 558.835C-420.993 557.696 -417.687 556.563 -413.179 555.024C-416.315 553.312 -418.357 552.198 -420.384 551.078C-420.322 550.302 -420.253 549.532 -420.176 548.757C-415.021 548.344 -409.85 548.042 -404.71 547.451C-402.536 547.199 -398.552 546.054 -398.614 545.789C-400.433 537.915 -390.846 540.809 -387.255 538.174C-385.02 536.542 -381.313 536.197 -378.446 535.323C-409.534 540.002 -440.459 544.656 -471.377 549.311C-471.562 548.732 -471.754 548.159 -471.932 547.581C-449.136 542.292 -426.349 537.004 -403.554 531.715C-404.34 530.835 -405.118 529.948 -405.904 529.062C-403.785 527.061 -402.136 524.02 -399.446 523.219C-382.955 518.325 -366.201 513.997 -349.594 509.342C-342.181 507.268 -333.072 507.028 -331.785 501.401C-326.891 501.277 -323.161 501.739 -319.855 500.994C-307.363 498.187 -295.018 494.985 -282.618 491.932C-283.035 491.304 -283.443 490.676 -283.867 490.048C-281.555 488.589 -279.443 486.877 -276.931 485.72C-266.805 481.047 -253.25 485.892 -244.025 478.27C-243.478 477.821 -241.205 478.769 -239.71 478.966C-237.182 479.311 -234.477 480.185 -232.134 479.773C-224.521 478.43 -217.022 476.682 -209.516 474.958C-201.957 473.222 -194.443 471.332 -186.921 469.51C-187.153 468.82 -187.368 468.143 -187.6 467.453C-198.342 469.553 -209.077 471.64 -219.812 473.733C-220.113 473.093 -220.405 472.452 -220.698 471.806C-219.018 470.975 -217.454 469.774 -215.628 469.368C-198.658 465.594 -181.751 461.506 -164.573 458.44C-154.016 456.55 -144.814 449.267 -132.708 452.967C-132.006 453.176 -129.648 451.773 -129.741 451.477C-131.737 445.653 -125.194 447.254 -122.189 445.905C-119.283 444.6 -116.216 443.523 -113.218 442.347C-113.48 441.83 -113.75 441.319 -114.004 440.802C-119.784 442.279 -125.572 443.751 -131.675 445.296C-123.822 431.955 -106.606 435.532 -93.8832 430.859C-96.4803 429.511 -98.1217 428.661 -100.341 427.516C-87.0477 423.945 -74.7639 420.651 -62.1024 417.253C-63.6514 415.258 -64.6686 413.941 -65.7321 412.568C-51.1055 408.634 -37.0338 404.983 -23.1008 401.024C-18.1996 399.633 -11.0789 398.463 -9.35272 395.539C-2.84091 384.525 14.5599 387.837 22.22 379.002C22.4897 378.688 24.3392 378.805 24.9557 379.206C33.6176 384.753 39.9831 378.572 45.9401 375.795C69.1746 364.941 91.677 353.096 114.765 342.026C127.665 335.839 140.974 330.12 154.476 324.806C168.324 319.358 178.203 307.082 196.398 309.021C196.645 309.046 196.93 308.732 197.215 308.609C213.159 301.412 230.298 295.458 244.724 286.667C258.272 278.405 272.66 281.501 286.654 279.501C287.394 280.172 288.126 280.837 288.851 281.508C282.994 286.888 277.129 292.257 271.642 297.281C282.038 296.991 292.95 296.683 303.87 296.376C304.255 297.287 304.633 298.198 305.011 299.109C287.186 309.834 269.354 320.558 251.529 331.289C251.984 331.794 252.446 332.305 252.908 332.816C270.51 324.96 288.103 317.098 306.544 308.867C311.738 321.956 295.709 323.594 291.91 331.406C288.535 338.32 275.912 342.359 267.365 347.672C267.674 348.14 267.974 348.614 268.275 349.088C273.446 347.333 278.609 345.585 283.418 343.947C286.477 345.874 289.506 347.777 292.557 349.691C285.699 354.173 278.871 358.63 270.779 363.919C275.788 364.461 278.331 364.738 283.433 365.286C278.986 368.82 276.135 370.814 273.731 373.092C271.797 374.939 270.402 377.156 268.776 379.206C269.762 379.741 270.733 380.283 271.712 380.819C276.243 378.017 280.774 375.216 283.379 373.603C288.211 374.046 291.186 374.853 293.914 374.477C308.355 372.458 322.735 370.137 337.123 367.921C337.639 368.863 338.148 369.811 338.664 370.759C332.191 375.031 325.725 379.304 319.244 383.571C323.506 383.909 326.92 381.73 329.309 382.29C334.318 383.497 338.803 386.175 340.221 379.458C343.064 380.185 346.008 380.72 348.706 381.699C350.378 382.308 351.518 384.205 353.16 384.463C371.154 387.283 387.977 384.987 403.32 376.669C404.854 375.838 406.634 375.068 408.414 374.804C417.507 373.498 426.724 372.686 435.725 371.06C442.052 369.909 446.992 369.294 446.337 376.38C450.19 375.659 453.272 375.081 458.104 374.182C450.621 380.677 444.826 385.719 438.191 391.476C446.691 390.349 453.365 389.462 457.519 388.908C463.499 394.375 468.199 398.673 473.586 403.604C463.337 408.671 452.933 413.811 442.53 418.958C442.892 419.488 443.254 420.017 443.616 420.547C458.104 415.991 472.6 411.441 487.088 406.892C487.905 407.877 488.729 408.862 489.538 409.841C483.296 415.622 477.054 421.396 471.891 426.174C474.742 427.331 479.343 429.203 485.454 431.69C481.316 434.257 478.719 436.172 475.79 437.643C454.737 448.263 433.49 458.637 412.614 469.473C408.476 471.621 404.599 474.983 402.495 478.51C399.544 483.442 398.357 489.05 396.261 494.813C397.379 494.905 399.421 495.078 403.721 495.453C397.325 497.836 393.256 499.35 389.187 500.859C389.295 501.105 389.402 501.345 389.51 501.597C394.25 500.742 398.974 499.892 403.729 499.043C403.906 499.467 404.083 499.898 404.268 500.323C400.6 502.133 396.932 503.949 393.263 505.765C393.495 506.517 393.718 507.274 393.949 508.025C400.207 507.206 406.441 506.381 411.82 505.673C420.621 512.107 415.573 516.49 408.977 520.855C411.843 521.514 414.078 522.019 417.145 522.727C414.964 525.608 413.269 527.849 411.574 530.084C411.99 530.367 412.406 530.65 412.814 530.933C415.396 529.333 417.978 527.732 420.567 526.137C421.099 526.612 421.638 527.079 422.177 527.56L422.154 527.553ZM-240.981 538.968C-240.696 539.7 -240.411 540.427 -240.126 541.166C-212.052 534.27 -183.978 527.387 -155.896 520.492C-156.189 519.741 -156.489 518.99 -156.774 518.239C-184.841 525.146 -212.907 532.054 -240.981 538.962V538.968ZM-119.938 447.42C-119.692 447.949 -119.437 448.473 -119.191 449.008C-108.44 445.967 -97.6902 442.926 -86.9399 439.891C-87.2481 439.219 -87.5795 438.542 -87.8878 437.871C-98.5687 441.054 -109.25 444.237 -119.938 447.42ZM-183.793 534.769C-183.985 534.252 -184.178 533.735 -184.363 533.217C-193.063 535.36 -201.756 537.509 -210.457 539.651C-210.141 540.525 -209.825 541.406 -209.509 542.28C-200.932 539.78 -192.362 537.275 -183.793 534.769ZM113.578 569.289C113.162 568.427 112.746 567.565 112.33 566.709C107.036 568.291 101.757 569.88 96.478 571.468C97.0637 572.564 97.6417 573.654 98.2196 574.743C103.337 572.927 108.454 571.099 113.578 569.289Z" fill="url(#paint7_linear_125_105)"/>
</g>
<defs>
<linearGradient id="paint0_linear_125_105" x1="-243.593" y1="69.4275" x2="46.4351" y2="679.015" gradientUnits="userSpaceOnUse">
<stop stop-color="#FEDC31"/>
<stop offset="0.09" stop-color="#FDC347"/>
<stop offset="0.27" stop-color="#FC8682"/>
<stop offset="0.52" stop-color="#FA2CD7"/>
<stop offset="0.76" stop-color="#987CDB"/>
<stop offset="1" stop-color="#33D0E0"/>
</linearGradient>
<linearGradient id="paint1_linear_125_105" x1="91.8704" y1="-90.1596" x2="381.883" y2="519.394" gradientUnits="userSpaceOnUse">
<stop stop-color="#FEDC31"/>
<stop offset="0.09" stop-color="#FDC347"/>
<stop offset="0.27" stop-color="#FC8682"/>
<stop offset="0.52" stop-color="#FA2CD7"/>
<stop offset="0.76" stop-color="#987CDB"/>
<stop offset="1" stop-color="#33D0E0"/>
</linearGradient>
<linearGradient id="paint2_linear_125_105" x1="-164.458" y1="31.7737" x2="125.572" y2="641.37" gradientUnits="userSpaceOnUse">
<stop stop-color="#FEDC31"/>
<stop offset="0.09" stop-color="#FDC347"/>
<stop offset="0.27" stop-color="#FC8682"/>
<stop offset="0.52" stop-color="#FA2CD7"/>
<stop offset="0.76" stop-color="#987CDB"/>
<stop offset="1" stop-color="#33D0E0"/>
</linearGradient>
<linearGradient id="paint3_linear_125_105" x1="30.6768" y1="-61.1299" x2="320.756" y2="548.565" gradientUnits="userSpaceOnUse">
<stop stop-color="#FEDC31"/>
<stop offset="0.09" stop-color="#FDC347"/>
<stop offset="0.27" stop-color="#FC8682"/>
<stop offset="0.52" stop-color="#FA2CD7"/>
<stop offset="0.76" stop-color="#987CDB"/>
<stop offset="1" stop-color="#33D0E0"/>
</linearGradient>
<linearGradient id="paint4_linear_125_105" x1="97.6887" y1="-92.9881" x2="387.753" y2="516.673" gradientUnits="userSpaceOnUse">
<stop stop-color="#FEDC31"/>
<stop offset="0.09" stop-color="#FDC347"/>
<stop offset="0.27" stop-color="#FC8682"/>
<stop offset="0.52" stop-color="#FA2CD7"/>
<stop offset="0.76" stop-color="#987CDB"/>
<stop offset="1" stop-color="#33D0E0"/>
</linearGradient>
<linearGradient id="paint5_linear_125_105" x1="-23.672" y1="-35.2415" x2="266.386" y2="574.407" gradientUnits="userSpaceOnUse">
<stop stop-color="#FEDC31"/>
<stop offset="0.09" stop-color="#FDC347"/>
<stop offset="0.27" stop-color="#FC8682"/>
<stop offset="0.52" stop-color="#FA2CD7"/>
<stop offset="0.76" stop-color="#987CDB"/>
<stop offset="1" stop-color="#33D0E0"/>
</linearGradient>
<linearGradient id="paint6_linear_125_105" x1="-303.923" y1="98.1267" x2="-13.8887" y2="707.727" gradientUnits="userSpaceOnUse">
<stop stop-color="#FEDC31"/>
<stop offset="0.09" stop-color="#FDC347"/>
<stop offset="0.27" stop-color="#FC8682"/>
<stop offset="0.52" stop-color="#FA2CD7"/>
<stop offset="0.76" stop-color="#987CDB"/>
<stop offset="1" stop-color="#33D0E0"/>
</linearGradient>
<linearGradient id="paint7_linear_125_105" x1="-282.842" y1="88.0871" x2="7.19232" y2="697.688" gradientUnits="userSpaceOnUse">
<stop stop-color="#FEDC31"/>
<stop offset="0.09" stop-color="#FDC347"/>
<stop offset="0.27" stop-color="#FC8682"/>
<stop offset="0.52" stop-color="#FA2CD7"/>
<stop offset="0.76" stop-color="#987CDB"/>
<stop offset="1" stop-color="#33D0E0"/>
</linearGradient>
</defs>
</svg>
