<svg width="555" height="114" viewBox="0 0 555 114" fill="none" xmlns="http://www.w3.org/2000/svg">
<path fill-rule="evenodd" clip-rule="evenodd" d="M6.34864 0.0216895H106.076C109.584 0.0216895 112.425 2.88464 112.425 6.41995V106.927C112.425 110.462 109.584 113.325 106.076 113.325H6.34864C2.84075 113.325 0 110.462 0 106.927V6.39826C0 2.90633 2.84075 0 6.34864 0V0.0216895Z" fill="#02355E"/>
<path fill-rule="evenodd" clip-rule="evenodd" d="M41.1687 87.689H19.4111C19.4111 87.689 17.1514 87.7541 17.4312 84.2622V27.9358C17.4312 27.9358 17.1514 25.6584 20.1428 25.7669C20.1428 25.7669 31.4628 25.3114 36.0037 26.5694C40.5876 27.8273 45.4083 29.2588 51.9721 39.5828C51.9721 39.5828 53.3925 43.1832 56.2117 43.2265C59.0524 43.1615 60.4513 39.5828 60.4513 39.5828C67.0151 29.3022 71.8358 27.8273 76.4197 26.6344C81.0037 25.3765 92.2806 25.8319 92.2806 25.8319C95.2289 25.7235 94.9492 28.0008 94.9492 28.0008V84.3272C95.1859 87.8192 93.0338 87.7541 93.0338 87.7541H71.2763C69.6407 87.9927 69.404 86.6046 69.404 86.6046C69.404 86.6046 69.3394 78.7315 70.5446 72.6152C71.7497 66.4989 78.7655 59.4933 82.1012 54.5265C85.437 49.5597 81.1974 47.0438 78.7009 46.9354C76.2045 46.7618 71.6852 53.6806 66.4771 61.1417C61.3336 68.6244 56.2763 67.5833 56.2763 67.5833C56.2763 67.5833 51.2404 68.5593 46.0324 61.1417C40.8889 53.659 36.348 46.7618 33.8516 46.9354C31.3121 47.1089 27.1156 49.5597 30.3867 54.5265C33.7225 59.4933 40.8028 66.5205 41.9434 72.6152C43.1271 78.6664 43.084 86.6046 43.084 86.6046C43.084 86.6046 42.8042 87.9276 41.1687 87.689ZM56.2332 50.2538C59.5259 50.2538 62.2375 52.9432 62.2375 56.305C62.2375 59.6668 59.5259 62.3563 56.2332 62.3563C52.9405 62.3563 50.2289 59.6668 50.2289 56.305C50.2289 52.9432 52.8975 50.2538 56.2332 50.2538Z" fill="#ED701E"/>
<mask id="mask0_142_40" style="mask-type:luminance" maskUnits="userSpaceOnUse" x="17" y="25" width="78" height="63">
<path d="M41.1687 87.689H19.4111C19.4111 87.689 17.1514 87.7541 17.4312 84.2622V27.9358C17.4312 27.9358 17.1514 25.6584 20.1428 25.7669C20.1428 25.7669 31.4628 25.3114 36.0037 26.5694C40.5876 27.8273 45.4083 29.2588 51.9721 39.5828C51.9721 39.5828 53.3925 43.1832 56.2117 43.2265C59.0524 43.1615 60.4513 39.5828 60.4513 39.5828C67.0151 29.3022 71.8358 27.8273 76.4197 26.6344C81.0037 25.3765 92.2806 25.8319 92.2806 25.8319C95.2289 25.7235 94.9492 28.0008 94.9492 28.0008V84.3272C95.1859 87.8192 93.0338 87.7541 93.0338 87.7541H71.2763C69.6407 87.9927 69.404 86.6046 69.404 86.6046C69.404 86.6046 69.3394 78.7315 70.5446 72.6152C71.7282 66.4989 78.7655 59.4933 82.1012 54.5265C85.437 49.5597 81.1974 47.0438 78.7009 46.9354C76.2045 46.7618 71.6852 53.6806 66.4771 61.1417C61.3336 68.6244 56.2763 67.5833 56.2763 67.5833C56.2763 67.5833 51.2404 68.5593 46.0324 61.1417C40.8889 53.659 36.348 46.7618 33.8516 46.9354C31.3121 47.1089 27.1156 49.5597 30.3867 54.5265C33.7225 59.4933 40.8028 66.5205 41.9434 72.6152C43.1271 78.6664 43.084 86.6046 43.084 86.6046C43.084 86.6046 42.8042 87.9276 41.1687 87.689ZM56.2332 50.2538C59.5259 50.2538 62.2375 52.9432 62.2375 56.305C62.2375 59.6668 59.5259 62.3563 56.2332 62.3563C52.9405 62.3563 50.2289 59.6668 50.2289 56.305C50.2289 52.9432 52.8975 50.2538 56.2332 50.2538Z" fill="white"/>
</mask>
<g mask="url(#mask0_142_40)">
<path fill-rule="evenodd" clip-rule="evenodd" d="M41.2753 58.5821L37.7029 55.7842C37.7029 55.7842 34.6469 65.2623 17.4303 71.487L14.2021 88.2743L36.1749 92.0482L49.1519 83.5461L41.2753 58.6038V58.5821Z" fill="#B2D925"/>
<path fill-rule="evenodd" clip-rule="evenodd" d="M14.2656 24.2705L17.3861 32.3822C17.3861 32.3822 24.983 50.7528 37.6587 55.7196C37.6587 55.7196 34.6028 65.1977 17.3861 71.4224L14.2656 24.2705Z" fill="#F2CE1B"/>
<path fill-rule="evenodd" clip-rule="evenodd" d="M71.2537 56.8686L74.7616 55.7842C74.7616 55.7842 77.8175 65.2623 95.0342 71.487L98.3268 88.2743L76.2895 92.0482L63.3125 83.5461L71.2322 56.8903L71.2537 56.8686Z" fill="#B2D925"/>
<path fill-rule="evenodd" clip-rule="evenodd" d="M98.1539 24.2705L95.0333 32.3822C95.0333 32.3822 87.4365 50.7528 74.7607 55.7196C74.7607 55.7196 77.8167 65.1977 95.0333 71.4224L98.1539 24.2705Z" fill="#F2CE1B"/>
</g>
<path d="M179.936 87.9711C182.819 87.9711 185.079 85.6938 185.079 82.8959V31.5796C185.079 28.8468 182.863 26.5044 179.936 26.5044C178.343 26.5044 176.88 27.1984 175.911 28.4998L157.059 53.7892L138.25 28.4998C137.281 27.1768 135.818 26.5044 134.226 26.5044C131.234 26.5044 129.082 28.8468 129.082 31.5796V82.8308C129.082 85.6287 131.342 87.906 134.118 87.906C136.894 87.906 139.261 85.6287 139.261 82.8308V46.9355L152.906 65.3711C153.874 66.6942 155.445 67.475 156.973 67.475C158.501 67.475 160.094 66.6725 161.04 65.3711L174.749 46.9355V82.8308C174.814 85.6937 177.073 87.9711 179.893 87.9711H179.936Z" fill="#02355E"/>
<path d="M214.756 46.9351C203.608 46.9351 194.419 56.1746 194.419 67.4746C194.419 78.7745 203.544 87.9056 214.756 87.9056C225.968 87.9056 235.136 78.7095 235.136 67.4746C235.136 56.2397 225.968 46.9351 214.756 46.9351ZM214.756 77.6901C209.204 77.6901 204.62 73.1137 204.62 67.5396C204.62 61.9656 209.161 57.259 214.756 57.259C220.352 57.259 224.957 61.8354 224.957 67.5396C224.957 73.2438 220.416 77.6901 214.756 77.6901Z" fill="#02355E"/>
<path d="M327.397 66.5636C327.397 61.3149 325.632 56.3481 322.297 52.7477C319.004 48.9738 314.485 46.9351 309.621 46.9351C299.872 46.9351 291.845 56.0661 291.845 67.4312C291.845 72.8534 293.308 77.7118 296.213 81.4206C299.334 85.368 303.982 87.6454 309.298 87.9273C309.642 87.9924 310.137 87.9924 310.891 87.9924C313.323 87.9924 317.691 87.5369 321.823 84.739C323.351 83.763 324.212 82.0062 324.212 80.3362C324.212 79.3602 323.932 78.4058 323.373 77.6033C322.404 76.1285 320.769 75.326 319.069 75.326C318.1 75.326 317.153 75.5646 316.292 76.1285C314.14 77.7335 311.644 77.7335 310.396 77.7335H309.836C305.36 77.56 303.487 74.5886 302.584 71.7907H322.34C325.18 71.7907 327.44 69.3832 327.44 66.607L327.397 66.5636ZM303.509 61.4233C304.865 58.864 307.189 57.1506 309.621 57.1506C312.505 57.1506 314.829 58.799 316.142 61.4233H303.509Z" fill="#02355E"/>
<path d="M372.483 54.3529C372.827 53.6589 372.999 52.9865 372.999 52.1189C372.999 50.1886 371.988 48.345 370.115 47.4341C369.427 47.0871 368.652 46.9136 367.899 46.9136C365.983 46.9136 364.154 48.0631 363.25 49.9284L353.458 70.8799L343.494 49.9284C342.59 48.0414 340.782 46.9136 338.846 46.9136C338.157 46.9136 337.382 47.0871 336.629 47.4341C334.821 48.345 333.745 50.1669 333.745 52.1189C333.745 52.9214 333.917 53.6589 334.262 54.3529L347.561 82.7222L339.47 101.223C339.082 101.917 339.018 102.589 339.018 103.327C339.018 105.257 340.029 107.144 341.901 108.012C342.59 108.359 343.365 108.467 344.118 108.467C346.033 108.467 347.863 107.448 348.767 105.496L357.483 86.084L358.107 85.108L372.483 54.3529Z" fill="#02355E"/>
<path d="M433.472 80.9436L413.135 29.7358C412.339 27.8055 410.423 26.4824 408.443 26.4824C406.356 26.4824 404.419 27.8055 403.687 29.7358L383.35 80.9436C383.113 81.5725 383.006 82.2015 383.006 82.8739C383.006 85.4332 385.093 87.9491 388.042 87.9491C390.022 87.9491 391.959 86.7562 392.733 84.6958L396.521 75.1092H420.194L423.981 84.6958C424.778 86.6911 426.693 87.9491 428.673 87.9491C431.729 87.9491 433.709 85.4982 433.709 82.8739C433.773 82.2449 433.644 81.5508 433.429 80.9436H433.472ZM400.696 64.9588L408.465 45.3736L416.105 64.9588H400.696Z" fill="#02355E"/>
<path d="M462.934 46.9348C459.706 46.9348 456.65 47.8457 454.046 49.3422V31.6006C454.046 28.8027 451.786 26.5254 448.902 26.5254C446.018 26.5254 443.866 28.8027 443.866 31.6006V82.8518C443.866 85.6497 446.126 87.927 448.902 87.927C450.947 87.927 452.582 86.7775 453.443 85.2376C456.219 86.951 459.447 87.927 462.891 87.927C473.371 87.927 481.872 78.7309 481.872 67.496C481.937 56.196 473.371 46.9565 462.955 46.9565L462.934 46.9348ZM462.934 77.6898C458.005 77.6898 454.046 73.1134 454.046 67.5393C454.046 61.9653 458.005 57.2587 462.934 57.2587C467.862 57.2587 471.822 61.8351 471.822 67.5393C471.822 73.1351 467.797 77.6898 462.934 77.6898Z" fill="#02355E"/>
<path d="M496.958 26.5044C494.182 26.5044 491.857 28.7817 491.857 31.5796V82.8308C491.857 85.6287 494.117 87.906 496.958 87.906C499.799 87.906 502.101 85.6287 502.101 82.8308V31.5796C502.101 28.7817 499.842 26.5044 496.958 26.5044Z" fill="#02355E"/>
<path d="M547.661 66.5636C547.661 61.3149 545.896 56.3481 542.625 52.7477C539.289 48.9738 534.748 46.9351 529.885 46.9351C520.136 46.9351 512.108 56.0661 512.108 67.4312C512.108 72.8534 513.572 77.7118 516.477 81.4206C519.598 85.368 524.246 87.6454 529.562 87.9273C529.906 87.9924 530.401 87.9924 531.154 87.9924C533.586 87.9924 537.955 87.5369 542.151 84.739C543.615 83.763 544.476 82.0062 544.476 80.3362C544.476 79.3602 544.239 78.4058 543.636 77.6033C542.668 76.1285 541.032 75.326 539.332 75.326C538.364 75.326 537.417 75.5646 536.556 76.1285C534.404 77.7335 531.908 77.7335 530.659 77.7335H530.143C525.731 77.56 523.794 74.5886 522.89 71.7907H542.646C545.423 71.7907 547.682 69.3832 547.682 66.607L547.661 66.5636ZM523.751 61.4233C525.107 58.864 527.431 57.1506 529.863 57.1506C532.747 57.1506 535.071 58.799 536.427 61.4233H523.751Z" fill="#02355E"/>
<path fill-rule="evenodd" clip-rule="evenodd" d="M254.849 50.7522C254.849 49.6677 254.677 48.5833 254.161 47.6073C253.709 46.8048 253.149 46.1324 252.396 45.677C251.664 45.2215 250.804 44.9829 249.964 44.9829C248.544 44.9829 247.36 45.4384 246.456 46.4578C245.445 47.6507 245.144 49.4292 245.144 50.904V81.4422C245.144 83.0905 245.423 84.869 246.564 86.127C247.532 87.2114 248.781 87.7754 250.244 87.7754C251.707 87.7754 252.956 87.2548 253.989 86.1704C255.129 84.9124 255.452 83.0905 255.452 81.4422V68.1902C255.452 58.1481 271.98 47.6507 271.98 63.7873V81.3771C271.98 83.0255 272.26 84.804 273.4 86.0619C274.412 87.2114 275.66 87.7103 277.145 87.7103C278.63 87.7103 279.857 87.1898 280.825 86.1053C281.966 84.7823 282.245 83.0255 282.245 81.3771V61.7485C282.245 59.8616 282.181 57.9313 281.966 56.0443C281.793 54.5695 281.342 53.1814 280.61 51.88C279.534 49.646 277.941 47.9326 275.789 46.8048C273.465 45.5468 270.969 44.9829 268.429 44.9829C265.89 44.9829 263.221 45.5034 260.897 46.6963C258.508 47.9543 256.528 49.8846 254.892 52.0535L254.785 52.227V50.7522H254.849Z" fill="#02355E"/>
<path d="M545.831 27.9357C549.963 27.9357 553.363 31.2975 553.363 35.4184C553.363 39.5393 549.963 42.9011 545.831 42.9011C541.699 42.9011 538.299 39.5393 538.299 35.4184C538.299 31.2975 541.699 27.9357 545.831 27.9357ZM545.831 26.2656C540.795 26.2656 536.663 30.3648 536.663 35.3967C536.663 40.4286 540.795 44.5278 545.831 44.5278C550.867 44.5278 554.999 40.4286 554.999 35.3967C554.999 30.3648 550.867 26.2656 545.831 26.2656Z" fill="#02355E"/>
<path d="M546.112 36.6115H544.756V39.5829H543.056V31.3628H546.047C546.499 31.3628 546.951 31.4279 547.295 31.5363C547.683 31.6448 547.984 31.8183 548.264 31.9918C548.543 32.1653 548.716 32.4472 548.823 32.7943C548.931 33.0762 549.06 33.4883 549.06 33.8787C549.06 34.1607 548.995 34.4426 548.952 34.6812C548.888 34.9198 548.78 35.1367 548.673 35.3102C548.565 35.4837 548.393 35.6572 548.221 35.8307C548.049 35.9392 547.833 36.1127 547.597 36.1778L549.361 39.5396V39.6046H547.661L546.133 36.6332L546.112 36.6115ZM544.756 35.2234H546.112C546.348 35.2234 546.499 35.1584 546.671 35.115C546.843 35.0716 546.951 35.0066 547.059 34.8764C547.166 34.768 547.231 34.6378 547.295 34.486C547.36 34.3342 547.36 34.139 547.36 33.9655C547.36 33.5751 547.252 33.2714 547.015 33.0545C546.779 32.816 546.456 32.7075 546.004 32.7075H544.648V35.2234H544.756Z" fill="#02355E"/>
</svg>
