<svg width="183" height="55" viewBox="0 0 183 55" fill="none" xmlns="http://www.w3.org/2000/svg">
<path d="M180.894 48.5253C180.894 49.2043 180.76 49.8767 180.5 50.5039C180.24 51.1312 179.859 51.701 179.378 52.1809C178.898 52.6608 178.327 53.0413 177.699 53.3006C177.072 53.56 176.399 53.6931 175.72 53.6924H6.40327C5.03095 53.6938 3.71425 53.1503 2.74274 52.1813C1.77122 51.2123 1.22444 49.8973 1.22266 48.5253V7.31935C1.22444 5.94678 1.771 4.63101 2.74232 3.66096C3.71365 2.69091 5.03033 2.14586 6.40327 2.14551H175.719C176.398 2.14551 177.071 2.27934 177.699 2.53937C178.327 2.7994 178.897 3.18052 179.378 3.66097C179.858 4.14143 180.239 4.7118 180.499 5.33951C180.759 5.96722 180.893 6.63998 180.892 7.31935L180.894 48.5253Z" fill="white"/>
<path d="M175.72 54.8947H6.40313C4.71259 54.8944 3.09123 54.2236 1.89483 53.0295C0.698428 51.8354 0.024701 50.2157 0.0214844 48.5256L0.0214844 7.32097C0.0239853 5.63005 0.697267 4.00915 1.89363 2.81386C3.09 1.61857 4.71175 0.946496 6.40313 0.945068L175.718 0.945068C177.41 0.947208 179.031 1.61951 180.227 2.81465C181.423 4.00978 182.097 5.63026 182.1 7.32097V48.5256C182.103 52.0387 179.235 54.8947 175.72 54.8947Z" fill="#A6A6A6"/>
<path d="M180.894 48.5253C180.894 49.2043 180.76 49.8767 180.5 50.5039C180.24 51.1312 179.859 51.701 179.378 52.1809C178.898 52.6608 178.327 53.0413 177.699 53.3006C177.072 53.56 176.399 53.6931 175.72 53.6924H6.40327C5.03095 53.6938 3.71425 53.1503 2.74274 52.1813C1.77122 51.2123 1.22444 49.8973 1.22266 48.5253V7.31935C1.22444 5.94678 1.771 4.63101 2.74232 3.66096C3.71365 2.69091 5.03033 2.14586 6.40327 2.14551H175.719C176.398 2.14551 177.071 2.27934 177.699 2.53937C178.327 2.7994 178.897 3.18052 179.378 3.66097C179.858 4.14143 180.239 4.7118 180.499 5.33951C180.759 5.96722 180.893 6.63998 180.892 7.31935L180.894 48.5253Z" fill="black"/>
<path d="M40.6777 27.6357C40.6386 23.2875 44.239 21.1721 44.4036 21.0736C42.3646 18.1015 39.2041 17.6954 38.0935 17.663C35.4391 17.3838 32.8643 19.251 31.5121 19.251C30.133 19.251 28.0508 17.69 25.8066 17.7359C22.9187 17.7804 20.2171 19.452 18.7354 22.0477C15.6775 27.3402 17.9581 35.1179 20.8878 39.3959C22.3533 41.4924 24.0658 43.8304 26.3072 43.7481C28.5001 43.6591 29.3193 42.3518 31.9656 42.3518C34.5876 42.3518 35.3568 43.7481 37.6428 43.6955C39.9963 43.6591 41.478 41.5909 42.8922 39.4769C44.5858 37.0768 45.2659 34.7104 45.2929 34.589C45.239 34.5701 40.7236 32.846 40.6777 27.6357ZM36.3594 14.8488C37.5389 13.3742 38.3459 11.3681 38.1218 9.33228C36.4148 9.40783 34.2799 10.5127 33.0505 11.955C31.9629 13.2258 30.9912 15.3088 31.2422 17.2678C33.1598 17.4108 35.1287 16.3004 36.3594 14.8488Z" fill="white"/>
<path d="M175.719 0.945068H85.0283L120.55 54.8947H175.719C177.41 54.8933 179.032 54.2216 180.228 53.0269C181.424 51.8322 182.098 50.212 182.101 48.5215V7.32097C182.098 5.63016 181.425 4.00947 180.229 2.81425C179.032 1.61904 177.411 0.946852 175.719 0.945068Z" fill="url(#paint0_linear_142_1183)"/>
<path d="M72.4406 43.4475H69.3759L67.6972 38.1739H61.8621L60.263 43.4475H57.2793L63.0618 25.4936H66.6325L72.4406 43.4475ZM67.1912 35.9613L65.673 31.2732C65.5124 30.7942 65.2101 29.6664 64.7675 27.8909H64.7135C64.5354 28.6545 64.2507 29.7824 63.8607 31.2732L62.3681 35.9613H67.1912ZM87.2821 36.8153C87.2821 39.0171 86.6842 40.7574 85.4873 42.035C84.4158 43.1723 83.0839 43.7403 81.4955 43.7403C79.7804 43.7403 78.5469 43.1292 77.798 41.9042V48.6969H74.9209V34.7566C74.9209 33.3737 74.8845 31.9558 74.8143 30.5015H77.3446L77.5052 32.5535H77.5591C78.5186 31.0074 79.9747 30.2343 81.9287 30.2343C83.4563 30.2343 84.7316 30.8374 85.7518 32.0448C86.7706 33.255 87.2821 34.8443 87.2821 36.8153ZM84.351 36.9205C84.351 35.6605 84.0676 34.6217 83.4982 33.8027C82.876 32.9515 82.0407 32.5251 80.9935 32.5251C80.2837 32.5251 79.6387 32.7626 79.0624 33.2307C78.4849 33.7029 78.107 34.3195 77.9302 35.0831C77.8513 35.3686 77.8065 35.6625 77.7966 35.9586V38.1186C77.7966 39.0589 78.0854 39.8535 78.663 40.5038C79.2406 41.1514 79.9909 41.4765 80.9139 41.4765C81.9975 41.4765 82.841 41.0569 83.4442 40.2245C84.0487 39.3894 84.351 38.2885 84.351 36.9205ZM102.176 36.8153C102.176 39.0171 101.578 40.7574 100.381 42.035C99.3085 43.1723 97.978 43.7403 96.3883 43.7403C94.6731 43.7403 93.4397 43.1292 92.6907 41.9042V48.6969H89.8137V34.7566C89.8137 33.3737 89.7772 31.9558 89.7071 30.5015H92.2373L92.3979 32.5535H92.4519C93.41 31.0074 94.8661 30.2343 96.8215 30.2343C98.3477 30.2343 99.623 30.8374 100.646 32.0448C101.663 33.255 102.176 34.8443 102.176 36.8153ZM99.2438 36.9205C99.2438 35.6605 98.959 34.6217 98.3895 33.8027C97.7674 32.9515 96.9348 32.5251 95.8876 32.5251C95.1778 32.5251 94.5328 32.7626 93.9538 33.2307C93.3763 33.7029 92.9998 34.3195 92.823 35.0831C92.7353 35.4392 92.688 35.7293 92.688 35.9586V38.1186C92.688 39.0589 92.9782 39.8535 93.553 40.5038C94.1306 41.15 94.8809 41.4765 95.8067 41.4765C96.8916 41.4765 97.7351 41.0569 98.3369 40.2245C98.9415 39.3894 99.2438 38.2885 99.2438 36.9205ZM118.829 38.4113C118.829 39.9399 118.294 41.1824 117.232 42.1416C116.064 43.1885 114.432 43.7133 112.34 43.7133C110.408 43.7133 108.859 43.341 107.69 42.5949L108.355 40.1975C109.617 40.9449 111.003 41.3173 112.512 41.3173C113.597 41.3173 114.44 41.0718 115.042 40.5847C115.645 40.0964 115.95 39.4434 115.95 38.6285C115.95 37.8986 115.698 37.2875 115.203 36.7897C114.705 36.2932 113.881 35.8305 112.725 35.4055C109.581 34.2331 108.007 32.5184 108.007 30.2627C108.007 28.7894 108.563 27.5833 109.672 26.6403C110.782 25.6986 112.253 25.2278 114.083 25.2278C115.717 25.2278 117.078 25.5124 118.159 26.0804L117.437 28.4252C116.42 27.8747 115.271 27.5995 113.987 27.5995C112.972 27.5995 112.176 27.8491 111.606 28.3456C111.127 28.7894 110.884 29.3304 110.884 29.9726C110.884 30.6809 111.161 31.2691 111.712 31.7305C112.189 32.1555 113.061 32.6182 114.321 33.1147C115.868 33.738 117.004 34.4638 117.732 35.2976C118.464 36.1313 118.829 37.1715 118.829 38.4113ZM128.365 32.66H125.194V38.9456C125.194 40.5443 125.753 41.3416 126.873 41.3416C127.387 41.3416 127.813 41.2984 128.151 41.208L128.23 43.3922C127.664 43.604 126.917 43.7106 125.993 43.7106C124.857 43.7106 123.969 43.3639 123.328 42.6705C122.689 41.977 122.368 40.8154 122.368 39.1803V32.6546H120.479V30.4961H122.368V28.1257L125.194 27.273V30.4961H128.365V32.66ZM142.645 36.8679C142.645 38.8579 142.076 40.4916 140.94 41.7693C139.751 43.0846 138.169 43.7403 136.198 43.7403C134.295 43.7403 132.782 43.1103 131.654 41.8515C130.526 40.5901 129.962 39.0009 129.962 37.0838C129.962 35.0777 130.545 33.4344 131.707 32.1568C132.871 30.8779 134.439 30.2384 136.411 30.2384C138.311 30.2384 139.837 30.8698 140.992 32.1298C142.096 33.3521 142.645 34.9306 142.645 36.8679ZM139.663 36.934C139.663 35.7482 139.407 34.7309 138.893 33.8796C138.289 32.8516 137.426 32.3376 136.307 32.3376C135.155 32.3376 134.271 32.8516 133.669 33.8796C133.153 34.7309 132.897 35.7657 132.897 36.988C132.897 38.1752 133.153 39.1951 133.669 40.0437C134.291 41.0718 135.159 41.5858 136.283 41.5858C137.382 41.5858 138.245 41.061 138.868 40.0181C139.397 39.1466 139.663 38.1226 139.663 36.934ZM152.001 33.0311C151.702 32.977 151.399 32.9504 151.094 32.9515C150.082 32.9515 149.3 33.3319 148.749 34.0982C148.271 34.7728 148.031 35.6254 148.031 36.6548V43.4475H145.154V34.5785C145.157 33.2195 145.129 31.8606 145.07 30.5028H147.576L147.682 32.9798H147.761C148.066 32.1285 148.544 31.4418 149.2 30.9278C149.8 30.4786 150.53 30.2354 151.279 30.2343C151.545 30.2343 151.785 30.2532 151.999 30.287L152.001 33.0311ZM164.868 36.362C164.876 36.7993 164.841 37.2362 164.763 37.6666H156.132C156.164 38.9456 156.583 39.925 157.384 40.5996C158.112 41.2013 159.052 41.5035 160.207 41.5035C161.485 41.5035 162.651 41.3011 163.7 40.8923L164.151 42.8877C162.925 43.4219 161.479 43.6877 159.809 43.6877C157.801 43.6877 156.225 43.0968 155.078 41.9177C153.934 40.7372 153.36 39.1506 153.36 37.1634C153.36 35.2126 153.893 33.5869 154.961 32.2904C156.078 30.9062 157.588 30.2141 159.488 30.2141C161.354 30.2141 162.767 30.9062 163.727 32.2904C164.487 33.3872 164.868 34.7471 164.868 36.362ZM162.125 35.6159C162.145 34.762 161.956 34.0267 161.566 33.4048C161.068 32.6034 160.302 32.204 159.275 32.204C158.334 32.204 157.568 32.5939 156.985 33.3764C156.506 33.9984 156.221 34.7458 156.133 35.6133L162.125 35.6159Z" fill="white"/>
<path d="M61.0316 19.1458C60.2314 19.1458 59.5391 19.1067 58.9629 19.0406V10.3604C59.7688 10.2359 60.5832 10.1746 61.3987 10.1769C64.6981 10.1769 66.2176 11.7999 66.2176 14.4455C66.2176 17.4972 64.4228 19.1458 61.0316 19.1458ZM61.5147 11.2899C61.0694 11.2899 60.6902 11.3169 60.3758 11.3816V17.9802C60.5458 18.0071 60.8724 18.0193 61.3312 18.0193C63.4931 18.0193 64.7238 16.7889 64.7238 14.4846C64.7238 12.4299 63.6105 11.2899 61.5147 11.2899ZM70.9529 19.2119C69.0934 19.2119 67.8883 17.8237 67.8883 15.9389C67.8883 13.9746 69.119 12.5743 71.0582 12.5743C72.8908 12.5743 74.1228 13.8964 74.1228 15.8351C74.1228 17.8237 72.853 19.2119 70.9529 19.2119ZM71.0069 13.6077C69.9854 13.6077 69.3309 14.5629 69.3309 15.8985C69.3309 17.2085 69.9989 18.1636 70.9934 18.1636C71.988 18.1636 72.656 17.1424 72.656 15.8715C72.656 14.5763 72.0015 13.6077 71.0069 13.6077ZM84.727 12.7051L82.7365 19.0675H81.4397L80.6151 16.3046C80.4101 15.6287 80.2394 14.9429 80.1037 14.2499H80.0767C79.9728 14.9433 79.7758 15.6381 79.5666 16.3046L78.6894 19.0675H77.3791L75.506 12.7051H76.9594L77.68 15.7298C77.8501 16.4503 77.9931 17.1302 78.1119 17.7724H78.1389C78.2428 17.2368 78.4128 16.5676 78.6625 15.7433L79.5666 12.7065H80.719L81.5841 15.6786C81.7932 16.399 81.9633 17.1059 82.0955 17.7737H82.1333C82.225 17.1194 82.3694 16.4246 82.5651 15.6786L83.3384 12.7065L84.727 12.7051ZM92.0546 19.0675H90.6403V15.4141C90.6403 14.289 90.2085 13.7251 89.357 13.7251C88.519 13.7251 87.9428 14.4455 87.9428 15.2833V19.0675H86.5285V14.5237C86.5285 13.9611 86.515 13.3581 86.4759 12.7038H87.7201L87.7862 13.6859H87.8254C88.2059 13.006 88.9778 12.5743 89.8428 12.5743C91.1788 12.5743 92.0559 13.5955 92.0559 15.2576L92.0546 19.0675ZM95.9546 19.0675H94.539V9.78564H95.9546V19.0675ZM101.111 19.2119C99.2527 19.2119 98.0462 17.8237 98.0462 15.9389C98.0462 13.9746 99.277 12.5743 101.215 12.5743C103.049 12.5743 104.279 13.8964 104.279 15.8351C104.281 17.8237 103.01 19.2119 101.111 19.2119ZM101.164 13.6077C100.142 13.6077 99.4875 14.5629 99.4875 15.8985C99.4875 17.2085 100.157 18.1636 101.149 18.1636C102.145 18.1636 102.811 17.1424 102.811 15.8715C102.813 14.5763 102.159 13.6077 101.164 13.6077ZM109.855 19.0675L109.753 18.335H109.715C109.283 18.9245 108.653 19.2119 107.854 19.2119C106.714 19.2119 105.904 18.4132 105.904 17.3393C105.904 15.769 107.266 14.9568 109.623 14.9568V14.8394C109.623 14.0016 109.179 13.582 108.302 13.582C107.675 13.582 107.124 13.7399 106.64 14.0542L106.352 13.1247C106.941 12.7577 107.675 12.5743 108.537 12.5743C110.2 12.5743 111.039 13.4512 111.039 15.2064V17.5498C111.039 18.192 111.067 18.6898 111.131 19.0689L109.855 19.0675ZM109.661 15.8985C108.09 15.8985 107.302 16.2789 107.302 17.1815C107.302 17.8493 107.708 18.1758 108.273 18.1758C108.992 18.1758 109.661 17.6267 109.661 16.8806V15.8985ZM117.906 19.0675L117.84 18.0463H117.801C117.395 18.818 116.712 19.2119 115.758 19.2119C114.224 19.2119 113.087 17.8628 113.087 15.9646C113.087 13.9746 114.266 12.5729 115.874 12.5729C116.726 12.5729 117.329 12.8603 117.669 13.4377H117.697V9.78564H119.113V17.3528C119.113 17.968 119.128 18.5441 119.165 19.0675H117.906ZM117.697 15.3238C117.697 14.4333 117.107 13.6738 116.207 13.6738C115.159 13.6738 114.518 14.6033 114.518 15.912C114.518 17.195 115.183 18.0732 116.179 18.0732C117.068 18.0732 117.697 17.3002 117.697 16.3842V15.3238ZM128.088 19.2119C126.23 19.2119 125.025 17.8237 125.025 15.9389C125.025 13.9746 126.256 12.5743 128.193 12.5743C130.027 12.5743 131.258 13.8964 131.258 15.8351C131.259 17.8237 129.99 19.2119 128.088 19.2119ZM128.141 13.6077C127.121 13.6077 126.466 14.5629 126.466 15.8985C126.466 17.2085 127.134 18.1636 128.127 18.1636C129.123 18.1636 129.79 17.1424 129.79 15.8715C129.793 14.5763 129.138 13.6077 128.141 13.6077ZM138.864 19.0675H137.448V15.4141C137.448 14.289 137.016 13.7251 136.165 13.7251C135.327 13.7251 134.752 14.4455 134.752 15.2833V19.0675H133.336V14.5237C133.336 13.9611 133.323 13.3581 133.284 12.7038H134.528L134.594 13.6859H134.633C135.012 13.006 135.786 12.5729 136.649 12.5729C137.985 12.5729 138.864 13.5942 138.864 15.2563V19.0675ZM148.379 13.7655H146.823V16.855C146.823 17.6415 147.095 18.0341 147.646 18.0341C147.896 18.0341 148.105 18.0071 148.274 17.968L148.313 19.0419C148.039 19.1471 147.672 19.1998 147.216 19.1998C146.101 19.1998 145.434 18.5846 145.434 16.9737V13.7655H144.506V12.7051H145.434V11.5395L146.823 11.1199V12.7038H148.379V13.7655ZM155.866 19.0675H154.453V15.4411C154.453 14.3025 154.022 13.7264 153.169 13.7264C152.437 13.7264 151.754 14.2242 151.754 15.232V19.0675H150.341V9.78564H151.754V13.6077H151.782C152.227 12.9142 152.872 12.5729 153.696 12.5729C155.042 12.5729 155.866 13.6198 155.866 15.2833V19.0675ZM163.536 16.2263H159.292C159.319 17.4311 160.116 18.111 161.297 18.111C161.925 18.111 162.502 18.0058 163.012 17.8102L163.232 18.7923C162.631 19.054 161.922 19.1849 161.098 19.1849C159.107 19.1849 157.929 17.9275 157.929 15.9781C157.929 14.0273 159.135 12.5608 160.938 12.5608C162.564 12.5608 163.585 13.7655 163.585 15.5855C163.594 15.8003 163.577 16.0154 163.536 16.2263ZM162.239 15.2185C162.239 14.2364 161.744 13.5429 160.84 13.5429C160.027 13.5429 159.385 14.2499 159.293 15.2185H162.239Z" fill="white"/>
<defs>
<linearGradient id="paint0_linear_142_1183" x1="133.563" y1="55.038" x2="133.563" y2="-139.531" gradientUnits="userSpaceOnUse">
<stop stop-color="#1A1A1A" stop-opacity="0.1"/>
<stop offset="0.123" stop-color="#212121" stop-opacity="0.151"/>
<stop offset="0.308" stop-color="#353535" stop-opacity="0.227"/>
<stop offset="0.532" stop-color="#575757" stop-opacity="0.318"/>
<stop offset="0.783" stop-color="#858585" stop-opacity="0.421"/>
<stop offset="1" stop-color="#B3B3B3" stop-opacity="0.51"/>
</linearGradient>
</defs>
</svg>
