<svg width="543" height="119" viewBox="0 0 543 119" fill="none" xmlns="http://www.w3.org/2000/svg">
<path d="M156.833 100.268C156.833 96.3336 159.711 93.5147 163.645 93.5147C167.599 93.5147 170.477 96.3336 170.477 100.268C170.477 104.203 167.599 107.022 163.645 107.022C159.711 107.022 156.833 104.203 156.833 100.268ZM167.619 100.268C167.619 97.8213 166.053 95.9812 163.645 95.9812C161.237 95.9812 159.691 97.8213 159.691 100.268C159.691 102.695 161.237 104.555 163.645 104.555C166.053 104.555 167.619 102.695 167.619 100.268Z" fill="#686868"/>
<path d="M174.855 105.573V110.388H172.369V97.3319H174.855V98.526C175.579 97.6059 176.617 97.097 177.771 97.097C180.199 97.097 181.961 98.8979 181.961 102.049C181.961 105.201 180.199 107.022 177.771 107.022C176.656 107.022 175.618 106.552 174.855 105.573ZM179.377 102.049C179.377 100.425 178.417 99.309 176.988 99.309C176.186 99.309 175.266 99.7788 174.855 100.386V103.733C175.266 104.32 176.186 104.81 176.988 104.81C178.417 104.81 179.377 103.694 179.377 102.049Z" fill="#686868"/>
<path d="M186.991 107.022C185.248 107.022 184.309 106.121 184.309 104.438V99.5047H182.743V97.3319H184.309V94.748H186.814V97.3319H188.733V99.5047H186.814V103.772C186.814 104.359 187.128 104.81 187.676 104.81C188.048 104.81 188.4 104.673 188.537 104.536L189.065 106.415C188.694 106.747 188.028 107.022 186.991 107.022Z" fill="#686868"/>
<path d="M191.667 95.9421C190.864 95.9421 190.179 95.2765 190.179 94.4543C190.179 93.6322 190.864 92.9666 191.667 92.9666C192.489 92.9666 193.155 93.6322 193.155 94.4543C193.155 95.2765 192.489 95.9421 191.667 95.9421ZM192.92 106.787H190.434V97.3319H192.92V106.787Z" fill="#686868"/>
<path d="M199.77 107.022C196.657 107.022 194.778 104.751 194.778 102.049C194.778 99.3677 196.657 97.097 199.77 97.097C202.902 97.097 204.781 99.3677 204.781 102.049C204.781 104.751 202.902 107.022 199.77 107.022ZM199.77 104.81C201.316 104.81 202.197 103.537 202.197 102.049C202.197 100.581 201.316 99.309 199.77 99.309C198.223 99.309 197.362 100.581 197.362 102.049C197.362 103.537 198.223 104.81 199.77 104.81Z" fill="#686868"/>
<path d="M215.493 106.787H213.007V101.071C213.007 99.7592 212.321 99.309 211.264 99.309C210.286 99.309 209.522 99.8571 209.111 100.425V106.787H206.625V97.3319H209.111V98.5651C209.718 97.8408 210.873 97.097 212.419 97.097C214.494 97.097 215.493 98.2715 215.493 100.112V106.787Z" fill="#686868"/>
<path d="M217.139 105.553L218.215 103.811C218.901 104.457 220.31 105.103 221.485 105.103C222.561 105.103 223.07 104.731 223.07 104.144C223.07 103.478 222.248 103.244 221.171 103.028C219.547 102.715 217.452 102.324 217.452 100.072C217.452 98.4868 218.842 97.097 221.328 97.097C222.933 97.097 224.205 97.6451 225.125 98.3889L224.147 100.092C223.579 99.4851 222.502 98.9958 221.348 98.9958C220.447 98.9958 219.86 99.3285 219.86 99.8766C219.86 100.464 220.604 100.679 221.661 100.895C223.285 101.208 225.458 101.638 225.458 103.987C225.458 105.73 223.99 107.022 221.367 107.022C219.723 107.022 218.137 106.473 217.139 105.553Z" fill="#686868"/>
<path d="M244.533 106.787H241.498L240.676 104.536H234.843L234.021 106.787H230.967L236.017 93.7301H239.502L244.533 106.787ZM239.913 102.128L237.76 96.1378L235.587 102.128H239.913Z" fill="#686868"/>
<path d="M254.547 106.787H252.061V101.071C252.061 99.7592 251.376 99.309 250.319 99.309C249.34 99.309 248.577 99.8571 248.166 100.425V106.787H245.68V97.3319H248.166V98.5651C248.772 97.8408 249.927 97.097 251.474 97.097C253.549 97.097 254.547 98.2715 254.547 100.112V106.787Z" fill="#686868"/>
<path d="M265.178 106.787H262.692V105.808C262.046 106.571 260.931 107.022 259.697 107.022C258.19 107.022 256.409 106.004 256.409 103.89C256.409 101.678 258.19 100.875 259.697 100.875C260.95 100.875 262.066 101.266 262.692 102.03V100.718C262.692 99.7592 261.87 99.1328 260.617 99.1328C259.599 99.1328 258.66 99.5047 257.857 100.249L256.918 98.5847C258.073 97.5668 259.56 97.097 261.048 97.097C263.201 97.097 265.178 97.9583 265.178 100.679V106.787ZM262.692 104.516V103.341C262.281 102.793 261.498 102.519 260.696 102.519C259.717 102.519 258.914 103.048 258.914 103.948C258.914 104.829 259.717 105.338 260.696 105.338C261.498 105.338 262.281 105.064 262.692 104.516Z" fill="#686868"/>
<path d="M270.13 106.787H267.644V93.7301H270.13V106.787Z" fill="#686868"/>
<path d="M272.263 110.486L272.634 108.255C272.85 108.353 273.183 108.411 273.417 108.411C274.063 108.411 274.494 108.235 274.729 107.726L275.081 106.924L271.245 97.3319H273.907L276.373 103.909L278.84 97.3319H281.522L277.078 108.333C276.373 110.114 275.12 110.584 273.496 110.623C273.202 110.623 272.576 110.565 272.263 110.486Z" fill="#686868"/>
<path d="M285.803 107.022C284.06 107.022 283.121 106.121 283.121 104.438V99.5047H281.555V97.3319H283.121V94.748H285.626V97.3319H287.545V99.5047H285.626V103.772C285.626 104.359 285.94 104.81 286.488 104.81C286.86 104.81 287.212 104.673 287.349 104.536L287.877 106.415C287.506 106.747 286.84 107.022 285.803 107.022Z" fill="#686868"/>
<path d="M290.479 95.9421C289.676 95.9421 288.991 95.2765 288.991 94.4543C288.991 93.6322 289.676 92.9666 290.479 92.9666C291.301 92.9666 291.967 93.6322 291.967 94.4543C291.967 95.2765 291.301 95.9421 290.479 95.9421ZM291.732 106.787H289.246V97.3319H291.732V106.787Z" fill="#686868"/>
<path d="M293.59 102.049C293.59 99.1524 295.684 97.097 298.601 97.097C300.539 97.097 301.714 97.9387 302.34 98.8196L300.715 100.327C300.265 99.6809 299.58 99.309 298.719 99.309C297.211 99.309 296.154 100.405 296.154 102.049C296.154 103.694 297.211 104.81 298.719 104.81C299.58 104.81 300.265 104.418 300.715 103.792L302.34 105.299C301.714 106.18 300.539 107.022 298.601 107.022C295.684 107.022 293.59 104.966 293.59 102.049Z" fill="#686868"/>
<path d="M303.143 105.553L304.22 103.811C304.905 104.457 306.314 105.103 307.489 105.103C308.565 105.103 309.074 104.731 309.074 104.144C309.074 103.478 308.252 103.244 307.175 103.028C305.551 102.715 303.456 102.324 303.456 100.072C303.456 98.4868 304.846 97.097 307.332 97.097C308.937 97.097 310.21 97.6451 311.13 98.3889L310.151 100.092C309.583 99.4851 308.507 98.9958 307.352 98.9958C306.451 98.9958 305.864 99.3285 305.864 99.8766C305.864 100.464 306.608 100.679 307.665 100.895C309.29 101.208 311.462 101.638 311.462 103.987C311.462 105.73 309.994 107.022 307.371 107.022C305.727 107.022 304.141 106.473 303.143 105.553Z" fill="#686868"/>
<path d="M327.033 104.164C327.816 105.005 328.638 105.867 329.538 106.787H326.367C326.093 106.532 325.76 106.18 325.388 105.808C324.41 106.552 323.255 107.022 321.845 107.022C319.438 107.022 317.519 105.769 317.519 103.244C317.519 101.247 318.85 100.229 320.338 99.4656C319.829 98.5064 319.477 97.5472 319.477 96.6663C319.477 94.9046 321.023 93.5343 323.196 93.5343C325.056 93.5343 326.641 94.5522 326.641 96.2944C326.641 98.2911 325.036 99.1328 323.431 99.8766C323.822 100.405 324.214 100.895 324.547 101.286C324.919 101.756 325.291 102.186 325.663 102.617C326.211 101.775 326.622 100.855 326.857 100.092L328.853 101.012C328.383 102.049 327.777 103.165 327.033 104.164ZM321.963 96.7251C321.963 97.2536 322.198 97.8604 322.531 98.4672C323.627 97.9583 324.468 97.3906 324.468 96.4314C324.468 95.7463 323.979 95.3352 323.333 95.3352C322.55 95.3352 321.963 95.9225 321.963 96.7251ZM322.178 105.064C322.863 105.064 323.49 104.81 324.057 104.379C323.47 103.733 322.922 103.126 322.609 102.735C322.178 102.206 321.728 101.619 321.297 101.012C320.632 101.501 320.162 102.108 320.162 103.009C320.162 104.281 321.102 105.064 322.178 105.064Z" fill="#686868"/>
<path d="M341.838 106.787H339.039V96.177H335.222V93.7301H345.636V96.177H341.838V106.787Z" fill="#686868"/>
<path d="M348.507 106.787H346.021V97.3319H348.507V98.6238C349.172 97.7821 350.347 97.1166 351.521 97.1166V99.5439C351.345 99.5047 351.11 99.4851 350.836 99.4851C350.014 99.4851 348.918 99.9354 348.507 100.542V106.787Z" fill="#686868"/>
<path d="M361.238 106.787H358.752V105.808C358.106 106.571 356.99 107.022 355.757 107.022C354.249 107.022 352.468 106.004 352.468 103.89C352.468 101.678 354.249 100.875 355.757 100.875C357.009 100.875 358.125 101.266 358.752 102.03V100.718C358.752 99.7592 357.929 99.1328 356.677 99.1328C355.659 99.1328 354.719 99.5047 353.917 100.249L352.977 98.5847C354.132 97.5668 355.62 97.097 357.107 97.097C359.261 97.097 361.238 97.9583 361.238 100.679V106.787ZM358.752 104.516V103.341C358.34 102.793 357.557 102.519 356.755 102.519C355.776 102.519 354.974 103.048 354.974 103.948C354.974 104.829 355.776 105.338 356.755 105.338C357.557 105.338 358.34 105.064 358.752 104.516Z" fill="#686868"/>
<path d="M372.708 106.787H370.202V105.593C369.459 106.513 368.421 107.022 367.286 107.022C364.898 107.022 363.097 105.221 363.097 102.069C363.097 98.9762 364.878 97.097 367.286 97.097C368.401 97.097 369.459 97.5864 370.202 98.5455V93.7301H372.708V106.787ZM370.202 103.733V100.386C369.772 99.7592 368.891 99.309 368.049 99.309C366.64 99.309 365.661 100.425 365.661 102.069C365.661 103.694 366.64 104.81 368.049 104.81C368.891 104.81 369.772 104.359 370.202 103.733Z" fill="#686868"/>
<path d="M376.406 95.9421C375.604 95.9421 374.919 95.2765 374.919 94.4543C374.919 93.6322 375.604 92.9666 376.406 92.9666C377.229 92.9666 377.894 93.6322 377.894 94.4543C377.894 95.2765 377.229 95.9421 376.406 95.9421ZM377.659 106.787H375.173V97.3319H377.659V106.787Z" fill="#686868"/>
<path d="M388.992 106.787H386.506V101.071C386.506 99.7592 385.821 99.309 384.764 99.309C383.785 99.309 383.021 99.8571 382.61 100.425V106.787H380.124V97.3319H382.61V98.5651C383.217 97.8408 384.372 97.097 385.919 97.097C387.993 97.097 388.992 98.2715 388.992 100.112V106.787Z" fill="#686868"/>
<path d="M391.264 109.214L392.38 107.413C393.144 108.255 394.142 108.588 395.336 108.588C396.53 108.588 397.94 108.059 397.94 106.199V105.24C397.196 106.18 396.178 106.728 395.023 106.728C392.654 106.728 390.853 105.064 390.853 101.912C390.853 98.8196 392.635 97.097 395.023 97.097C396.158 97.097 397.176 97.5864 397.94 98.5455V97.3319H400.445V106.141C400.445 109.742 397.666 110.623 395.336 110.623C393.711 110.623 392.439 110.251 391.264 109.214ZM397.94 103.439V100.386C397.529 99.7592 396.628 99.309 395.806 99.309C394.396 99.309 393.418 100.288 393.418 101.912C393.418 103.537 394.396 104.516 395.806 104.516C396.628 104.516 397.529 104.046 397.94 103.439Z" fill="#686868"/>
<path d="M413.792 106.787H410.993V96.177H407.176V93.7301H417.589V96.177H413.792V106.787Z" fill="#686868"/>
<path d="M416.794 102.049C416.794 99.309 418.81 97.097 421.688 97.097C424.507 97.097 426.425 99.2111 426.425 102.304V102.852H419.398C419.554 104.046 420.513 105.044 422.119 105.044C423 105.044 424.037 104.692 424.644 104.105L425.74 105.71C424.781 106.591 423.313 107.022 421.845 107.022C418.967 107.022 416.794 105.084 416.794 102.049ZM421.688 99.0741C420.142 99.0741 419.476 100.229 419.359 101.169H424.017C423.959 100.268 423.332 99.0741 421.688 99.0741Z" fill="#686868"/>
<path d="M430.707 106.787H428.221V97.3319H430.707V98.6238C431.372 97.7821 432.547 97.1166 433.721 97.1166V99.5439C433.545 99.5047 433.31 99.4851 433.036 99.4851C432.214 99.4851 431.118 99.9354 430.707 100.542V106.787Z" fill="#686868"/>
<path d="M449.506 106.787H447V100.816C447 99.9354 446.609 99.309 445.591 99.309C444.71 99.309 443.986 99.8962 443.633 100.405V106.787H441.128V100.816C441.128 99.9354 440.736 99.309 439.718 99.309C438.857 99.309 438.133 99.8962 437.761 100.425V106.787H435.275V97.3319H437.761V98.5651C438.152 97.9974 439.405 97.097 440.854 97.097C442.243 97.097 443.124 97.743 443.477 98.8196C444.025 97.9583 445.278 97.097 446.726 97.097C448.468 97.097 449.506 98.017 449.506 99.9549V106.787Z" fill="#686868"/>
<path d="M453.177 95.9421C452.375 95.9421 451.69 95.2765 451.69 94.4543C451.69 93.6322 452.375 92.9666 453.177 92.9666C454 92.9666 454.665 93.6322 454.665 94.4543C454.665 95.2765 454 95.9421 453.177 95.9421ZM454.43 106.787H451.944V97.3319H454.43V106.787Z" fill="#686868"/>
<path d="M465.763 106.787H463.277V101.071C463.277 99.7592 462.592 99.309 461.535 99.309C460.556 99.309 459.792 99.8571 459.381 100.425V106.787H456.895V97.3319H459.381V98.5651C459.988 97.8408 461.143 97.097 462.689 97.097C464.764 97.097 465.763 98.2715 465.763 100.112V106.787Z" fill="#686868"/>
<path d="M476.394 106.787H473.908V105.808C473.262 106.571 472.146 107.022 470.913 107.022C469.406 107.022 467.624 106.004 467.624 103.89C467.624 101.678 469.406 100.875 470.913 100.875C472.166 100.875 473.282 101.266 473.908 102.03V100.718C473.908 99.7592 473.086 99.1328 471.833 99.1328C470.815 99.1328 469.875 99.5047 469.073 100.249L468.133 98.5847C469.288 97.5668 470.776 97.097 472.264 97.097C474.417 97.097 476.394 97.9583 476.394 100.679V106.787ZM473.908 104.516V103.341C473.497 102.793 472.714 102.519 471.911 102.519C470.933 102.519 470.13 103.048 470.13 103.948C470.13 104.829 470.933 105.338 471.911 105.338C472.714 105.338 473.497 105.064 473.908 104.516Z" fill="#686868"/>
<path d="M481.346 106.787H478.86V93.7301H481.346V106.787Z" fill="#686868"/>
<path d="M217.292 45.8424C217.292 52.8772 216.055 59.0733 213.558 64.361C211.06 69.672 207.49 73.7718 202.845 76.6369C198.2 79.5253 192.879 80.9696 186.857 80.9696C180.835 80.9696 175.607 79.5486 170.963 76.6835C166.295 73.8416 162.7 69.7652 160.133 64.4775C157.566 59.1898 156.282 53.1101 156.235 46.2151V42.6745C156.235 35.6397 157.496 29.4203 160.063 24.0627C162.607 18.7051 166.201 14.6054 170.846 11.7169C175.491 8.85178 180.812 7.40756 186.787 7.40756C192.762 7.40756 198.06 8.85178 202.728 11.7169C207.373 14.5821 210.967 18.7051 213.511 24.0627C216.055 29.4203 217.339 35.5931 217.339 42.6046V45.7958L217.292 45.8424ZM202.308 42.6046C202.308 35.104 200.954 29.397 198.27 25.5069C195.586 21.6168 191.735 19.6601 186.74 19.6601C181.746 19.6601 177.965 21.5935 175.257 25.437C172.573 29.2805 171.196 34.9409 171.173 42.3716V45.8657C171.173 53.18 172.527 58.8404 175.211 62.8702C177.895 66.9001 181.769 68.9266 186.834 68.9266C191.899 68.9266 195.61 66.9932 198.247 63.1032C200.908 59.2131 202.261 53.5527 202.285 46.1219V42.6279L202.308 42.6046Z" fill="#0195AA"/>
<path d="M242.803 54.7871V79.9911H228.029V8.45563H255.99C261.382 8.45563 266.12 9.43397 270.204 11.4139C274.289 13.3706 277.44 16.1659 279.634 19.7997C281.827 23.4103 282.924 27.5333 282.924 32.1688C282.924 39.1802 280.52 44.7009 275.712 48.754C270.904 52.8071 264.253 54.8337 255.734 54.8337H242.78L242.803 54.7871ZM242.803 42.8606H255.99C259.888 42.8606 262.876 41.9522 264.929 40.112C266.983 38.2718 268.01 35.6628 268.01 32.2386C268.01 28.8145 266.983 25.9027 264.906 23.7364C262.829 21.5701 259.981 20.452 256.34 20.4054H242.803V42.8606Z" fill="#0195AA"/>
<path d="M330.257 61.2396C330.257 58.4443 329.276 56.3246 327.292 54.8338C325.332 53.343 321.784 51.7823 316.649 50.1051C311.538 48.4513 307.477 46.8207 304.489 45.2134C296.344 40.8342 292.283 34.9176 292.283 27.4635C292.283 23.5967 293.38 20.1493 295.55 17.1211C297.744 14.0928 300.872 11.7169 304.956 10.0164C309.041 8.31598 313.639 7.4541 318.727 7.4541C323.815 7.4541 328.413 8.38586 332.427 10.2261C336.442 12.0663 339.546 14.6985 341.763 18.0761C343.98 21.4537 345.077 25.2739 345.077 29.5833H330.303C330.303 26.2988 329.276 23.7598 327.199 21.9429C325.122 20.126 322.228 19.2175 318.493 19.2175C314.759 19.2175 312.075 19.9862 310.068 21.5003C308.06 23.0144 307.057 25.041 307.057 27.5101C307.057 29.8395 308.224 31.7962 310.581 33.3569C312.938 34.9409 316.393 36.4084 320.944 37.7827C329.346 40.2984 335.461 43.4431 339.312 47.1701C343.163 50.8971 345.077 55.5559 345.077 61.1231C345.077 67.3193 342.72 72.1644 338.029 75.7051C333.337 79.2225 327.012 80.9928 319.077 80.9928C313.569 80.9928 308.527 79.9912 303.999 77.9646C299.471 75.938 296.017 73.1894 293.636 69.672C291.256 66.1779 290.065 62.1015 290.065 57.4893H304.886C304.886 65.3859 309.624 69.3226 319.077 69.3226C322.578 69.3226 325.332 68.6005 327.292 67.1796C329.253 65.7586 330.257 63.7553 330.257 61.2163V61.2396Z" fill="#0195AA"/>
<path d="M409.052 20.4054H387.09V80.0143H372.316V20.4054H350.656V8.45563H409.052V20.4054Z" fill="#0195AA"/>
<path d="M444.014 53.8088H432.251V80.0143H417.477V8.45563H444.107C452.58 8.45563 459.115 10.3424 463.713 14.116C468.311 17.8896 470.598 23.2006 470.598 30.0956C470.598 34.9873 469.548 39.0405 467.424 42.3016C465.3 45.5627 462.102 48.1483 457.808 50.0817L473.329 79.3155V80.0143H457.481L444.037 53.8088H444.014ZM432.227 41.8823H444.154C447.865 41.8823 450.736 40.9506 452.766 39.0637C454.797 37.1769 455.824 34.5913 455.824 31.2836C455.824 27.9759 454.867 25.2505 452.953 23.3171C451.039 21.3837 448.075 20.4287 444.107 20.4287H432.251V41.9056L432.227 41.8823Z" fill="#0195AA"/>
<path d="M522.295 65.2693H496.388L491.464 80.0143H475.756L502.457 8.45563H516.157L542.998 80.0143H527.29L522.319 65.2693H522.295ZM500.379 53.3196H518.304L509.295 26.5317L500.379 53.3196Z" fill="#0195AA"/>
<path d="M116.465 40.4381C116.465 18.1459 98.2837 0 75.9475 0C53.6114 0 36.69 16.9579 35.5464 38.2485C35.4997 38.9706 35.4297 39.716 35.4297 40.4381V80.8763H73.2868C73.3568 80.0377 73.4035 79.1991 73.4035 78.3372V73.2825H43.0151V40.4148C43.0151 39.5763 43.0851 38.7377 43.1318 37.8758C44.4388 20.9412 58.6294 7.54721 75.9242 7.54721C94.0826 7.54721 108.833 22.2922 108.833 40.3915C108.833 55.4394 98.6338 68.1112 84.77 71.978V79.8047C102.858 75.7749 116.442 59.6323 116.442 40.3915L116.465 40.4381Z" fill="#0195AA"/>
<path d="M43.1553 37.8992C43.0852 38.7377 43.0386 39.5763 43.0386 40.4382V45.493H73.427V78.3606C73.427 79.1992 73.3569 80.0378 73.3103 80.8996C72.0032 97.8343 57.8126 111.228 40.5179 111.228C22.3595 111.228 7.60877 96.4832 7.60877 78.3839C7.60877 63.3361 17.8083 50.6642 31.6721 46.7974V38.9474C13.5838 43.0005 0 59.1199 0 78.3606C0 100.653 18.1817 118.799 40.5179 118.799C62.854 118.799 79.7754 101.841 80.919 80.5502C80.9657 79.8281 81.0357 79.0827 81.0357 78.3606V37.9458H43.1786L43.1553 37.8992Z" fill="#686868"/>
</svg>
