<svg width="183" height="55" viewBox="0 0 183 55" fill="none" xmlns="http://www.w3.org/2000/svg">
<path d="M175.29 54.365H6.74191C2.96644 54.365 0 51.3985 0 47.6231V7.1716C0 3.39613 2.96644 0.429688 6.74191 0.429688H175.29C179.065 0.429688 182.032 3.39613 182.032 7.1716V47.6231C182.032 51.3985 179.065 54.365 175.29 54.365Z" fill="black"/>
<path d="M175.29 1.50839C178.391 1.50839 180.953 4.07032 180.953 7.1716V47.6231C180.953 50.7243 178.391 53.2863 175.29 53.2863H6.74191C3.64063 53.2863 1.07871 50.7243 1.07871 47.6231V7.1716C1.07871 4.07032 3.64063 1.50839 6.74191 1.50839H175.29ZM175.29 0.429688H6.74191C2.96644 0.429688 0 3.53097 0 7.1716V47.6231C0 51.3985 2.96644 54.365 6.74191 54.365H175.29C179.065 54.365 182.032 51.3985 182.032 47.6231V7.1716C182.032 3.53097 179.065 0.429688 175.29 0.429688Z" fill="#A6A6A6"/>
<path d="M63.9135 14.1831C63.9135 15.2618 63.6439 16.2056 62.9697 16.8798C62.1606 17.6889 61.2168 18.0934 60.0032 18.0934C58.7897 18.0934 57.8458 17.6889 57.0368 16.8798C56.2278 16.0708 55.8232 15.1269 55.8232 13.9134C55.8232 12.6998 56.2278 11.756 57.0368 10.9469C57.8458 10.1379 58.7897 9.7334 60.0032 9.7334C60.5426 9.7334 61.0819 9.86824 61.6213 10.1379C62.1606 10.4076 62.5651 10.6773 62.8348 11.0818L62.1606 11.756C61.6213 11.0818 60.9471 10.8121 60.0032 10.8121C59.1942 10.8121 58.3852 11.0818 57.8458 11.756C57.1716 12.2953 56.9019 13.1044 56.9019 14.0482C56.9019 14.9921 57.1716 15.8011 57.8458 16.3405C58.52 16.8798 59.1942 17.2843 60.0032 17.2843C60.9471 17.2843 61.6213 17.0147 62.2955 16.3405C62.7 15.936 62.9697 15.3966 62.9697 14.7224H60.0032V13.6437H63.9135V14.1831ZM70.1161 10.8121H66.4755V13.374H69.8464V14.3179H66.4755V16.8798H70.1161V17.9585H65.3968V9.86824H70.1161V10.8121ZM74.5657 17.9585H73.487V10.8121H71.1948V9.86824H76.858V10.8121H74.5657V17.9585ZM80.7683 17.9585V9.86824H81.847V17.9585H80.7683ZM86.4315 17.9585H85.3528V10.8121H83.0606V9.86824H88.5889V10.8121H86.2967V17.9585H86.4315ZM99.2411 16.8798C98.4321 17.6889 97.4882 18.0934 96.2747 18.0934C95.0612 18.0934 94.1173 17.6889 93.3083 16.8798C92.4992 16.0708 92.0947 15.1269 92.0947 13.9134C92.0947 12.6998 92.4992 11.756 93.3083 10.9469C94.1173 10.1379 95.0612 9.7334 96.2747 9.7334C97.4882 9.7334 98.4321 10.1379 99.2411 10.9469C100.05 11.756 100.455 12.6998 100.455 13.9134C100.455 15.1269 100.05 16.0708 99.2411 16.8798ZM94.1173 16.2056C94.6566 16.745 95.4657 17.1495 96.2747 17.1495C97.0837 17.1495 97.8928 16.8798 98.4321 16.2056C98.9715 15.6663 99.376 14.8573 99.376 13.9134C99.376 12.9695 99.1063 12.1605 98.4321 11.6211C97.8928 11.0818 97.0837 10.6773 96.2747 10.6773C95.4657 10.6773 94.6566 10.9469 94.1173 11.6211C93.5779 12.1605 93.1734 12.9695 93.1734 13.9134C93.1734 14.8573 93.4431 15.6663 94.1173 16.2056ZM101.938 17.9585V9.86824H103.151L107.062 16.2056V9.86824H108.14V17.9585H107.062L102.882 11.3515V17.9585H101.938Z" fill="white" stroke="white" stroke-width="0.269676" stroke-miterlimit="10"/>
<path d="M91.8253 29.8245C88.5891 29.8245 86.0272 32.2515 86.0272 35.6225C86.0272 38.8586 88.5891 41.4205 91.8253 41.4205C95.0614 41.4205 97.6233 38.9935 97.6233 35.6225C97.6233 32.1167 95.0614 29.8245 91.8253 29.8245ZM91.8253 38.9935C90.0724 38.9935 88.5891 37.5102 88.5891 35.4877C88.5891 33.4651 90.0724 31.9819 91.8253 31.9819C93.5782 31.9819 95.0614 33.3302 95.0614 35.4877C95.0614 37.5102 93.5782 38.9935 91.8253 38.9935ZM79.2853 29.8245C76.0492 29.8245 73.4873 32.2515 73.4873 35.6225C73.4873 38.8586 76.0492 41.4205 79.2853 41.4205C82.5214 41.4205 85.0834 38.9935 85.0834 35.6225C85.0834 32.1167 82.5214 29.8245 79.2853 29.8245ZM79.2853 38.9935C77.5324 38.9935 76.0492 37.5102 76.0492 35.4877C76.0492 33.4651 77.5324 31.9819 79.2853 31.9819C81.0382 31.9819 82.5214 33.3302 82.5214 35.4877C82.5214 37.5102 81.0382 38.9935 79.2853 38.9935ZM64.3183 31.5774V34.0044H70.1163C69.9815 35.3528 69.4421 36.4315 68.7679 37.1057C67.9589 37.9147 66.6105 38.8586 64.3183 38.8586C60.6776 38.8586 57.9809 36.027 57.9809 32.3864C57.9809 28.7458 60.8125 25.9141 64.3183 25.9141C66.206 25.9141 67.6892 26.7232 68.7679 27.667L70.5208 25.9141C69.0376 24.5658 67.1499 23.4871 64.4531 23.4871C59.5989 23.4871 55.4189 27.5322 55.4189 32.3864C55.4189 37.2406 59.5989 41.2857 64.4531 41.2857C67.1499 41.2857 69.0376 40.4767 70.6557 38.7238C72.2737 37.1057 72.8131 34.8135 72.8131 33.0606C72.8131 32.5212 72.8131 31.9819 72.6782 31.5774H64.3183ZM125.535 33.4651C124.995 32.1167 123.647 29.8245 120.681 29.8245C117.714 29.8245 115.287 32.1167 115.287 35.6225C115.287 38.8586 117.714 41.4205 120.95 41.4205C123.512 41.4205 125.13 39.8025 125.67 38.8586L123.782 37.5102C123.108 38.4541 122.299 39.1283 120.95 39.1283C119.602 39.1283 118.793 38.5889 118.119 37.3754L125.804 34.1393L125.535 33.4651ZM117.714 35.3528C117.714 33.1954 119.467 31.9819 120.681 31.9819C121.625 31.9819 122.568 32.5212 122.838 33.1954L117.714 35.3528ZM111.377 40.8812H113.939V24.0264H111.377V40.8812ZM107.332 31.038C106.657 30.3638 105.579 29.6896 104.23 29.6896C101.399 29.6896 98.702 32.2515 98.702 35.4877C98.702 38.7238 101.264 41.1509 104.23 41.1509C105.579 41.1509 106.657 40.4767 107.197 39.8025H107.332V40.6115C107.332 42.7689 106.118 43.9825 104.23 43.9825C102.747 43.9825 101.668 42.9038 101.399 41.9599L99.2414 42.9038C99.9156 44.387 101.534 46.2747 104.365 46.2747C107.332 46.2747 109.759 44.5218 109.759 40.3418V30.0941H107.332V31.038ZM104.365 38.9935C102.612 38.9935 101.129 37.5102 101.129 35.4877C101.129 33.4651 102.612 31.9819 104.365 31.9819C106.118 31.9819 107.466 33.4651 107.466 35.4877C107.466 37.5102 106.118 38.9935 104.365 38.9935ZM137.266 24.0264H131.198V40.8812H133.76V34.5438H137.266C140.097 34.5438 142.794 32.5212 142.794 29.2851C142.794 26.049 140.097 24.0264 137.266 24.0264ZM137.401 32.1167H133.76V26.3187H137.401C139.288 26.3187 140.367 27.9367 140.367 29.1503C140.232 30.6335 139.153 32.1167 137.401 32.1167ZM152.907 29.6896C151.019 29.6896 149.132 30.4986 148.457 32.2515L150.75 33.1954C151.289 32.2515 152.098 31.9819 153.042 31.9819C154.39 31.9819 155.604 32.7909 155.739 34.1393V34.2741C155.334 34.0044 154.255 33.5999 153.177 33.5999C150.75 33.5999 148.322 34.9483 148.322 37.3754C148.322 39.6676 150.345 41.1509 152.502 41.1509C154.255 41.1509 155.064 40.3418 155.739 39.5328H155.873V40.8812H158.301V34.409C158.031 31.4425 155.739 29.6896 152.907 29.6896ZM152.637 38.9935C151.828 38.9935 150.615 38.5889 150.615 37.5102C150.615 36.1619 152.098 35.7573 153.311 35.7573C154.39 35.7573 154.93 36.027 155.604 36.2967C155.334 37.9147 153.986 38.9935 152.637 38.9935ZM166.795 30.0941L163.964 37.3754H163.829L160.862 30.0941H158.166L162.615 40.3418L160.053 46.005H162.615L169.492 30.0941H166.795ZM144.142 40.8812H146.704V24.0264H144.142V40.8812Z" fill="white"/>
<path d="M14.0228 10.5427C13.6182 10.9472 13.4834 11.6214 13.4834 12.4305V42.2297C13.4834 43.0387 13.7531 43.7129 14.1576 44.1174L14.2924 44.2523L31.0124 27.5323V27.2627L14.0228 10.5427Z" fill="url(#paint0_linear_142_1193)"/>
<path d="M36.4053 33.1959L30.877 27.6675V27.263L36.4053 21.7346L36.5402 21.8695L43.1472 25.6449C45.035 26.7236 45.035 28.4765 43.1472 29.5552L36.4053 33.1959Z" fill="url(#paint1_linear_142_1193)"/>
<path d="M36.5404 33.0609L30.8772 27.3977L14.0225 44.2525C14.6967 44.9267 15.6405 44.9267 16.8541 44.3873L36.5404 33.0609Z" fill="url(#paint2_linear_142_1193)"/>
<path d="M36.5404 21.7344L16.8541 10.5429C15.6405 9.86867 14.6967 10.0035 14.0225 10.6777L30.8772 27.3976L36.5404 21.7344Z" fill="url(#paint3_linear_142_1193)"/>
<path opacity="0.2" d="M36.4056 32.926L16.8541 43.9828C15.7754 44.6569 14.8315 44.5221 14.1573 43.9828L14.0225 44.1176L14.1573 44.2524C14.8315 44.7918 15.7754 44.9266 16.8541 44.2524L36.4056 32.926Z" fill="black"/>
<path opacity="0.12" d="M14.0228 43.9828C13.6182 43.5783 13.4834 42.9041 13.4834 42.0951V42.2299C13.4834 43.0389 13.7531 43.7131 14.1576 44.1176V43.9828H14.0228ZM43.1478 29.1506L36.4059 32.9261L36.5407 33.0609L43.1478 29.2854C44.0917 28.7461 44.4962 28.0719 44.4962 27.3977C44.4962 28.0719 43.9568 28.6112 43.1478 29.1506Z" fill="black"/>
<path opacity="0.25" d="M16.8544 10.6777L43.1478 25.6447C43.9568 26.1841 44.4962 26.7234 44.4962 27.3976C44.4962 26.7234 44.0917 26.0493 43.1478 25.5099L16.8544 10.5429C14.9666 9.46416 13.4834 10.2732 13.4834 12.4306V12.5654C13.4834 10.5429 14.9666 9.59899 16.8544 10.6777Z" fill="white"/>
<defs>
<linearGradient id="paint0_linear_142_1193" x1="29.3943" y1="12.1743" x2="6.76441" y2="34.8028" gradientUnits="userSpaceOnUse">
<stop stop-color="#00A0FF"/>
<stop offset="0.007" stop-color="#00A1FF"/>
<stop offset="0.26" stop-color="#00BEFF"/>
<stop offset="0.512" stop-color="#00D2FF"/>
<stop offset="0.76" stop-color="#00DFFF"/>
<stop offset="1" stop-color="#00E3FF"/>
</linearGradient>
<linearGradient id="paint1_linear_142_1193" x1="45.6202" y1="27.3992" x2="12.9934" y2="27.3992" gradientUnits="userSpaceOnUse">
<stop stop-color="#FFE000"/>
<stop offset="0.409" stop-color="#FFBD00"/>
<stop offset="0.775" stop-color="#FFA500"/>
<stop offset="1" stop-color="#FF9C00"/>
</linearGradient>
<linearGradient id="paint2_linear_142_1193" x1="33.4756" y1="30.4936" x2="2.78909" y2="61.1801" gradientUnits="userSpaceOnUse">
<stop stop-color="#FF3A44"/>
<stop offset="1" stop-color="#C31162"/>
</linearGradient>
<linearGradient id="paint3_linear_142_1193" x1="9.83843" y1="0.667307" x2="23.542" y2="14.3709" gradientUnits="userSpaceOnUse">
<stop stop-color="#32A071"/>
<stop offset="0.069" stop-color="#2DA771"/>
<stop offset="0.476" stop-color="#15CF74"/>
<stop offset="0.801" stop-color="#06E775"/>
<stop offset="1" stop-color="#00F076"/>
</linearGradient>
</defs>
</svg>
