<svg width="543" height="119" viewBox="0 0 543 119" fill="none" xmlns="http://www.w3.org/2000/svg">
<path d="M217.292 61.435C217.292 68.4697 216.055 74.6659 213.558 79.9536C211.06 85.2646 207.49 89.3643 202.845 92.2295C198.2 95.1179 192.879 96.5621 186.857 96.5621C180.835 96.5621 175.607 95.1412 170.963 92.276C166.295 89.4342 162.7 85.3578 160.133 80.0701C157.566 74.7824 156.282 68.7027 156.235 61.8077V58.267C156.235 51.2323 157.496 45.0128 160.063 39.6552C162.607 34.2976 166.201 30.1979 170.846 27.3095C175.491 24.4443 180.812 23.0001 186.787 23.0001C192.762 23.0001 198.06 24.4443 202.728 27.3095C207.373 30.1746 210.967 34.2976 213.511 39.6552C216.055 45.0128 217.339 51.1857 217.339 58.1971V61.3884L217.292 61.435ZM202.308 58.1971C202.308 50.6965 200.954 44.9895 198.27 41.0994C195.586 37.2094 191.735 35.2527 186.74 35.2527C181.746 35.2527 177.965 37.1861 175.257 41.0296C172.573 44.873 171.196 50.5335 171.173 57.9642V61.4583C171.173 68.7725 172.527 74.4329 175.211 78.4628C177.895 82.4926 181.769 84.5192 186.834 84.5192C191.899 84.5192 195.61 82.5858 198.247 78.6957C200.908 74.8057 202.261 69.1452 202.285 61.7145V58.2204L202.308 58.1971Z" fill="#0195AA"/>
<path d="M242.803 70.3797V95.5836H228.029V24.0482H255.99C261.382 24.0482 266.12 25.0266 270.204 27.0065C274.289 28.9632 277.44 31.7585 279.634 35.3923C281.827 39.0029 282.924 43.1259 282.924 47.7614C282.924 54.7728 280.52 60.2934 275.712 64.3466C270.904 68.3997 264.253 70.4263 255.734 70.4263H242.78L242.803 70.3797ZM242.803 58.4532H255.99C259.888 58.4532 262.876 57.5448 264.929 55.7046C266.983 53.8643 268.01 51.2554 268.01 47.8312C268.01 44.407 266.983 41.4953 264.906 39.329C262.829 37.1627 259.981 36.0445 256.34 35.998H242.803V58.4532Z" fill="#0195AA"/>
<path d="M330.257 76.8322C330.257 74.0369 329.276 71.9172 327.292 70.4264C325.332 68.9356 321.784 67.3749 316.649 65.6977C311.538 64.0439 307.477 62.4133 304.489 60.806C296.344 56.4268 292.283 50.5101 292.283 43.0561C292.283 39.1893 293.38 35.7418 295.55 32.7136C297.744 29.6854 300.872 27.3095 304.956 25.609C309.041 23.9086 313.639 23.0467 318.727 23.0467C323.815 23.0467 328.413 23.9784 332.427 25.8187C336.442 27.6589 339.546 30.2911 341.763 33.6687C343.98 37.0463 345.077 40.8665 345.077 45.1759H330.303C330.303 41.8914 329.276 39.3524 327.199 37.5355C325.122 35.7185 322.228 34.8101 318.493 34.8101C314.759 34.8101 312.075 35.5788 310.068 37.0929C308.06 38.607 307.057 40.6336 307.057 43.1027C307.057 45.4321 308.224 47.3888 310.581 48.9495C312.938 50.5334 316.393 52.001 320.944 53.3753C329.346 55.891 335.461 59.0357 339.312 62.7627C343.163 66.4897 345.077 71.1485 345.077 76.7157C345.077 82.9119 342.72 87.757 338.029 91.2977C333.337 94.8151 327.012 96.5854 319.077 96.5854C313.569 96.5854 308.527 95.5838 303.999 93.5572C299.471 91.5306 296.017 88.782 293.636 85.2646C291.256 81.7705 290.065 77.6941 290.065 73.0819H304.886C304.886 80.9785 309.624 84.9152 319.077 84.9152C322.578 84.9152 325.332 84.1931 327.292 82.7721C329.253 81.3512 330.257 79.3479 330.257 76.8089V76.8322Z" fill="#0195AA"/>
<path d="M409.052 35.998H387.09V95.6069H372.316V35.998H350.656V24.0482H409.052V35.998Z" fill="#0195AA"/>
<path d="M444.014 69.4013H432.251V95.6069H417.477V24.0482H444.107C452.58 24.0482 459.115 25.935 463.713 29.7086C468.311 33.4822 470.598 38.7932 470.598 45.6882C470.598 50.5799 469.548 54.633 467.424 57.8942C465.3 61.1553 462.102 63.7409 457.808 65.6743L473.329 94.9081V95.6069H457.481L444.037 69.4013H444.014ZM432.227 57.4749H444.154C447.865 57.4749 450.736 56.5431 452.766 54.6563C454.797 52.7695 455.824 50.1839 455.824 46.8762C455.824 43.5685 454.867 40.8431 452.953 38.9097C451.039 36.9763 448.075 36.0213 444.107 36.0213H432.251V57.4982L432.227 57.4749Z" fill="#0195AA"/>
<path d="M522.295 80.8619H496.388L491.464 95.6069H475.756L502.457 24.0482H516.157L542.998 95.6069H527.29L522.319 80.8619H522.295ZM500.379 68.9122H518.304L509.295 42.1242L500.379 68.9122Z" fill="#0195AA"/>
<path d="M116.465 40.4381C116.465 18.1459 98.2837 0 75.9475 0C53.6114 0 36.69 16.9579 35.5464 38.2485C35.4997 38.9706 35.4297 39.716 35.4297 40.4381V80.8763H73.2868C73.3568 80.0377 73.4035 79.1991 73.4035 78.3372V73.2825H43.0151V40.4148C43.0151 39.5763 43.0851 38.7377 43.1318 37.8758C44.4388 20.9412 58.6294 7.54721 75.9242 7.54721C94.0826 7.54721 108.833 22.2922 108.833 40.3915C108.833 55.4394 98.6338 68.1112 84.77 71.978V79.8047C102.858 75.7749 116.442 59.6323 116.442 40.3915L116.465 40.4381Z" fill="#0195AA"/>
<path d="M43.1553 37.8992C43.0852 38.7377 43.0386 39.5763 43.0386 40.4382V45.493H73.427V78.3606C73.427 79.1992 73.3569 80.0378 73.3103 80.8996C72.0032 97.8343 57.8126 111.228 40.5179 111.228C22.3595 111.228 7.60877 96.4832 7.60877 78.3839C7.60877 63.3361 17.8083 50.6642 31.6721 46.7974V38.9474C13.5838 43.0005 0 59.1199 0 78.3606C0 100.653 18.1817 118.799 40.5179 118.799C62.854 118.799 79.7754 101.841 80.919 80.5502C80.9657 79.8281 81.0357 79.0827 81.0357 78.3606V37.9458H43.1786L43.1553 37.8992Z" fill="#686868"/>
</svg>
