<svg width="543" height="102" viewBox="0 0 543 102" fill="none" xmlns="http://www.w3.org/2000/svg">
<path d="M165.299 95.5965H159.973V82.0887H165.299C169.532 82.0887 172.468 84.7822 172.468 88.8527C172.468 92.9233 169.532 95.5965 165.299 95.5965ZM162.849 84.6202V93.0651H165.299C167.973 93.0651 169.532 91.1412 169.532 88.8527C169.532 86.4631 168.074 84.6202 165.299 84.6202H162.849ZM173.821 90.6956C173.821 87.8604 175.907 85.572 178.884 85.572C181.8 85.572 183.784 87.7592 183.784 90.9589V91.5259H176.514C176.676 92.7613 177.669 93.7941 179.329 93.7941C180.24 93.7941 181.314 93.4296 181.942 92.822L183.076 94.4827C182.083 95.394 180.565 95.8395 179.046 95.8395C176.069 95.8395 173.821 93.8346 173.821 90.6956ZM178.884 87.6174C177.284 87.6174 176.595 88.8122 176.474 89.7843H181.294C181.233 88.8527 180.585 87.6174 178.884 87.6174ZM184.792 94.3207L185.906 92.5183C186.614 93.1866 188.072 93.8549 189.288 93.8549C190.401 93.8549 190.928 93.4701 190.928 92.8625C190.928 92.174 190.077 91.931 188.964 91.7082C187.283 91.3842 185.116 90.9792 185.116 88.6502C185.116 87.0099 186.554 85.572 189.126 85.572C190.786 85.572 192.102 86.139 193.054 86.9086L192.042 88.6705C191.454 88.0427 190.341 87.5364 189.146 87.5364C188.214 87.5364 187.607 87.8807 187.607 88.4477C187.607 89.0553 188.376 89.278 189.47 89.5008C191.151 89.8248 193.399 90.2704 193.399 92.7005C193.399 94.5029 191.88 95.8395 189.166 95.8395C187.465 95.8395 185.825 95.2725 184.792 94.3207ZM204.852 95.5965H201.632L199.04 91.8297L197.865 93.0853V95.5965H195.293V82.0887H197.865V90.1691L201.571 85.815H204.731L200.863 90.2501L204.852 95.5965ZM209.412 95.8395C207.609 95.8395 206.637 94.9079 206.637 93.1663V88.0629H205.017V85.815H206.637V83.1418H209.23V85.815H211.214V88.0629H209.23V92.4778C209.23 93.0853 209.554 93.5511 210.121 93.5511C210.505 93.5511 210.87 93.4093 211.012 93.2676L211.558 95.2117C211.174 95.556 210.485 95.8395 209.412 95.8395ZM217.51 95.8395C214.29 95.8395 212.346 93.4903 212.346 90.6956C212.346 87.9212 214.29 85.572 217.51 85.572C220.75 85.572 222.695 87.9212 222.695 90.6956C222.695 93.4903 220.75 95.8395 217.51 95.8395ZM217.51 93.5511C219.11 93.5511 220.021 92.2347 220.021 90.6956C220.021 89.1768 219.11 87.8604 217.51 87.8604C215.91 87.8604 215.019 89.1768 215.019 90.6956C215.019 92.2347 215.91 93.5511 217.51 93.5511ZM227.175 94.3409V99.3228H224.603V85.815H227.175V87.0504C227.924 86.0985 228.997 85.572 230.192 85.572C232.703 85.572 234.526 87.4351 234.526 90.6956C234.526 93.9561 232.703 95.8395 230.192 95.8395C229.038 95.8395 227.964 95.3535 227.175 94.3409ZM231.853 90.6956C231.853 89.0148 230.86 87.8604 229.382 87.8604C228.552 87.8604 227.6 88.3465 227.175 88.9743V92.4373C227.6 93.0448 228.552 93.5511 229.382 93.5511C230.86 93.5511 231.853 92.3968 231.853 90.6956ZM247.706 95.5965H244.81V84.6202H240.861V82.0887H251.635V84.6202H247.706V95.5965ZM254.605 95.5965H252.033V85.815H254.605V87.1516C255.294 86.2808 256.509 85.5923 257.724 85.5923V88.1034C257.542 88.0629 257.299 88.0427 257.015 88.0427C256.164 88.0427 255.03 88.5085 254.605 89.1363V95.5965ZM267.776 95.5965H265.204V94.5839C264.535 95.3737 263.381 95.8395 262.105 95.8395C260.546 95.8395 258.703 94.7864 258.703 92.5993C258.703 90.3109 260.546 89.4805 262.105 89.4805C263.401 89.4805 264.556 89.8856 265.204 90.6754V89.3185C265.204 88.3262 264.353 87.6782 263.057 87.6782C262.004 87.6782 261.032 88.0629 260.202 88.8325L259.23 87.1111C260.424 86.058 261.964 85.572 263.503 85.572C265.73 85.572 267.776 86.4631 267.776 89.278V95.5965ZM265.204 93.2473V92.0322C264.778 91.4652 263.968 91.1817 263.138 91.1817C262.126 91.1817 261.295 91.7285 261.295 92.66C261.295 93.5713 262.126 94.0979 263.138 94.0979C263.968 94.0979 264.778 93.8144 265.204 93.2473ZM279.642 95.5965H277.05V94.3612C276.281 95.313 275.207 95.8395 274.033 95.8395C271.562 95.8395 269.699 93.9764 269.699 90.7159C269.699 87.5161 271.542 85.572 274.033 85.572C275.187 85.572 276.281 86.0783 277.05 87.0706V82.0887H279.642V95.5965ZM277.05 92.4373V88.9743C276.605 88.3262 275.693 87.8604 274.823 87.8604C273.364 87.8604 272.352 89.0148 272.352 90.7159C272.352 92.3968 273.364 93.5511 274.823 93.5511C275.693 93.5511 276.605 93.0853 277.05 92.4373ZM283.469 84.3772C282.638 84.3772 281.93 83.6886 281.93 82.838C281.93 81.9875 282.638 81.2989 283.469 81.2989C284.319 81.2989 285.008 81.9875 285.008 82.838C285.008 83.6886 284.319 84.3772 283.469 84.3772ZM284.765 95.5965H282.193V85.815H284.765V95.5965ZM296.489 95.5965H293.917V89.6831C293.917 88.3262 293.208 87.8604 292.115 87.8604C291.102 87.8604 290.312 88.4275 289.887 89.0148V95.5965H287.315V85.815H289.887V87.0909C290.515 86.3416 291.71 85.572 293.31 85.572C295.456 85.572 296.489 86.7871 296.489 88.6907V95.5965ZM298.84 98.1077L299.995 96.2445C300.784 97.1154 301.817 97.4596 303.053 97.4596C304.288 97.4596 305.746 96.9128 305.746 94.989V93.9966C304.976 94.9687 303.923 95.5357 302.729 95.5357C300.278 95.5357 298.415 93.8144 298.415 90.5539C298.415 87.3541 300.258 85.572 302.729 85.572C303.903 85.572 304.956 86.0783 305.746 87.0706V85.815H308.338V94.9282C308.338 98.6545 305.462 99.5658 303.053 99.5658C301.372 99.5658 300.055 99.181 298.84 98.1077ZM305.746 92.1335V88.9743C305.321 88.3262 304.389 87.8604 303.539 87.8604C302.08 87.8604 301.068 88.873 301.068 90.5539C301.068 92.2347 302.08 93.2473 303.539 93.2473C304.389 93.2473 305.321 92.7613 305.746 92.1335ZM322.146 95.5965H319.25V84.6202H315.301V82.0887H326.075V84.6202H322.146V95.5965ZM325.252 90.6956C325.252 87.8604 327.338 85.572 330.315 85.572C333.231 85.572 335.216 87.7592 335.216 90.9589V91.5259H327.946C328.108 92.7613 329.1 93.7941 330.761 93.7941C331.672 93.7941 332.745 93.4296 333.373 92.822L334.507 94.4827C333.515 95.394 331.996 95.8395 330.477 95.8395C327.5 95.8395 325.252 93.8346 325.252 90.6956ZM330.315 87.6174C328.715 87.6174 328.027 88.8122 327.905 89.7843H332.725C332.664 88.8527 332.016 87.6174 330.315 87.6174ZM339.646 95.5965H337.074V85.815H339.646V87.1516C340.334 86.2808 341.549 85.5923 342.764 85.5923V88.1034C342.582 88.0629 342.339 88.0427 342.056 88.0427C341.205 88.0427 340.071 88.5085 339.646 89.1363V95.5965ZM359.094 95.5965H356.502V89.4198C356.502 88.5085 356.097 87.8604 355.044 87.8604C354.133 87.8604 353.383 88.468 353.019 88.9945V95.5965H350.427V89.4198C350.427 88.5085 350.021 87.8604 348.968 87.8604C348.077 87.8604 347.328 88.468 346.943 89.0148V95.5965H344.371V85.815H346.943V87.0909C347.348 86.5036 348.644 85.572 350.143 85.572C351.581 85.572 352.492 86.2403 352.857 87.3541C353.424 86.4631 354.72 85.572 356.218 85.572C358.021 85.572 359.094 86.5238 359.094 88.5287V95.5965ZM362.893 84.3772C362.062 84.3772 361.353 83.6886 361.353 82.838C361.353 81.9875 362.062 81.2989 362.893 81.2989C363.743 81.2989 364.432 81.9875 364.432 82.838C364.432 83.6886 363.743 84.3772 362.893 84.3772ZM364.189 95.5965H361.617V85.815H364.189V95.5965ZM375.913 95.5965H373.341V89.6831C373.341 88.3262 372.632 87.8604 371.539 87.8604C370.526 87.8604 369.736 88.4275 369.311 89.0148V95.5965H366.739V85.815H369.311V87.0909C369.939 86.3416 371.134 85.572 372.733 85.572C374.88 85.572 375.913 86.7871 375.913 88.6907V95.5965ZM386.912 95.5965H384.34V94.5839C383.671 95.3737 382.517 95.8395 381.241 95.8395C379.682 95.8395 377.839 94.7864 377.839 92.5993C377.839 90.3109 379.682 89.4805 381.241 89.4805C382.537 89.4805 383.692 89.8856 384.34 90.6754V89.3185C384.34 88.3262 383.489 87.6782 382.193 87.6782C381.14 87.6782 380.168 88.0629 379.337 88.8325L378.365 87.1111C379.56 86.058 381.099 85.572 382.638 85.572C384.866 85.572 386.912 86.4631 386.912 89.278V95.5965ZM384.34 93.2473V92.0322C383.914 91.4652 383.104 91.1817 382.274 91.1817C381.261 91.1817 380.431 91.7285 380.431 92.66C380.431 93.5713 381.261 94.0979 382.274 94.0979C383.104 94.0979 383.914 93.8144 384.34 93.2473ZM392.034 95.5965H389.463V82.0887H392.034V95.5965Z" fill="#3A3A3A"/>
<path d="M162.599 56.078C161.44 54.9453 160.86 53.4512 160.86 51.5474V10.6758H147.749C143.765 10.6758 141.761 8.94071 141.761 5.49458C141.761 2.04845 143.765 0.409729 147.749 0.409729H186.6C190.585 0.409729 192.589 2.09665 192.589 5.49458C192.589 8.89251 190.585 10.6758 186.6 10.6758H173.489V51.5474C173.489 53.4271 172.934 54.9453 171.799 56.078C170.664 57.2106 169.119 57.7649 167.187 57.7649C165.255 57.7649 163.782 57.2106 162.623 56.078H162.599Z" fill="#001139"/>
<path d="M218.135 18.0017C219.076 18.8452 219.559 20.0983 219.559 21.7612C219.559 23.5445 219.125 24.8699 218.255 25.7134C217.386 26.5809 215.865 27.1111 213.643 27.328L211.205 27.569C208.235 27.8822 206.086 28.8703 204.758 30.4849C203.43 32.0995 202.778 34.172 202.778 36.7024V52.1257C202.778 54.0054 202.198 55.4272 201.039 56.4152C199.88 57.3792 198.431 57.8612 196.717 57.8612C195.003 57.8612 193.457 57.3792 192.298 56.4152C191.139 55.4513 190.56 54.0295 190.56 52.1257V22.4841C190.56 20.7008 191.163 19.3272 192.346 18.3632C193.53 17.3993 194.954 16.9173 196.644 16.9173C198.335 16.9173 199.614 17.3993 200.701 18.3391C201.788 19.279 202.319 20.5803 202.319 22.2672V24.4602C203.285 22.1467 204.758 20.3634 206.738 19.1344C208.718 17.9053 210.842 17.2065 213.185 17.0378L214.32 16.9655C215.937 16.8691 217.217 17.2306 218.159 18.0499L218.135 18.0017Z" fill="#001139"/>
<path d="M253.871 20.99C256.672 23.8096 258.073 28.1473 258.073 33.9552V52.2221C258.073 54.0054 257.565 55.379 256.527 56.3911C255.513 57.3792 254.064 57.8853 252.229 57.8853C250.491 57.8853 249.114 57.3551 248.052 56.3188C246.989 55.2585 246.482 53.909 246.482 52.2461V51.6919C245.661 53.6921 244.333 55.2585 242.426 56.367C240.542 57.4997 238.321 58.054 235.785 58.054C233.081 58.054 230.642 57.5238 228.469 56.4393C226.272 55.3549 224.557 53.8608 223.278 51.9088C221.998 49.9809 221.37 47.812 221.37 45.4503C221.37 42.5343 222.119 40.2449 223.592 38.5821C225.065 36.9193 227.455 35.6903 230.763 34.9432C234.047 34.1961 238.562 33.8106 244.285 33.8106H246.386V32.3646C246.386 30.0993 245.879 28.4606 244.889 27.4485C243.899 26.4363 242.233 25.9061 239.914 25.9061C237.596 25.9061 234.24 26.7255 229.87 28.3401C228.638 28.9426 227.576 29.2318 226.706 29.2318C225.523 29.2318 224.582 28.8221 223.881 27.9786C223.181 27.1352 222.819 26.0507 222.819 24.7012C222.819 23.6168 223.06 22.7251 223.543 22.0262C224.026 21.3274 224.799 20.6767 225.885 20.0983C227.769 19.0862 230.087 18.2668 232.815 17.6644C235.544 17.0619 238.224 16.7727 240.88 16.7727C246.7 16.7727 251.022 18.1945 253.823 21.0141L253.871 20.99ZM244.237 47.2336C245.685 45.6431 246.434 43.5947 246.434 41.0643V39.6907H245.058C240.687 39.6907 237.621 40.0521 235.882 40.751C234.119 41.4499 233.25 42.7271 233.25 44.5586C233.25 46.0769 233.757 47.2818 234.747 48.2457C235.737 49.1856 236.993 49.6676 238.514 49.6676C240.88 49.6676 242.812 48.8723 244.261 47.2818L244.237 47.2336Z" fill="#001139"/>
<path d="M305.714 1.56642C306.873 2.57857 307.453 3.92811 307.453 5.61502V52.1498C307.453 53.8849 306.898 55.2586 305.787 56.3189C304.676 57.3793 303.203 57.8853 301.368 57.8853C299.533 57.8853 298.06 57.3552 296.949 56.3189C295.839 55.2586 295.283 53.8849 295.283 52.1498V51.4991C294.1 53.5475 292.41 55.1381 290.212 56.2948C288.015 57.4516 285.552 58.0299 282.799 58.0299C279.395 58.0299 276.352 57.1624 273.696 55.4032C271.016 53.6439 268.94 51.21 267.467 48.053C265.97 44.8961 265.245 41.2813 265.245 37.1845C265.245 33.0877 265.994 29.4969 267.467 26.3882C268.94 23.3035 271.016 20.9178 273.648 19.2308C276.28 17.568 279.347 16.7246 282.799 16.7246C285.504 16.7246 287.943 17.2788 290.116 18.4115C292.313 19.5441 293.979 21.1347 295.187 23.1831V5.32584C295.187 3.71122 295.718 2.40988 296.804 1.44593C297.891 0.481977 299.316 0 301.102 0C302.986 0 304.507 0.506073 305.666 1.54232L305.714 1.56642ZM293.013 45.7877C294.559 43.8116 295.331 41.0162 295.331 37.3531C295.331 33.6901 294.559 30.8947 293.013 28.9427C291.468 27.0148 289.271 26.0267 286.421 26.0267C283.572 26.0267 281.351 26.9907 279.781 28.8945C278.212 30.7983 277.439 33.5696 277.439 37.1845C277.439 40.7993 278.212 43.6911 279.781 45.7154C281.351 47.7397 283.548 48.7519 286.421 48.7519C289.295 48.7519 291.492 47.7638 293.013 45.8118V45.7877Z" fill="#001139"/>
<path d="M351.374 46.8721C352.05 47.7397 352.388 48.8482 352.388 50.1736C352.388 51.0894 352.122 51.9329 351.567 52.7281C351.036 53.4993 350.263 54.174 349.297 54.7042C347.462 55.6682 345.337 56.4634 342.898 57.09C340.46 57.7166 338.238 58.0299 336.186 58.0299C331.864 58.0299 328.097 57.1864 324.885 55.5236C321.674 53.8608 319.211 51.475 317.472 48.3662C315.734 45.2816 314.889 41.6186 314.889 37.4254C314.889 33.2322 315.734 29.8101 317.4 26.6773C319.066 23.5445 321.384 21.1105 324.354 19.3754C327.324 17.6162 330.705 16.7486 334.471 16.7486C338.238 16.7486 341.256 17.5439 343.985 19.1344C346.714 20.7249 348.838 22.9902 350.335 25.9302C351.857 28.8703 352.605 32.2923 352.605 36.2204C352.605 37.4013 352.315 38.317 351.76 38.9195C351.205 39.5461 350.408 39.8594 349.37 39.8594H326.696C327.083 43.0404 328.048 45.3298 329.618 46.7757C331.187 48.1975 333.433 48.9205 336.331 48.9205C337.9 48.9205 339.301 48.7277 340.532 48.3662C341.764 47.9806 343.14 47.4746 344.661 46.8239C345.41 46.5106 346.134 46.2214 346.858 45.9805C347.559 45.7395 348.186 45.619 348.718 45.619C349.804 45.619 350.674 46.0527 351.35 46.9203L351.374 46.8721ZM329.232 27.3762C327.831 28.8703 326.986 30.991 326.72 33.8105H342.343C342.174 30.9669 341.474 28.798 340.194 27.3521C338.914 25.9061 337.127 25.1591 334.809 25.1591C332.491 25.1591 330.632 25.9061 329.232 27.3762Z" fill="#001139"/>
<path d="M363.23 56.8491C362.627 56.2225 362.337 55.4031 362.337 54.391V3.66302C362.337 2.69906 362.651 1.90381 363.279 1.32543C363.906 0.722965 364.727 0.433777 365.742 0.433777H384.938C390.926 0.433777 395.586 1.8797 398.894 4.79566C402.202 7.71161 403.869 11.8325 403.869 17.1583C403.869 22.4842 402.202 26.6292 398.846 29.5933C395.49 32.5575 390.854 34.0275 384.914 34.0275H368.977V54.391C368.977 55.4031 368.687 56.2466 368.084 56.8491C367.48 57.4756 366.683 57.7889 365.645 57.7889C364.607 57.7889 363.81 57.4756 363.206 56.8491H363.23ZM384.262 28.533C392.954 28.533 397.301 24.7254 397.301 17.1342C397.301 9.54313 392.954 5.90421 384.262 5.90421H368.953V28.533H384.262Z" fill="#001139"/>
<path d="M418.79 55.4513C415.965 53.7885 413.768 51.4027 412.222 48.294C410.677 45.2093 409.904 41.5945 409.904 37.4977C409.904 33.4009 410.677 29.8102 412.222 26.7015C413.768 23.6168 415.941 21.231 418.79 19.5441C421.615 17.8813 424.899 17.0378 428.618 17.0378C432.336 17.0378 435.644 17.8813 438.494 19.5441C441.343 21.2069 443.564 23.5927 445.086 26.7015C446.631 29.8102 447.404 33.4009 447.404 37.4977C447.404 41.5945 446.631 45.1852 445.086 48.294C443.54 51.4027 441.343 53.7644 438.494 55.4513C435.644 57.1142 432.336 57.9576 428.618 57.9576C424.899 57.9576 421.615 57.1142 418.79 55.4513ZM437.576 48.7037C439.653 46.1492 440.691 42.4139 440.691 37.5218C440.691 32.6298 439.628 29.0149 437.528 26.4123C435.427 23.8096 432.457 22.4842 428.618 22.4842C424.778 22.4842 421.808 23.7855 419.708 26.4123C417.607 29.0149 416.545 32.7262 416.545 37.5218C416.545 42.3175 417.583 46.0769 419.659 48.6796C421.736 51.2581 424.73 52.5595 428.594 52.5595C432.457 52.5595 435.451 51.2822 437.528 48.7278L437.576 48.7037Z" fill="#001139"/>
<path d="M457.376 7.61522C456.555 6.86816 456.169 5.85601 456.169 4.62697C456.169 3.39793 456.579 2.48218 457.376 1.71102C458.197 0.963953 459.236 0.578369 460.539 0.578369C461.843 0.578369 462.882 0.963953 463.703 1.71102C464.524 2.45808 464.91 3.44613 464.91 4.62697C464.91 5.80781 464.499 6.86816 463.703 7.61522C462.882 8.36228 461.843 8.74787 460.539 8.74787C459.236 8.74787 458.197 8.36228 457.376 7.61522ZM458.125 56.9455C457.497 56.3912 457.183 55.5959 457.183 54.5597V20.4599C457.183 19.4477 457.497 18.6525 458.125 18.0741C458.753 17.5198 459.549 17.2306 460.515 17.2306C461.481 17.2306 462.278 17.5198 462.857 18.0741C463.461 18.6284 463.751 19.4236 463.751 20.4599V54.5597C463.751 55.6441 463.461 56.4394 462.857 56.9937C462.254 57.5239 461.481 57.813 460.515 57.813C459.549 57.813 458.753 57.5238 458.125 56.9696V56.9455Z" fill="#001139"/>
<path d="M509.993 32.6539V54.5356C509.993 55.5478 509.703 56.343 509.148 56.9214C508.592 57.4757 507.796 57.7649 506.757 57.7649C505.719 57.7649 504.922 57.4757 504.319 56.9214C503.715 56.3671 503.425 55.5719 503.425 54.5356V33.0395C503.425 29.3765 502.701 26.7015 501.276 25.0387C499.851 23.3759 497.558 22.5324 494.443 22.5324C490.821 22.5324 487.947 23.641 485.774 25.834C483.625 28.0511 482.539 31.0393 482.539 34.7987V54.5115C482.539 55.5237 482.249 56.3189 481.693 56.8973C481.138 57.4757 480.341 57.7408 479.303 57.7408C478.265 57.7408 477.468 57.4516 476.864 56.8973C476.26 56.343 475.971 55.5478 475.971 54.5115V20.4117C475.971 19.4478 476.26 18.6525 476.864 18.0741C477.468 17.4717 478.265 17.1825 479.303 17.1825C480.269 17.1825 481.041 17.4717 481.621 18.0741C482.176 18.6766 482.466 19.4237 482.466 20.3394V24.4603C483.77 22.0263 485.557 20.1948 487.899 18.9176C490.217 17.6645 492.873 17.0138 495.843 17.0138C505.284 17.0138 510.017 22.2191 510.017 32.6057L509.993 32.6539Z" fill="#001139"/>
<path d="M543 55.2103C543 56.1261 542.662 56.8249 541.986 57.2587C541.31 57.7166 540.295 57.8853 538.943 57.7889L536.746 57.6202C532.424 57.3069 529.236 56.0056 527.184 53.7403C525.131 51.475 524.117 48.053 524.117 43.4742V23.2071H518.684C517.767 23.2071 517.042 22.9902 516.535 22.5323C516.028 22.0745 515.763 21.472 515.763 20.7249C515.763 19.9056 516.028 19.279 516.535 18.797C517.042 18.315 517.767 18.074 518.684 18.074H524.117V8.94061C524.117 7.92846 524.407 7.1332 525.011 6.55482C525.614 6.00055 526.411 5.71136 527.45 5.71136C528.415 5.71136 529.212 6.00055 529.792 6.55482C530.395 7.1091 530.685 7.90436 530.685 8.94061V18.074H539.668C540.537 18.074 541.213 18.315 541.72 18.797C542.227 19.279 542.493 19.9297 542.493 20.7249C542.493 21.472 542.227 22.0745 541.72 22.5323C541.213 22.9902 540.513 23.2071 539.668 23.2071H530.685V43.8116C530.685 46.7757 531.289 48.9205 532.496 50.246C533.703 51.5714 535.539 52.2944 537.953 52.463L540.15 52.6317C542.034 52.8004 542.976 53.6439 542.976 55.2103H543Z" fill="#001139"/>
<path d="M92.6739 0H47.0374C41.7976 0 37.5479 4.24139 37.5479 9.47083C37.5479 14.7003 41.7976 18.9417 47.0374 18.9417H83.1844V55.6441C83.1844 60.8736 87.4342 65.115 92.6739 65.115C97.9137 65.115 102.163 60.8736 102.163 55.6441V9.47083C102.163 4.24139 97.9137 0 92.6739 0Z" fill="#1293F1"/>
<path d="M55.1261 83.0204H18.979V46.3179C18.979 41.0885 14.7293 36.8471 9.4895 36.8471C4.24975 36.8471 0 41.0885 0 46.3179V92.4912C0 97.7207 4.24975 101.962 9.4895 101.962H55.1261C60.3658 101.962 64.6156 97.7207 64.6156 92.4912C64.6156 87.2618 60.3658 83.0204 55.1261 83.0204Z" fill="#1293F1"/>
<path d="M51.0696 60.4398C56.3105 60.4398 60.5591 56.1996 60.5591 50.969C60.5591 45.7384 56.3105 41.4982 51.0696 41.4982C45.8287 41.4982 41.5801 45.7384 41.5801 50.969C41.5801 56.1996 45.8287 60.4398 51.0696 60.4398Z" fill="#33CC99"/>
</svg>
