<svg width="543" height="102" viewBox="0 0 543 102" fill="none" xmlns="http://www.w3.org/2000/svg">
<path d="M162.599 78.078C161.44 76.9454 160.86 75.4513 160.86 73.5475V32.6759H147.749C143.765 32.6759 141.761 30.9408 141.761 27.4946C141.761 24.0485 143.765 22.4098 147.749 22.4098H186.6C190.585 22.4098 192.589 24.0967 192.589 27.4946C192.589 30.8926 190.585 32.6759 186.6 32.6759H173.489V73.5475C173.489 75.4272 172.934 76.9454 171.799 78.078C170.664 79.2107 169.119 79.765 167.187 79.765C165.255 79.765 163.782 79.2107 162.623 78.078H162.599Z" fill="#001139"/>
<path d="M218.135 40.0017C219.076 40.8451 219.559 42.0983 219.559 43.7611C219.559 45.5444 219.125 46.8698 218.255 47.7133C217.386 48.5809 215.865 49.111 213.643 49.3279L211.205 49.5689C208.235 49.8822 206.086 50.8702 204.758 52.4849C203.43 54.0995 202.778 56.172 202.778 58.7024V74.1256C202.778 76.0053 202.198 77.4271 201.039 78.4152C199.88 79.3791 198.431 79.8611 196.717 79.8611C195.003 79.8611 193.457 79.3791 192.298 78.4152C191.139 77.4512 190.56 76.0294 190.56 74.1256V44.4841C190.56 42.7007 191.163 41.3271 192.346 40.3632C193.53 39.3992 194.954 38.9172 196.644 38.9172C198.335 38.9172 199.614 39.3992 200.701 40.3391C201.788 41.2789 202.319 42.5803 202.319 44.2672V46.4602C203.285 44.1467 204.758 42.3634 206.738 41.1343C208.718 39.9053 210.842 39.2064 213.185 39.0377L214.32 38.9654C215.937 38.869 217.217 39.2305 218.159 40.0499L218.135 40.0017Z" fill="#001139"/>
<path d="M253.871 42.99C256.672 45.8096 258.073 50.1473 258.073 55.9552V74.2221C258.073 76.0054 257.565 77.379 256.527 78.3911C255.513 79.3792 254.064 79.8853 252.229 79.8853C250.491 79.8853 249.114 79.3551 248.052 78.3188C246.989 77.2585 246.482 75.909 246.482 74.2461V73.6919C245.661 75.6921 244.333 77.2585 242.426 78.367C240.542 79.4997 238.321 80.054 235.785 80.054C233.081 80.054 230.642 79.5238 228.469 78.4393C226.272 77.3549 224.557 75.8608 223.278 73.9088C221.998 71.9809 221.37 69.812 221.37 67.4503C221.37 64.5343 222.119 62.2449 223.592 60.5821C225.065 58.9193 227.455 57.6903 230.763 56.9432C234.047 56.1961 238.562 55.8106 244.285 55.8106H246.386V54.3646C246.386 52.0993 245.879 50.4606 244.889 49.4485C243.899 48.4363 242.233 47.9061 239.914 47.9061C237.596 47.9061 234.24 48.7255 229.87 50.3401C228.638 50.9426 227.576 51.2318 226.706 51.2318C225.523 51.2318 224.582 50.8221 223.881 49.9786C223.181 49.1352 222.819 48.0507 222.819 46.7012C222.819 45.6168 223.06 44.7251 223.543 44.0262C224.026 43.3274 224.799 42.6767 225.885 42.0983C227.769 41.0862 230.087 40.2668 232.815 39.6644C235.544 39.0619 238.224 38.7727 240.88 38.7727C246.7 38.7727 251.022 40.1945 253.823 43.0141L253.871 42.99ZM244.237 69.2336C245.685 67.6431 246.434 65.5947 246.434 63.0643V61.6907H245.058C240.687 61.6907 237.621 62.0521 235.882 62.751C234.119 63.4499 233.25 64.7271 233.25 66.5586C233.25 68.0769 233.757 69.2818 234.747 70.2457C235.737 71.1856 236.993 71.6676 238.514 71.6676C240.88 71.6676 242.812 70.8723 244.261 69.2818L244.237 69.2336Z" fill="#001139"/>
<path d="M305.714 23.5664C306.873 24.5786 307.453 25.9281 307.453 27.615V74.1498C307.453 75.8849 306.898 77.2586 305.787 78.3189C304.676 79.3793 303.203 79.8853 301.368 79.8853C299.533 79.8853 298.06 79.3552 296.949 78.3189C295.839 77.2586 295.283 75.8849 295.283 74.1498V73.4991C294.1 75.5475 292.41 77.1381 290.212 78.2948C288.015 79.4516 285.552 80.0299 282.799 80.0299C279.395 80.0299 276.352 79.1624 273.696 77.4032C271.016 75.6439 268.94 73.21 267.467 70.053C265.97 66.8961 265.245 63.2813 265.245 59.1845C265.245 55.0877 265.994 51.4969 267.467 48.3882C268.94 45.3035 271.016 42.9178 273.648 41.2308C276.28 39.568 279.347 38.7246 282.799 38.7246C285.504 38.7246 287.943 39.2788 290.116 40.4115C292.313 41.5441 293.979 43.1347 295.187 45.1831V27.3258C295.187 25.7112 295.718 24.4099 296.804 23.4459C297.891 22.482 299.316 22 301.102 22C302.986 22 304.507 22.5061 305.666 23.5423L305.714 23.5664ZM293.013 67.7877C294.559 65.8116 295.331 63.0162 295.331 59.3531C295.331 55.6901 294.559 52.8947 293.013 50.9427C291.468 49.0148 289.271 48.0267 286.421 48.0267C283.572 48.0267 281.351 48.9907 279.781 50.8945C278.212 52.7983 277.439 55.5696 277.439 59.1845C277.439 62.7993 278.212 65.6911 279.781 67.7154C281.351 69.7397 283.548 70.7519 286.421 70.7519C289.295 70.7519 291.492 69.7638 293.013 67.8118V67.7877Z" fill="#001139"/>
<path d="M351.374 68.8722C352.05 69.7397 352.388 70.8483 352.388 72.1737C352.388 73.0895 352.122 73.9329 351.567 74.7282C351.036 75.4993 350.263 76.1741 349.297 76.7043C347.462 77.6682 345.337 78.4635 342.898 79.0901C340.46 79.7166 338.238 80.0299 336.186 80.0299C331.864 80.0299 328.097 79.1865 324.885 77.5236C321.674 75.8608 319.211 73.475 317.472 70.3663C315.734 67.2816 314.889 63.6186 314.889 59.4254C314.889 55.2322 315.734 51.8102 317.4 48.6774C319.066 45.5445 321.384 43.1105 324.354 41.3754C327.324 39.6162 330.705 38.7487 334.471 38.7487C338.238 38.7487 341.256 39.5439 343.985 41.1344C346.714 42.725 348.838 44.9902 350.335 47.9303C351.857 50.8704 352.605 54.2924 352.605 58.2205C352.605 59.4013 352.315 60.3171 351.76 60.9196C351.205 61.5461 350.408 61.8594 349.37 61.8594H326.696C327.083 65.0405 328.048 67.3298 329.618 68.7758C331.187 70.1976 333.433 70.9206 336.331 70.9206C337.9 70.9206 339.301 70.7278 340.532 70.3663C341.764 69.9807 343.14 69.4746 344.661 68.824C345.41 68.5107 346.134 68.2215 346.858 67.9805C347.559 67.7395 348.186 67.619 348.718 67.619C349.804 67.619 350.674 68.0528 351.35 68.9204L351.374 68.8722ZM329.232 49.3762C327.831 50.8704 326.986 52.991 326.72 55.8106H342.343C342.174 52.9669 341.474 50.7981 340.194 49.3521C338.914 47.9062 337.127 47.1591 334.809 47.1591C332.491 47.1591 330.632 47.9062 329.232 49.3762Z" fill="#001139"/>
<path d="M363.23 78.8491C362.627 78.2226 362.337 77.4032 362.337 76.3911V25.6631C362.337 24.6991 362.651 23.9039 363.279 23.3255C363.906 22.723 364.727 22.4338 365.742 22.4338H384.938C390.926 22.4338 395.586 23.8798 398.894 26.7957C402.202 29.7117 403.869 33.8326 403.869 39.1584C403.869 44.4842 402.202 48.6292 398.846 51.5934C395.49 54.5575 390.854 56.0276 384.914 56.0276H368.977V76.3911C368.977 77.4032 368.687 78.2467 368.084 78.8491C367.48 79.4757 366.683 79.789 365.645 79.789C364.607 79.789 363.81 79.4757 363.206 78.8491H363.23ZM384.262 50.533C392.954 50.533 397.301 46.7254 397.301 39.1343C397.301 31.5432 392.954 27.9043 384.262 27.9043H368.953V50.533H384.262Z" fill="#001139"/>
<path d="M418.79 77.4513C415.965 75.7885 413.768 73.4027 412.222 70.294C410.677 67.2093 409.904 63.5945 409.904 59.4977C409.904 55.4009 410.677 51.8102 412.222 48.7015C413.768 45.6168 415.941 43.231 418.79 41.5441C421.615 39.8813 424.899 39.0378 428.618 39.0378C432.336 39.0378 435.644 39.8813 438.494 41.5441C441.343 43.2069 443.564 45.5927 445.086 48.7015C446.631 51.8102 447.404 55.4009 447.404 59.4977C447.404 63.5945 446.631 67.1852 445.086 70.294C443.54 73.4027 441.343 75.7644 438.494 77.4513C435.644 79.1142 432.336 79.9576 428.618 79.9576C424.899 79.9576 421.615 79.1142 418.79 77.4513ZM437.576 70.7037C439.653 68.1492 440.691 64.4139 440.691 59.5218C440.691 54.6298 439.628 51.0149 437.528 48.4123C435.427 45.8096 432.457 44.4842 428.618 44.4842C424.778 44.4842 421.808 45.7855 419.708 48.4123C417.607 51.0149 416.545 54.7262 416.545 59.5218C416.545 64.3175 417.583 68.0769 419.659 70.6796C421.736 73.2581 424.73 74.5595 428.594 74.5595C432.457 74.5595 435.451 73.2822 437.528 70.7278L437.576 70.7037Z" fill="#001139"/>
<path d="M457.376 29.6152C456.555 28.8682 456.169 27.856 456.169 26.627C456.169 25.3979 456.579 24.4822 457.376 23.711C458.197 22.964 459.236 22.5784 460.539 22.5784C461.843 22.5784 462.882 22.964 463.703 23.711C464.524 24.4581 464.91 25.4461 464.91 26.627C464.91 27.8078 464.499 28.8682 463.703 29.6152C462.882 30.3623 461.843 30.7479 460.539 30.7479C459.236 30.7479 458.197 30.3623 457.376 29.6152ZM458.125 78.9455C457.497 78.3912 457.183 77.5959 457.183 76.5597V42.4599C457.183 41.4477 457.497 40.6525 458.125 40.0741C458.753 39.5198 459.549 39.2306 460.515 39.2306C461.481 39.2306 462.278 39.5198 462.857 40.0741C463.461 40.6284 463.751 41.4236 463.751 42.4599V76.5597C463.751 77.6441 463.461 78.4394 462.857 78.9937C462.254 79.5239 461.481 79.813 460.515 79.813C459.549 79.813 458.753 79.5238 458.125 78.9696V78.9455Z" fill="#001139"/>
<path d="M509.993 54.6539V76.5356C509.993 77.5478 509.703 78.343 509.148 78.9214C508.592 79.4757 507.796 79.7649 506.757 79.7649C505.719 79.7649 504.922 79.4757 504.319 78.9214C503.715 78.3671 503.425 77.5719 503.425 76.5356V55.0395C503.425 51.3765 502.701 48.7015 501.276 47.0387C499.851 45.3759 497.558 44.5324 494.443 44.5324C490.821 44.5324 487.947 45.641 485.774 47.834C483.625 50.0511 482.539 53.0393 482.539 56.7987V76.5115C482.539 77.5237 482.249 78.3189 481.693 78.8973C481.138 79.4757 480.341 79.7408 479.303 79.7408C478.265 79.7408 477.468 79.4516 476.864 78.8973C476.26 78.343 475.971 77.5478 475.971 76.5115V42.4117C475.971 41.4478 476.26 40.6525 476.864 40.0741C477.468 39.4717 478.265 39.1825 479.303 39.1825C480.269 39.1825 481.041 39.4717 481.621 40.0741C482.176 40.6766 482.466 41.4237 482.466 42.3394V46.4603C483.77 44.0263 485.557 42.1948 487.899 40.9176C490.217 39.6645 492.873 39.0138 495.843 39.0138C505.284 39.0138 510.017 44.2191 510.017 54.6057L509.993 54.6539Z" fill="#001139"/>
<path d="M543 77.2103C543 78.126 542.662 78.8249 541.986 79.2587C541.31 79.7165 540.295 79.8852 538.943 79.7888L536.746 79.6201C532.424 79.3068 529.236 78.0055 527.184 75.7402C525.131 73.4749 524.117 70.0529 524.117 65.4741V45.207H518.684C517.767 45.207 517.042 44.9901 516.535 44.5323C516.028 44.0744 515.763 43.4719 515.763 42.7249C515.763 41.9055 516.028 41.2789 516.535 40.797C517.042 40.315 517.767 40.074 518.684 40.074H524.117V30.9405C524.117 29.9284 524.407 29.1331 525.011 28.5548C525.614 28.0005 526.411 27.7113 527.45 27.7113C528.415 27.7113 529.212 28.0005 529.792 28.5548C530.395 29.109 530.685 29.9043 530.685 30.9405V40.074H539.668C540.537 40.074 541.213 40.315 541.72 40.797C542.227 41.2789 542.493 41.9296 542.493 42.7249C542.493 43.4719 542.227 44.0744 541.72 44.5323C541.213 44.9901 540.513 45.207 539.668 45.207H530.685V65.8115C530.685 68.7757 531.289 70.9205 532.496 72.2459C533.703 73.5713 535.539 74.2943 537.953 74.463L540.15 74.6317C542.034 74.8004 542.976 75.6438 542.976 77.2103H543Z" fill="#001139"/>
<path d="M92.6739 0H47.0374C41.7976 0 37.5479 4.24139 37.5479 9.47083C37.5479 14.7003 41.7976 18.9417 47.0374 18.9417H83.1844V55.6441C83.1844 60.8736 87.4342 65.115 92.6739 65.115C97.9137 65.115 102.163 60.8736 102.163 55.6441V9.47083C102.163 4.24139 97.9137 0 92.6739 0Z" fill="#1293F1"/>
<path d="M55.1261 83.0205H18.979V46.318C18.979 41.0885 14.7293 36.8472 9.4895 36.8472C4.24975 36.8472 0 41.0885 0 46.318V92.4913C0 97.7207 4.24975 101.962 9.4895 101.962H55.1261C60.3658 101.962 64.6156 97.7207 64.6156 92.4913C64.6156 87.2619 60.3658 83.0205 55.1261 83.0205Z" fill="#1293F1"/>
<path d="M51.0696 60.4398C56.3105 60.4398 60.5591 56.1996 60.5591 50.969C60.5591 45.7384 56.3105 41.4982 51.0696 41.4982C45.8287 41.4982 41.5801 45.7384 41.5801 50.969C41.5801 56.1996 45.8287 60.4398 51.0696 60.4398Z" fill="#33CC99"/>
</svg>
