<svg width="183" height="55" viewBox="0 0 183 55" fill="none" xmlns="http://www.w3.org/2000/svg">
<path d="M176.188 54.365H7.64035C3.86488 54.365 0.898438 51.3985 0.898438 47.6231V7.1716C0.898438 3.39613 3.86488 0.429688 7.64035 0.429688H176.188C179.964 0.429688 182.93 3.39613 182.93 7.1716V47.6231C182.93 51.3985 179.964 54.365 176.188 54.365Z" fill="black"/>
<path d="M176.188 1.50839C179.289 1.50839 181.851 4.07032 181.851 7.1716V47.6231C181.851 50.7243 179.289 53.2863 176.188 53.2863H7.64035C4.53907 53.2863 1.97714 50.7243 1.97714 47.6231V7.1716C1.97714 4.07032 4.53907 1.50839 7.64035 1.50839H176.188ZM176.188 0.429688H7.64035C3.86488 0.429688 0.898438 3.53097 0.898438 7.1716V47.6231C0.898438 51.3985 3.86488 54.365 7.64035 54.365H176.188C179.964 54.365 182.93 51.3985 182.93 47.6231V7.1716C182.93 3.53097 179.964 0.429688 176.188 0.429688Z" fill="#A6A6A6"/>
<path d="M64.812 14.1831C64.812 15.2618 64.5423 16.2056 63.8681 16.8798C63.0591 17.6889 62.1152 18.0934 60.9017 18.0934C59.6881 18.0934 58.7442 17.6889 57.9352 16.8798C57.1262 16.0708 56.7217 15.1269 56.7217 13.9134C56.7217 12.6998 57.1262 11.756 57.9352 10.9469C58.7442 10.1379 59.6881 9.7334 60.9017 9.7334C61.441 9.7334 61.9804 9.86824 62.5197 10.1379C63.0591 10.4076 63.4636 10.6773 63.7333 11.0818L63.0591 11.756C62.5197 11.0818 61.8455 10.8121 60.9017 10.8121C60.0926 10.8121 59.2836 11.0818 58.7443 11.756C58.0701 12.2953 57.8004 13.1044 57.8004 14.0482C57.8004 14.9921 58.0701 15.8011 58.7443 16.3405C59.4184 16.8798 60.0926 17.2843 60.9017 17.2843C61.8455 17.2843 62.5197 17.0147 63.1939 16.3405C63.5984 15.936 63.8681 15.3966 63.8681 14.7224H60.9017V13.6437H64.812V14.1831ZM71.0145 10.8121H67.3739V13.374H70.7448V14.3179H67.3739V16.8798H71.0145V17.9585H66.2952V9.86824H71.0145V10.8121ZM75.4642 17.9585H74.3855V10.8121H72.0932V9.86824H77.7564V10.8121H75.4642V17.9585ZM81.6667 17.9585V9.86824H82.7454V17.9585H81.6667ZM87.3299 17.9585H86.2512V10.8121H83.959V9.86824H89.4874V10.8121H87.1951V17.9585H87.3299ZM100.14 16.8798C99.3305 17.6889 98.3867 18.0934 97.1731 18.0934C95.9596 18.0934 95.0157 17.6889 94.2067 16.8798C93.3977 16.0708 92.9932 15.1269 92.9932 13.9134C92.9932 12.6998 93.3977 11.756 94.2067 10.9469C95.0157 10.1379 95.9596 9.7334 97.1731 9.7334C98.3867 9.7334 99.3305 10.1379 100.14 10.9469C100.949 11.756 101.353 12.6998 101.353 13.9134C101.353 15.1269 100.949 16.0708 100.14 16.8798ZM95.0157 16.2056C95.5551 16.745 96.3641 17.1495 97.1731 17.1495C97.9822 17.1495 98.7912 16.8798 99.3305 16.2056C99.8699 15.6663 100.274 14.8573 100.274 13.9134C100.274 12.9695 100.005 12.1605 99.3305 11.6211C98.7912 11.0818 97.9822 10.6773 97.1731 10.6773C96.3641 10.6773 95.5551 10.9469 95.0157 11.6211C94.4764 12.1605 94.0719 12.9695 94.0719 13.9134C94.0719 14.8573 94.3415 15.6663 95.0157 16.2056ZM102.836 17.9585V9.86824H104.05L107.96 16.2056V9.86824H109.039V17.9585H107.96L103.78 11.3515V17.9585H102.836Z" fill="white" stroke="white" stroke-width="0.269676" stroke-miterlimit="10"/>
<path d="M92.7237 29.8245C89.4876 29.8245 86.9257 32.2515 86.9257 35.6225C86.9257 38.8586 89.4876 41.4205 92.7237 41.4205C95.9598 41.4205 98.5217 38.9935 98.5217 35.6225C98.5217 32.1167 95.9598 29.8245 92.7237 29.8245ZM92.7237 38.9935C90.9708 38.9935 89.4876 37.5102 89.4876 35.4877C89.4876 33.4651 90.9708 31.9819 92.7237 31.9819C94.4766 31.9819 95.9598 33.3302 95.9598 35.4877C95.9598 37.5102 94.4766 38.9935 92.7237 38.9935ZM80.1837 29.8245C76.9476 29.8245 74.3857 32.2515 74.3857 35.6225C74.3857 38.8586 76.9476 41.4205 80.1837 41.4205C83.4199 41.4205 85.9818 38.9935 85.9818 35.6225C85.9818 32.1167 83.4199 29.8245 80.1837 29.8245ZM80.1837 38.9935C78.4309 38.9935 76.9476 37.5102 76.9476 35.4877C76.9476 33.4651 78.4309 31.9819 80.1837 31.9819C81.9366 31.9819 83.4199 33.3302 83.4199 35.4877C83.4199 37.5102 81.9366 38.9935 80.1837 38.9935ZM65.2167 31.5774V34.0044H71.0147C70.8799 35.3528 70.3406 36.4315 69.6664 37.1057C68.8573 37.9147 67.509 38.8586 65.2167 38.8586C61.5761 38.8586 58.8793 36.027 58.8793 32.3864C58.8793 28.7458 61.7109 25.9141 65.2167 25.9141C67.1044 25.9141 68.5877 26.7232 69.6664 27.667L71.4193 25.9141C69.936 24.5658 68.0483 23.4871 65.3515 23.4871C60.4974 23.4871 56.3174 27.5322 56.3174 32.3864C56.3174 37.2406 60.4974 41.2857 65.3515 41.2857C68.0483 41.2857 69.936 40.4767 71.5541 38.7238C73.1722 37.1057 73.7115 34.8135 73.7115 33.0606C73.7115 32.5212 73.7115 31.9819 73.5767 31.5774H65.2167ZM126.433 33.4651C125.894 32.1167 124.546 29.8245 121.579 29.8245C118.613 29.8245 116.186 32.1167 116.186 35.6225C116.186 38.8586 118.613 41.4205 121.849 41.4205C124.411 41.4205 126.029 39.8025 126.568 38.8586L124.68 37.5102C124.006 38.4541 123.197 39.1283 121.849 39.1283C120.5 39.1283 119.691 38.5889 119.017 37.3754L126.703 34.1393L126.433 33.4651ZM118.613 35.3528C118.613 33.1954 120.366 31.9819 121.579 31.9819C122.523 31.9819 123.467 32.5212 123.736 33.1954L118.613 35.3528ZM112.275 40.8812H114.837V24.0264H112.275V40.8812ZM108.23 31.038C107.556 30.3638 106.477 29.6896 105.129 29.6896C102.297 29.6896 99.6004 32.2515 99.6004 35.4877C99.6004 38.7238 102.162 41.1509 105.129 41.1509C106.477 41.1509 107.556 40.4767 108.095 39.8025H108.23V40.6115C108.23 42.7689 107.017 43.9825 105.129 43.9825C103.646 43.9825 102.567 42.9038 102.297 41.9599L100.14 42.9038C100.814 44.387 102.432 46.2747 105.264 46.2747C108.23 46.2747 110.657 44.5218 110.657 40.3418V30.0941H108.23V31.038ZM105.264 38.9935C103.511 38.9935 102.028 37.5102 102.028 35.4877C102.028 33.4651 103.511 31.9819 105.264 31.9819C107.017 31.9819 108.365 33.4651 108.365 35.4877C108.365 37.5102 107.017 38.9935 105.264 38.9935ZM138.164 24.0264H132.096V40.8812H134.658V34.5438H138.164C140.996 34.5438 143.693 32.5212 143.693 29.2851C143.693 26.049 140.996 24.0264 138.164 24.0264ZM138.299 32.1167H134.658V26.3187H138.299C140.187 26.3187 141.265 27.9367 141.265 29.1503C141.131 30.6335 140.052 32.1167 138.299 32.1167ZM153.805 29.6896C151.918 29.6896 150.03 30.4986 149.356 32.2515L151.648 33.1954C152.187 32.2515 152.996 31.9819 153.94 31.9819C155.289 31.9819 156.502 32.7909 156.637 34.1393V34.2741C156.232 34.0044 155.154 33.5999 154.075 33.5999C151.648 33.5999 149.221 34.9483 149.221 37.3754C149.221 39.6676 151.243 41.1509 153.401 41.1509C155.154 41.1509 155.963 40.3418 156.637 39.5328H156.772V40.8812H159.199V34.409C158.929 31.4425 156.637 29.6896 153.805 29.6896ZM153.536 38.9935C152.727 38.9935 151.513 38.5889 151.513 37.5102C151.513 36.1619 152.996 35.7573 154.21 35.7573C155.289 35.7573 155.828 36.027 156.502 36.2967C156.232 37.9147 154.884 38.9935 153.536 38.9935ZM167.694 30.0941L164.862 37.3754H164.727L161.761 30.0941H159.064L163.514 40.3418L160.952 46.005H163.514L170.391 30.0941H167.694ZM145.041 40.8812H147.603V24.0264H145.041V40.8812Z" fill="white"/>
<path d="M14.9222 10.5427C14.5177 10.9472 14.3828 11.6214 14.3828 12.4305V42.2297C14.3828 43.0387 14.6525 43.7129 15.057 44.1174L15.1918 44.2523L31.9118 27.5323V27.2627L14.9222 10.5427Z" fill="url(#paint0_linear_142_1165)"/>
<path d="M37.3047 33.1959L31.7764 27.6675V27.263L37.3047 21.7346L37.4396 21.8695L44.0466 25.6449C45.9344 26.7236 45.9344 28.4765 44.0466 29.5552L37.3047 33.1959Z" fill="url(#paint1_linear_142_1165)"/>
<path d="M37.4399 33.0609L31.7766 27.3977L14.9219 44.2525C15.5961 44.9267 16.5399 44.9267 17.7535 44.3873L37.4399 33.0609Z" fill="url(#paint2_linear_142_1165)"/>
<path d="M37.4399 21.7344L17.7535 10.5429C16.5399 9.86867 15.5961 10.0035 14.9219 10.6777L31.7766 27.3976L37.4399 21.7344Z" fill="url(#paint3_linear_142_1165)"/>
<path opacity="0.2" d="M37.305 32.9258L17.7535 43.9825C16.6748 44.6567 15.7309 44.5219 15.0567 43.9825L14.9219 44.1174L15.0567 44.2522C15.7309 44.7915 16.6748 44.9264 17.7535 44.2522L37.305 32.9258Z" fill="black"/>
<path opacity="0.12" d="M14.9222 43.9828C14.5177 43.5783 14.3828 42.9041 14.3828 42.0951V42.2299C14.3828 43.0389 14.6525 43.7131 15.057 44.1176V43.9828H14.9222ZM44.0472 29.1506L37.3053 32.9261L37.4401 33.0609L44.0472 29.2854C44.9911 28.7461 45.3956 28.0719 45.3956 27.3977C45.3956 28.0719 44.8562 28.6112 44.0472 29.1506Z" fill="black"/>
<path opacity="0.25" d="M17.7538 10.6777L44.0472 25.6447C44.8562 26.1841 45.3956 26.7234 45.3956 27.3976C45.3956 26.7234 44.9911 26.0493 44.0472 25.5099L17.7538 10.5429C15.866 9.46416 14.3828 10.2732 14.3828 12.4306V12.5654C14.3828 10.5429 15.866 9.59899 17.7538 10.6777Z" fill="white"/>
<defs>
<linearGradient id="paint0_linear_142_1165" x1="30.2937" y1="12.1743" x2="7.66382" y2="34.8028" gradientUnits="userSpaceOnUse">
<stop stop-color="#00A0FF"/>
<stop offset="0.007" stop-color="#00A1FF"/>
<stop offset="0.26" stop-color="#00BEFF"/>
<stop offset="0.512" stop-color="#00D2FF"/>
<stop offset="0.76" stop-color="#00DFFF"/>
<stop offset="1" stop-color="#00E3FF"/>
</linearGradient>
<linearGradient id="paint1_linear_142_1165" x1="46.5196" y1="27.3992" x2="13.8928" y2="27.3992" gradientUnits="userSpaceOnUse">
<stop stop-color="#FFE000"/>
<stop offset="0.409" stop-color="#FFBD00"/>
<stop offset="0.775" stop-color="#FFA500"/>
<stop offset="1" stop-color="#FF9C00"/>
</linearGradient>
<linearGradient id="paint2_linear_142_1165" x1="34.375" y1="30.4936" x2="3.68851" y2="61.1801" gradientUnits="userSpaceOnUse">
<stop stop-color="#FF3A44"/>
<stop offset="1" stop-color="#C31162"/>
</linearGradient>
<linearGradient id="paint3_linear_142_1165" x1="10.7378" y1="0.667307" x2="24.4415" y2="14.3709" gradientUnits="userSpaceOnUse">
<stop stop-color="#32A071"/>
<stop offset="0.069" stop-color="#2DA771"/>
<stop offset="0.476" stop-color="#15CF74"/>
<stop offset="0.801" stop-color="#06E775"/>
<stop offset="1" stop-color="#00F076"/>
</linearGradient>
</defs>
</svg>
