<svg width="183" height="55" viewBox="0 0 183 55" fill="none" xmlns="http://www.w3.org/2000/svg">
<path d="M181.792 48.5253C181.792 49.2043 181.658 49.8767 181.398 50.5039C181.138 51.1312 180.757 51.701 180.277 52.1809C179.796 52.6608 179.226 53.0413 178.598 53.3006C177.97 53.56 177.298 53.6931 176.618 53.6924H7.30171C5.92939 53.6938 4.61269 53.1503 3.64117 52.1813C2.66966 51.2123 2.12288 49.8973 2.12109 48.5253V7.31935C2.12288 5.94678 2.66944 4.63101 3.64076 3.66096C4.61208 2.69091 5.92877 2.14586 7.30171 2.14551H176.617C177.297 2.14551 177.969 2.27934 178.597 2.53937C179.225 2.7994 179.796 3.18052 180.276 3.66097C180.756 4.14143 181.137 4.7118 181.397 5.33951C181.657 5.96722 181.791 6.63998 181.791 7.31935L181.792 48.5253Z" fill="white"/>
<path d="M176.618 54.8947H7.30157C5.61103 54.8944 3.98967 54.2236 2.79327 53.0295C1.59687 51.8354 0.923139 50.2157 0.919922 48.5256L0.919922 7.32097C0.922423 5.63005 1.5957 4.00915 2.79207 2.81386C3.98843 1.61857 5.61019 0.946496 7.30157 0.945068L176.617 0.945068C178.308 0.947208 179.929 1.61951 181.126 2.81465C182.322 4.00978 182.995 5.63026 182.999 7.32097V48.5256C183.001 52.0387 180.134 54.8947 176.618 54.8947Z" fill="#A6A6A6"/>
<path d="M181.792 48.5253C181.792 49.2043 181.658 49.8767 181.398 50.5039C181.138 51.1312 180.757 51.701 180.277 52.1809C179.796 52.6608 179.226 53.0413 178.598 53.3006C177.97 53.56 177.298 53.6931 176.618 53.6924H7.30171C5.92939 53.6938 4.61269 53.1503 3.64117 52.1813C2.66966 51.2123 2.12288 49.8973 2.12109 48.5253V7.31935C2.12288 5.94678 2.66944 4.63101 3.64076 3.66096C4.61208 2.69091 5.92877 2.14586 7.30171 2.14551H176.617C177.297 2.14551 177.969 2.27934 178.597 2.53937C179.225 2.7994 179.796 3.18052 180.276 3.66097C180.756 4.14143 181.137 4.7118 181.397 5.33951C181.657 5.96722 181.791 6.63998 181.791 7.31935L181.792 48.5253Z" fill="black"/>
<path d="M41.5772 27.6357C41.538 23.2875 45.1384 21.1721 45.303 21.0736C43.264 18.1015 40.1035 17.6954 38.9929 17.663C36.3385 17.3838 33.7637 19.251 32.4116 19.251C31.0324 19.251 28.9502 17.69 26.706 17.7359C23.8181 17.7804 21.1165 19.452 19.6348 22.0477C16.5769 27.3402 18.8575 35.1179 21.7872 39.3959C23.2527 41.4924 24.9652 43.8304 27.2067 43.7481C29.3995 43.6591 30.2187 42.3518 32.865 42.3518C35.487 42.3518 36.2562 43.7481 38.5422 43.6955C40.8957 43.6591 42.3774 41.5909 43.7916 39.4769C45.4852 37.0768 46.1654 34.7104 46.1923 34.589C46.1384 34.5701 41.623 32.846 41.5772 27.6357ZM37.2589 14.8488C38.4383 13.3742 39.2453 11.3681 39.0213 9.33228C37.3142 9.40783 35.1793 10.5127 33.95 11.955C32.8623 13.2258 31.8907 15.3088 32.1417 17.2678C34.0593 17.4108 36.0281 16.3004 37.2589 14.8488Z" fill="white"/>
<path d="M176.618 0.945068H85.9268L121.449 54.8947H176.618C178.309 54.8933 179.93 54.2216 181.126 53.0269C182.323 51.8322 182.996 50.212 183 48.5215V7.32097C182.997 5.63016 182.323 4.00947 181.127 2.81425C179.931 1.61904 178.309 0.946852 176.618 0.945068Z" fill="url(#paint0_linear_142_1153)"/>
<path d="M73.339 43.4475H70.2744L68.5956 38.1739H62.7605L61.1614 43.4475H58.1777L63.9602 25.4936H67.5309L73.339 43.4475ZM68.0896 35.9613L66.5714 31.2732C66.4109 30.7942 66.1086 29.6664 65.6659 27.8909H65.612C65.4338 28.6545 65.1491 29.7824 64.7591 31.2732L63.2666 35.9613H68.0896ZM88.1805 36.8153C88.1805 39.0171 87.5827 40.7574 86.3857 42.035C85.3142 43.1723 83.9823 43.7403 82.394 43.7403C80.6788 43.7403 79.4454 43.1292 78.6964 41.9042V48.6969H75.8194V34.7566C75.8194 33.3737 75.7829 31.9558 75.7127 30.5015H78.243L78.4036 32.5535H78.4576C79.417 31.0074 80.8731 30.2343 82.8272 30.2343C84.3548 30.2343 85.63 30.8374 86.6502 32.0448C87.6691 33.255 88.1805 34.8443 88.1805 36.8153ZM85.2495 36.9205C85.2495 35.6605 84.9661 34.6217 84.3966 33.8027C83.7745 32.9515 82.9392 32.5251 81.892 32.5251C81.1821 32.5251 80.5371 32.7626 79.9609 33.2307C79.3833 33.7029 79.0055 34.3195 78.8287 35.0831C78.7498 35.3686 78.7049 35.6625 78.6951 35.9586V38.1186C78.6951 39.0589 78.9839 39.8535 79.5614 40.5038C80.139 41.1514 80.8893 41.4765 81.8124 41.4765C82.896 41.4765 83.7394 41.0569 84.3426 40.2245C84.9472 39.3894 85.2495 38.2885 85.2495 36.9205ZM103.075 36.8153C103.075 39.0171 102.477 40.7574 101.28 42.035C100.207 43.1723 98.8764 43.7403 97.2867 43.7403C95.5716 43.7403 94.3381 43.1292 93.5892 41.9042V48.6969H90.7121V34.7566C90.7121 33.3737 90.6757 31.9558 90.6055 30.5015H93.1358L93.2963 32.5535H93.3503C94.3084 31.0074 95.7645 30.2343 97.7199 30.2343C99.2462 30.2343 100.521 30.8374 101.544 32.0448C102.562 33.255 103.075 34.8443 103.075 36.8153ZM100.142 36.9205C100.142 35.6605 99.8575 34.6217 99.288 33.8027C98.6659 32.9515 97.8333 32.5251 96.7861 32.5251C96.0763 32.5251 95.4312 32.7626 94.8523 33.2307C94.2747 33.7029 93.8982 34.3195 93.7214 35.0831C93.6337 35.4392 93.5865 35.7293 93.5865 35.9586V38.1186C93.5865 39.0589 93.8766 39.8535 94.4515 40.5038C95.0291 41.15 95.7794 41.4765 96.7051 41.4765C97.7901 41.4765 98.6335 41.0569 99.2354 40.2245C99.8399 39.3894 100.142 38.2885 100.142 36.9205ZM119.727 38.4113C119.727 39.9399 119.193 41.1824 118.131 42.1416C116.962 43.1885 115.33 43.7133 113.239 43.7133C111.306 43.7133 109.757 43.341 108.589 42.5949L109.254 40.1975C110.516 40.9449 111.901 41.3173 113.41 41.3173C114.495 41.3173 115.339 41.0718 115.94 40.5847C116.544 40.0964 116.849 39.4434 116.849 38.6285C116.849 37.8986 116.596 37.2875 116.101 36.7897C115.603 36.2932 114.78 35.8305 113.623 35.4055C110.479 34.2331 108.906 32.5184 108.906 30.2627C108.906 28.7894 109.462 27.5833 110.571 26.6403C111.68 25.6986 113.151 25.2278 114.981 25.2278C116.615 25.2278 117.977 25.5124 119.058 26.0804L118.336 28.4252C117.318 27.8747 116.17 27.5995 114.885 27.5995C113.87 27.5995 113.074 27.8491 112.505 28.3456C112.026 28.7894 111.783 29.3304 111.783 29.9726C111.783 30.6809 112.059 31.2691 112.61 31.7305C113.088 32.1555 113.959 32.6182 115.22 33.1147C116.766 33.738 117.903 34.4638 118.63 35.2976C119.363 36.1313 119.727 37.1715 119.727 38.4113ZM129.264 32.66H126.093V38.9456C126.093 40.5443 126.651 41.3416 127.771 41.3416C128.285 41.3416 128.712 41.2984 129.049 41.208L129.129 43.3922C128.562 43.604 127.816 43.7106 126.891 43.7106C125.755 43.7106 124.867 43.3639 124.226 42.6705C123.588 41.977 123.267 40.8154 123.267 39.1803V32.6546H121.377V30.4961H123.267V28.1257L126.093 27.273V30.4961H129.264V32.66ZM143.544 36.8679C143.544 38.8579 142.974 40.4916 141.838 41.7693C140.649 43.0846 139.068 43.7403 137.096 43.7403C135.193 43.7403 133.681 43.1103 132.552 41.8515C131.424 40.5901 130.86 39.0009 130.86 37.0838C130.86 35.0777 131.443 33.4344 132.605 32.1568C133.77 30.8779 135.338 30.2384 137.309 30.2384C139.209 30.2384 140.736 30.8698 141.891 32.1298C142.995 33.3521 143.544 34.9306 143.544 36.8679ZM140.562 36.934C140.562 35.7482 140.305 34.7309 139.791 33.8796C139.188 32.8516 138.324 32.3376 137.205 32.3376C136.053 32.3376 135.169 32.8516 134.567 33.8796C134.052 34.7309 133.795 35.7657 133.795 36.988C133.795 38.1752 134.052 39.1951 134.567 40.0437C135.189 41.0718 136.057 41.5858 137.181 41.5858C138.281 41.5858 139.143 41.061 139.767 40.0181C140.296 39.1466 140.562 38.1226 140.562 36.934ZM152.9 33.0311C152.601 32.977 152.297 32.9504 151.993 32.9515C150.981 32.9515 150.198 33.3319 149.648 34.0982C149.17 34.7728 148.93 35.6254 148.93 36.6548V43.4475H146.053V34.5785C146.055 33.2195 146.027 31.8606 145.969 30.5028H148.475L148.58 32.9798H148.66C148.965 32.1285 149.442 31.4418 150.098 30.9278C150.699 30.4786 151.428 30.2354 152.178 30.2343C152.444 30.2343 152.684 30.2532 152.897 30.287L152.9 33.0311ZM165.767 36.362C165.774 36.7993 165.739 37.2362 165.662 37.6666H157.03C157.063 38.9456 157.481 39.925 158.283 40.5996C159.01 41.2013 159.951 41.5035 161.106 41.5035C162.384 41.5035 163.55 41.3011 164.598 40.8923L165.049 42.8877C163.824 43.4219 162.377 43.6877 160.708 43.6877C158.7 43.6877 157.124 43.0968 155.977 41.9177C154.832 40.7372 154.259 39.1506 154.259 37.1634C154.259 35.2126 154.792 33.5869 155.859 32.2904C156.976 30.9062 158.487 30.2141 160.387 30.2141C162.253 30.2141 163.666 30.9062 164.625 32.2904C165.385 33.3872 165.767 34.7471 165.767 36.362ZM163.023 35.6159C163.044 34.762 162.855 34.0267 162.465 33.4048C161.967 32.6034 161.2 32.204 160.173 32.204C159.233 32.204 158.466 32.5939 157.883 33.3764C157.404 33.9984 157.12 34.7458 157.032 35.6133L163.023 35.6159Z" fill="white"/>
<path d="M61.931 19.1458C61.1308 19.1458 60.4385 19.1067 59.8623 19.0406V10.3604C60.6682 10.2359 61.4826 10.1746 62.2981 10.1769C65.5976 10.1769 67.1171 11.7999 67.1171 14.4455C67.1171 17.4972 65.3223 19.1458 61.931 19.1458ZM62.4142 11.2899C61.9688 11.2899 61.5896 11.3169 61.2752 11.3816V17.9802C61.4452 18.0071 61.7718 18.0193 62.2306 18.0193C64.3925 18.0193 65.6232 16.7889 65.6232 14.4846C65.6232 12.4299 64.5099 11.2899 62.4142 11.2899ZM71.8523 19.2119C69.9928 19.2119 68.7877 17.8237 68.7877 15.9389C68.7877 13.9746 70.0184 12.5743 71.9576 12.5743C73.7902 12.5743 75.0222 13.8964 75.0222 15.8351C75.0222 17.8237 73.7524 19.2119 71.8523 19.2119ZM71.9063 13.6077C70.8848 13.6077 70.2303 14.5629 70.2303 15.8985C70.2303 17.2085 70.8983 18.1636 71.8928 18.1636C72.8874 18.1636 73.5554 17.1424 73.5554 15.8715C73.5554 14.5763 72.9009 13.6077 71.9063 13.6077ZM85.6264 12.7051L83.6359 19.0675H82.3391L81.5145 16.3046C81.3095 15.6287 81.1388 14.9429 81.0031 14.2499H80.9761C80.8722 14.9433 80.6752 15.6381 80.466 16.3046L79.5889 19.0675H78.2785L76.4055 12.7051H77.8588L78.5795 15.7298C78.7495 16.4503 78.8925 17.1302 79.0113 17.7724H79.0383C79.1422 17.2368 79.3122 16.5676 79.5619 15.7433L80.466 12.7065H81.6185L82.4835 15.6786C82.6926 16.399 82.8627 17.1059 82.9949 17.7737H83.0327C83.1245 17.1194 83.2689 16.4246 83.4645 15.6786L84.2378 12.7065L85.6264 12.7051ZM92.954 19.0675H91.5398V15.4141C91.5398 14.289 91.1079 13.7251 90.2564 13.7251C89.4184 13.7251 88.8422 14.4455 88.8422 15.2833V19.0675H87.4279V14.5237C87.4279 13.9611 87.4144 13.3581 87.3753 12.7038H88.6195L88.6856 13.6859H88.7248C89.1053 13.006 89.8772 12.5743 90.7422 12.5743C92.0782 12.5743 92.9553 13.5955 92.9553 15.2576L92.954 19.0675ZM96.854 19.0675H95.4384V9.78564H96.854V19.0675ZM102.01 19.2119C100.152 19.2119 98.9456 17.8237 98.9456 15.9389C98.9456 13.9746 100.176 12.5743 102.114 12.5743C103.948 12.5743 105.179 13.8964 105.179 15.8351C105.18 17.8237 103.909 19.2119 102.01 19.2119ZM102.063 13.6077C101.041 13.6077 100.387 14.5629 100.387 15.8985C100.387 17.2085 101.056 18.1636 102.048 18.1636C103.044 18.1636 103.711 17.1424 103.711 15.8715C103.712 14.5763 103.059 13.6077 102.063 13.6077ZM110.755 19.0675L110.652 18.335H110.615C110.183 18.9245 109.552 19.2119 108.754 19.2119C107.613 19.2119 106.804 18.4132 106.804 17.3393C106.804 15.769 108.165 14.9568 110.523 14.9568V14.8394C110.523 14.0016 110.079 13.582 109.202 13.582C108.574 13.582 108.024 13.7399 107.539 14.0542L107.252 13.1247C107.84 12.7577 108.574 12.5743 109.436 12.5743C111.099 12.5743 111.938 13.4512 111.938 15.2064V17.5498C111.938 18.192 111.967 18.6898 112.03 19.0689L110.755 19.0675ZM110.561 15.8985C108.99 15.8985 108.202 16.2789 108.202 17.1815C108.202 17.8493 108.608 18.1758 109.172 18.1758C109.891 18.1758 110.561 17.6267 110.561 16.8806V15.8985ZM118.806 19.0675L118.74 18.0463H118.701C118.294 18.818 117.612 19.2119 116.657 19.2119C115.123 19.2119 113.987 17.8628 113.987 15.9646C113.987 13.9746 115.165 12.5729 116.773 12.5729C117.625 12.5729 118.228 12.8603 118.568 13.4377H118.597V9.78564H120.012V17.3528C120.012 17.968 120.027 18.5441 120.065 19.0675H118.806ZM118.597 15.3238C118.597 14.4333 118.007 13.6738 117.107 13.6738C116.058 13.6738 115.417 14.6033 115.417 15.912C115.417 17.195 116.083 18.0732 117.078 18.0732C117.968 18.0732 118.597 17.3002 118.597 16.3842V15.3238ZM128.988 19.2119C127.129 19.2119 125.924 17.8237 125.924 15.9389C125.924 13.9746 127.155 12.5743 129.093 12.5743C130.927 12.5743 132.157 13.8964 132.157 15.8351C132.159 17.8237 130.889 19.2119 128.988 19.2119ZM129.04 13.6077C128.02 13.6077 127.365 14.5629 127.365 15.8985C127.365 17.2085 128.033 18.1636 129.027 18.1636C130.023 18.1636 130.689 17.1424 130.689 15.8715C130.692 14.5763 130.037 13.6077 129.04 13.6077ZM139.763 19.0675H138.347V15.4141C138.347 14.289 137.916 13.7251 137.064 13.7251C136.226 13.7251 135.651 14.4455 135.651 15.2833V19.0675H134.236V14.5237C134.236 13.9611 134.222 13.3581 134.183 12.7038H135.427L135.493 13.6859H135.532C135.912 13.006 136.685 12.5729 137.549 12.5729C138.885 12.5729 139.763 13.5942 139.763 15.2563V19.0675ZM149.278 13.7655H147.722V16.855C147.722 17.6415 147.995 18.0341 148.545 18.0341C148.795 18.0341 149.004 18.0071 149.173 17.968L149.212 19.0419C148.938 19.1471 148.571 19.1998 148.115 19.1998C147 19.1998 146.334 18.5846 146.334 16.9737V13.7655H145.405V12.7051H146.334V11.5395L147.722 11.1199V12.7038H149.278V13.7655ZM156.765 19.0675H155.352V15.4411C155.352 14.3025 154.922 13.7264 154.069 13.7264C153.336 13.7264 152.653 14.2242 152.653 15.232V19.0675H151.24V9.78564H152.653V13.6077H152.682C153.127 12.9142 153.772 12.5729 154.595 12.5729C155.942 12.5729 156.765 13.6198 156.765 15.2833V19.0675ZM164.435 16.2263H160.191C160.218 17.4311 161.016 18.111 162.197 18.111C162.824 18.111 163.402 18.0058 163.912 17.8102L164.132 18.7923C163.53 19.054 162.821 19.1849 161.997 19.1849C160.006 19.1849 158.828 17.9275 158.828 15.9781C158.828 14.0273 160.035 12.5608 161.838 12.5608C163.464 12.5608 164.484 13.7655 164.484 15.5855C164.493 15.8003 164.477 16.0154 164.435 16.2263ZM163.139 15.2185C163.139 14.2364 162.643 13.5429 161.739 13.5429C160.927 13.5429 160.284 14.2499 160.193 15.2185H163.139Z" fill="white"/>
<defs>
<linearGradient id="paint0_linear_142_1153" x1="134.462" y1="55.038" x2="134.462" y2="-139.531" gradientUnits="userSpaceOnUse">
<stop stop-color="#1A1A1A" stop-opacity="0.1"/>
<stop offset="0.123" stop-color="#212121" stop-opacity="0.151"/>
<stop offset="0.308" stop-color="#353535" stop-opacity="0.227"/>
<stop offset="0.532" stop-color="#575757" stop-opacity="0.318"/>
<stop offset="0.783" stop-color="#858585" stop-opacity="0.421"/>
<stop offset="1" stop-color="#B3B3B3" stop-opacity="0.51"/>
</linearGradient>
</defs>
</svg>
