<svg width="27" height="31" viewBox="0 0 27 31" fill="none" xmlns="http://www.w3.org/2000/svg">
<g clip-path="url(#clip0_28_113)">
<path d="M9.92915 13.6554C10.3223 14.8331 10.3469 16.179 9.92495 17.3527L17.8184 22.095C20.0403 18.8982 24.6874 19.3245 26.4015 22.8768C28.4817 27.1876 24.8069 32.0878 20.4754 30.7886C17.6558 29.9431 16.0329 26.5858 17.0664 23.5975L9.14653 18.8501C8.67899 19.641 7.78053 20.3507 6.9661 20.6815C2.70847 22.4121 -1.38712 17.7621 0.451215 13.2369C1.70858 10.1421 5.2376 9.00545 7.88016 10.8284C8.40591 11.191 8.74561 11.6908 9.22395 12.0801L16.9488 7.44375L17.0064 7.31767C15.746 3.0771 19.2534 -0.98669 23.262 0.215616C26.5023 1.18786 28.001 5.33289 26.2149 8.44524C24.3369 11.7181 20.0175 12.006 17.8484 8.93461L17.7668 8.91186L9.92855 13.6561L9.92915 13.6554ZM21.4363 1.77536C17.07 2.28943 17.5333 9.6066 22.0785 9.35899C26.6944 9.10748 26.2923 1.20411 21.4363 1.77536ZM4.69144 11.7188C0.561647 12.2049 0.690684 18.9781 4.85469 19.3024C9.85113 19.691 9.82052 11.115 4.69144 11.7188ZM21.5569 21.6622C16.9896 22.0904 17.543 29.676 22.1979 29.2451C26.7256 28.8266 26.1824 21.228 21.5569 21.6622Z" fill="white"/>
</g>
<defs>
<clipPath id="clip0_28_113">
<rect width="27" height="31" fill="white"/>
</clipPath>
</defs>
</svg>
