<svg width="525" height="405" viewBox="0 0 525 405" fill="none" xmlns="http://www.w3.org/2000/svg">
<g style="mix-blend-mode:multiply">
<path fill-rule="evenodd" clip-rule="evenodd" d="M452.137 -124.759C456.198 -127.77 460.259 -130.774 464.321 -133.785C464.729 -133.446 465.13 -133.114 465.538 -132.781C457.739 -125.997 449.933 -119.218 442.134 -112.428C442.412 -112.157 442.689 -111.886 442.966 -111.609C448.692 -115.586 454.418 -119.563 460.167 -123.528C460.691 -123.885 461.307 -124.181 461.932 -124.433C465.754 -126.003 470.37 -126.926 473.268 -129.229C484.01 -137.743 498.591 -141.517 510.081 -148.801C517.895 -153.757 527.15 -156.576 534.702 -161.582C538.671 -164.21 542.262 -167.221 547.102 -170.878C545.661 -166.673 544.597 -163.589 543.21 -159.556C546.709 -161.132 549.051 -162.179 551.379 -163.232C551.464 -163.151 551.541 -163.084 551.625 -163.004C545.414 -158.836 539.203 -154.674 532.991 -150.506C533.099 -150.352 533.2 -150.192 533.307 -150.038C537.546 -152.119 541.684 -154.335 546.038 -156.25C550.284 -158.115 554.739 -159.673 559.416 -161.495C560.264 -162.517 561.713 -164.26 563.162 -165.996C563.778 -162.327 564.741 -160.855 568.903 -163.084C586.859 -172.663 604.861 -182.194 622.862 -191.73C626.87 -193.854 630.823 -196.058 635 -197.954C636.426 -198.601 638.452 -198.404 640.387 -198.613C641.697 -199.678 643.223 -201.39 645.257 -202.516C658.157 -209.639 671.258 -216.529 684.081 -223.726C688.474 -226.188 692.335 -229.273 696.342 -232.16C699.563 -234.469 702.785 -235.023 707.038 -232.351C701.251 -231.477 697.637 -229.297 695.279 -225.191C693.915 -222.808 690.485 -221.035 687.642 -219.361C675.797 -212.398 663.899 -205.49 651.877 -198.736C645.565 -195.184 638.753 -192.192 632.534 -188.541C626.592 -185.056 621.313 -180.845 615.387 -177.342C612.297 -175.514 608.089 -174.88 605.015 -173.039C598.541 -169.179 592.746 -164.586 586.211 -160.793C562.599 -147.089 538.802 -133.594 515.074 -120.019C513.934 -119.378 512.793 -118.763 511.83 -117.926C568.572 -148.21 625.321 -178.5 682.062 -208.778C682.702 -208.137 683.349 -207.497 683.997 -206.851C681.469 -205.133 679.134 -203.181 676.367 -201.759C672.029 -199.518 667.282 -197.776 662.92 -195.559C652.139 -190.092 641.427 -184.533 630.808 -178.869C628.527 -177.656 626.754 -175.822 624.743 -174.27C625.259 -173.827 625.775 -173.39 626.292 -172.947C631.316 -176.21 636.333 -179.485 641.304 -182.729C641.851 -180.944 642.252 -179.633 642.853 -177.681C642.398 -177.576 640.903 -177.281 639.431 -176.917C638.106 -176.591 635.786 -176.345 635.655 -175.803C633.582 -166.956 622.963 -163.903 616.844 -157.838C615.318 -156.336 613.445 -155.062 612.628 -152.778C616.898 -155.444 621.267 -158.011 625.413 -160.787C634.083 -166.599 642.452 -172.706 651.345 -178.278C654.435 -180.211 659.159 -180.439 662.38 -182.292C670.657 -187.057 678.502 -192.296 687.387 -196.606C673.624 -186.534 659.86 -176.468 646.105 -166.39C646.529 -166.02 646.96 -165.633 647.392 -165.263C649.958 -166.815 652.578 -168.323 655.067 -169.948C658.828 -172.392 661.841 -175.914 667.96 -174.289C669.177 -173.968 671.143 -175.458 672.599 -177.016C671.089 -176.93 669.586 -176.85 668.083 -176.757C674.271 -179.922 677.739 -186.959 687.58 -185.358C688.258 -186.023 689.399 -187.137 690.555 -188.264C691.657 -187.421 692.512 -186.768 693.56 -185.968C676.051 -173.402 658.335 -160.683 640.618 -147.963C640.857 -147.742 641.088 -147.52 641.327 -147.298C661.972 -161.114 682.609 -174.929 703.247 -188.744C703.64 -188.406 704.033 -188.067 704.426 -187.722C692.373 -178.845 680.321 -169.961 668.26 -161.077C668.661 -160.695 669.054 -160.313 669.455 -159.938C677.523 -164.943 685.607 -169.948 693.676 -174.954C694.038 -174.658 694.408 -174.369 694.77 -174.073C682.116 -164.377 666.603 -156.626 661.486 -142.207C660.924 -140.729 660.901 -138.864 659.729 -137.836C645.904 -125.627 630.33 -114.989 613.345 -105.699C604.051 -100.62 594.403 -95.9529 585.14 -90.8429C581.241 -88.6943 578.112 -85.6715 574.282 -83.4244C567.215 -79.2872 559.894 -75.427 552.673 -71.456C552.943 -71.0866 553.213 -70.7173 553.49 -70.3479C565.689 -75.2916 577.896 -80.2353 590.095 -85.179C590.55 -84.5941 591.005 -84.0092 591.459 -83.4305C587.298 -81.3927 583.136 -79.3549 578.967 -77.3109C566.175 -72.1517 553.205 -67.2019 543.457 -58.3672C557.212 -62.4059 570.876 -66.5554 578.96 -77.3909C578.405 -75.347 577.858 -73.303 577.126 -70.5818C585.24 -73.9679 593.309 -77.3355 601.385 -80.697C601.755 -80.303 602.125 -79.9028 602.495 -79.5088C597.917 -76.486 593.34 -73.4631 588.762 -70.4403C588.939 -70.2371 589.117 -70.0339 589.286 -69.8307C592.962 -71.1605 596.638 -72.4965 600.321 -73.8264C600.768 -73.2045 601.2 -72.5827 601.647 -71.9609C588.539 -64.3145 574.135 -58.1826 560.881 -50.4684C573.141 -55.209 585.402 -59.9495 597.655 -64.6838C597.871 -64.3883 598.087 -64.0928 598.302 -63.8035C585.055 -56.508 571.8 -49.2063 558.553 -41.9108C558.939 -41.2459 559.316 -40.5872 559.702 -39.9223C566.098 -42.034 572.494 -44.1457 578.898 -46.2574C579.26 -46.0665 579.622 -45.8756 579.985 -45.6786C579.052 -44.5766 578.412 -43.1422 577.141 -42.428C572.525 -39.83 567.662 -37.4966 562.938 -35.0094C560.38 -33.6611 556.365 -33.3902 556.835 -29.684C556.881 -29.2592 555.363 -28.5265 554.43 -28.2187C541.399 -23.9461 531.196 -15.881 518.419 -11.159C513.479 -9.33047 509.48 -5.85205 505.441 -2.25049C510.713 -3.96815 515.991 -5.68582 521.27 -7.4035C521.316 -7.24959 521.363 -7.10184 521.401 -6.94792C511.838 -1.67793 502.274 3.58592 492.718 8.84976C505.372 9.87175 515.953 4.79265 527.266 2.04684C527.52 2.49011 527.774 2.93333 528.029 3.38277C510.404 9.9641 492.78 16.5455 475.156 23.1268C475.179 23.2684 475.202 23.41 475.217 23.5516C481.182 22.3449 487.154 21.1382 493.119 19.9377C493.319 20.4487 493.512 20.9658 493.72 21.4768C484.912 24.0195 476.104 26.5621 467.303 29.1048C467.403 29.5357 467.503 29.9605 467.603 30.3853C475.094 29.2648 482.592 28.1505 490.09 27.0239C490.26 27.461 490.437 27.8919 490.615 28.3352C483.093 30.7055 475.595 33.1189 468.043 35.4337C462.964 36.9913 457.57 38.0379 452.761 39.9956C448.415 41.7687 444.801 44.6377 440.639 46.7433C428.448 52.9306 416.303 59.2164 403.826 65.0405C390.101 71.4494 376.083 77.4644 362.112 83.5286C340.65 92.8495 318.294 100.859 298.404 112.47C290.69 116.977 281.905 120.308 273.998 124.845C279.238 123.066 284.478 121.287 289.719 119.507C289.904 119.729 290.096 119.957 290.281 120.185C285.904 122.352 281.535 124.543 277.134 126.692C264.997 132.615 253.021 138.765 240.63 144.343C232.268 148.111 223.375 151.14 214.598 154.279C213.503 154.673 211.561 153.855 210.174 153.331C208.864 152.833 207.754 151.983 205.751 150.826C208.749 149.342 211.461 148.006 215.384 146.054C210.043 146.873 206.036 147.809 201.967 148.037C197.151 148.308 194.661 145.045 196.619 141.049C192.542 141.585 188.689 142.089 184.119 142.687C184.335 140.821 184.52 139.276 184.728 137.435C180.22 137.503 175.265 139.965 170.965 136.53C170.564 136.21 168.36 137.183 167.104 137.718C160.499 140.532 153.787 142.237 146.127 140.483C143.422 139.867 140.309 140.52 137.427 140.249C135.5 140.064 133.674 139.264 131.793 138.74C132.556 137.121 132.98 135.317 134.167 133.938C135.747 132.097 137.92 130.577 140.27 128.545C136.695 127.505 134.059 126.594 131.316 125.959C123.255 124.094 123.239 124.131 126.06 117.894C119.016 117.174 119.325 113.572 121.267 109.497C122.808 106.259 124.442 103.051 126.345 99.1847C121.305 100.231 117.729 91.4643 110.547 98.2119C109.237 99.4493 103.673 97.7932 99.6118 97.43C102.055 94.0931 104.659 91.3042 110.27 91.1072C111.464 91.0641 112.566 89.1432 113.707 88.0905C112.235 87.5241 110.578 86.2928 109.353 86.5268C105.314 87.2902 101.431 88.5954 97.8009 89.605C96.4368 87.4133 95.7201 84.883 93.7473 83.4547C91.8901 82.1187 88.7613 81.5892 86.095 81.3491C79.2749 80.7335 77.1634 77.7722 80.0147 72.7053C81.0011 70.9507 81.2092 68.9191 81.9181 66.518C82.8968 66.4688 84.3842 66.3949 85.8021 66.3271C87.6671 63.0827 84.7772 58.1759 80.7237 57.8434C75.8687 57.4494 75.1828 55.7811 74.2735 51.8286C72.2621 43.0801 82.1262 41.9842 86.3647 37.373C87.0351 36.6403 88.1834 36.1786 90.1639 34.935C83.8216 35.3475 78.8433 35.6799 73.8651 36.0062C73.4643 35.3967 73.0559 34.7934 72.6475 34.1839C80.7237 28.5445 88.7999 22.899 96.8684 17.2596C96.6218 16.8348 96.3829 16.4039 96.1363 15.9729C91.6666 16.2869 87.197 16.6008 82.7273 16.9148C82.7119 16.5085 82.7042 16.096 82.6888 15.6897C91.5125 12.9315 100.336 10.1734 109.16 7.41531C109.021 6.9659 108.875 6.51643 108.728 6.067C100.136 7.13208 91.5433 8.20337 82.9508 9.27461C82.7813 8.60355 82.6194 7.93246 82.4499 7.26141C88.1217 5.19281 93.7936 3.12418 99.4731 1.05557C99.2342 0.446075 99.003 -0.163391 98.7641 -0.766739C94.7954 0.00282288 90.8266 0.772385 86.8656 1.5358C86.6652 1.17256 86.4726 0.809311 86.2722 0.439926C106.116 -7.22496 125.96 -14.8898 145.796 -22.5547C145.642 -22.9303 145.487 -23.312 145.333 -23.6813C142.906 -23.0103 140.478 -22.3392 138.051 -21.662C137.928 -21.8467 137.812 -22.0314 137.689 -22.2161C142.12 -24.2785 146.798 -26.0639 150.92 -28.465C160.314 -33.9381 169.755 -39.4236 178.609 -45.4447C192.088 -54.5994 205.127 -64.1667 218.25 -73.6478C225.487 -78.8808 232.53 -84.2678 239.605 -89.6425C247.465 -95.6081 254.879 -101.98 263.155 -107.546C276.549 -116.559 290.528 -125.012 304.153 -133.809C308.168 -136.401 311.805 -139.356 316.506 -142.798C315.519 -140.822 315.003 -139.775 314.479 -138.728C345.343 -162.117 379.513 -181.584 415.17 -199.444C415.655 -198.927 416.141 -198.41 416.626 -197.899C411.07 -194.839 405.514 -191.779 399.957 -188.72C400.304 -188.282 400.651 -187.852 400.99 -187.414C408.134 -190.954 415.278 -194.494 422.429 -198.041C422.522 -197.887 422.614 -197.739 422.714 -197.591C400.551 -184.084 378.38 -170.576 356.216 -157.069C356.648 -156.589 357.087 -156.115 357.519 -155.634C360.255 -157.143 362.998 -158.651 365.734 -160.159C365.973 -159.895 366.204 -159.63 366.435 -159.371C355.6 -151.214 344.765 -143.057 333.922 -134.899C334.323 -134.554 334.724 -134.203 335.124 -133.859C346.337 -141.745 357.033 -150.173 368.909 -157.364C380.145 -164.167 392.105 -170.207 403.441 -177.004C415.278 -184.108 428.725 -189.508 441.464 -195.658C441.88 -195.092 442.311 -194.525 442.727 -193.959C431.815 -188.584 420.803 -183.333 410.053 -177.755C406.13 -175.723 402.901 -172.848 399.272 -170.428C392.575 -165.971 385.832 -161.569 379.104 -157.149C378.788 -156.946 378.364 -156.835 378.025 -156.638C375.844 -155.407 371.475 -157.192 371.113 -153.449C370.018 -153.664 368.924 -153.88 368.523 -153.96C366.381 -151.306 364.609 -148.807 362.459 -146.529C358.197 -142.016 353.982 -137.442 349.227 -133.261C346.707 -131.039 342.908 -129.777 340.079 -127.739C337.945 -126.206 336.45 -124.113 334.654 -122.272C335.271 -121.853 335.887 -121.435 336.496 -121.016C337.883 -121.89 339.193 -122.857 340.665 -123.62C344.603 -125.658 348.865 -127.351 352.533 -129.654C356.448 -132.11 359.715 -135.225 363.491 -137.842C368.893 -141.573 374.496 -145.107 380.014 -148.727C380.499 -148.32 380.977 -147.914 381.462 -147.508C370.203 -138.587 358.945 -129.672 347.686 -120.758C347.901 -120.517 348.117 -120.271 348.333 -120.031C354.29 -123.313 360.239 -126.588 366.196 -129.869C366.558 -129.475 366.921 -129.081 367.283 -128.687C347.832 -116.565 326.093 -106.561 311.142 -90.0611C316.922 -93.2441 322.64 -96.4885 328.497 -99.5729C330.901 -100.841 332.905 -103.138 336.804 -100.97C337.837 -100.398 341.336 -102.645 343.701 -103.599C343.486 -103.993 343.278 -104.393 343.07 -104.788C341.867 -104.652 340.665 -104.517 340.403 -104.486C362.513 -119.896 385.061 -135.613 407.618 -151.331C408.142 -150.875 408.666 -150.414 409.19 -149.952C402.161 -144.633 395.126 -139.32 388.105 -133.988C384.422 -131.193 380.561 -128.527 377.232 -125.486C376.122 -124.47 376.422 -122.469 376.099 -121.059C374.457 -121.189 372.962 -121.312 371.475 -121.435C371.714 -119.723 371.96 -118.012 372.261 -115.943C401.144 -131.852 429.349 -147.385 457.554 -162.918C457.932 -162.487 458.317 -162.062 458.695 -161.631C448.916 -155.696 439.129 -149.761 429.349 -143.826C429.658 -143.401 429.966 -142.977 430.274 -142.552C435.052 -145.082 439.845 -147.588 444.592 -150.149C449.609 -152.864 454.58 -155.641 459.959 -157.986C430.706 -139.972 399.033 -124.415 373.371 -102.633C371.529 -102.645 369.695 -102.657 366.882 -102.676C367.298 -100.89 367.637 -99.4744 368.123 -97.3997C374.064 -100.675 379.143 -103.525 384.291 -106.296C394.293 -111.683 404.396 -116.953 414.322 -122.426C418.799 -124.895 422.899 -127.801 427.292 -130.368C429.033 -131.384 431.083 -132.086 433.056 -132.831C436.3 -134.05 440.562 -134.351 439.329 -138.821C439.059 -139.781 441.179 -141.16 443.182 -142.041C443.005 -141.111 442.828 -140.181 442.388 -137.934C447.999 -141.025 452.638 -143.58 457.285 -146.141C457.847 -145.501 458.418 -144.86 458.98 -144.226C439.082 -132.566 419.2 -120.899 398.871 -108.98C400.119 -108.629 400.805 -108.438 401.483 -108.241C400.574 -107.601 399.803 -106.678 398.74 -106.364C395.935 -105.532 393.014 -104.96 390.14 -104.289C390.317 -103.772 390.502 -103.261 390.679 -102.75C392.19 -103.131 393.7 -103.513 396.12 -104.123C394.54 -102.226 393.384 -100.847 392.136 -99.3452C398.886 -99.1974 405.128 -99.4806 410.407 -103.963C415.247 -108.081 420.903 -111.634 426.521 -115.094C428.71 -116.442 431.792 -116.86 434.466 -117.704C433.834 -115.426 433.203 -113.148 432.571 -110.876C432.917 -110.593 433.272 -110.31 433.611 -110.027C439.791 -114.97 445.964 -119.914 452.145 -124.852L452.091 -124.753L452.137 -124.759ZM607.427 -139.904C607.296 -140.058 607.165 -140.2 607.034 -140.354C561.443 -115.241 515.853 -90.1288 470.262 -65.0225C470.393 -64.8686 470.524 -64.7208 470.655 -64.5731C516.246 -89.6856 561.844 -114.798 607.434 -139.904H607.427ZM354.891 -77.2802C355.084 -76.7384 355.276 -76.1904 355.469 -75.6425C357.357 -76.2397 359.615 -76.4921 361.056 -77.4956C366.057 -80.9741 370.635 -84.8342 375.659 -88.2696C377.37 -89.4393 380.029 -89.6794 382.102 -90.5783C383.566 -91.2124 385.547 -92.062 385.917 -93.1209C386.579 -95.0356 386.209 -97.1719 386.279 -99.5237C381.67 -96.9872 376.808 -94.3091 371.645 -91.4648C372.824 -87.1798 372.138 -86.244 366.874 -85.7823C367.591 -87.2045 368.308 -88.6143 369.271 -90.5413C361.647 -87.4138 358.099 -83.1822 358.629 -77.8465C357.396 -77.6618 356.147 -77.471 354.891 -77.2863V-77.2802ZM406.924 -98.8526C407.471 -98.317 408.026 -97.7814 408.573 -97.2458C415.046 -101.561 421.512 -105.877 427.978 -110.193C427.523 -110.636 427.068 -111.08 426.606 -111.529C420.048 -107.299 413.49 -103.076 406.924 -98.8526ZM356.324 -81.5159C355.77 -81.9714 355.222 -82.427 354.668 -82.8887C349.666 -79.8289 343.177 -78.1113 340.172 -73.2353C340.619 -72.8166 341.066 -72.4041 341.513 -71.9855C346.453 -75.1622 351.385 -78.3391 356.324 -81.5159ZM203.223 130.934C198.322 133.033 194.184 134.8 190.053 136.579C199.17 137.448 201.697 136.259 203.223 130.934ZM549.568 -90.1288C549.706 -90.0057 549.845 -89.8826 549.984 -89.7595C560.249 -95.4112 570.514 -101.069 580.786 -106.721C580.67 -106.856 580.555 -106.992 580.432 -107.127C570.144 -101.457 559.856 -95.7928 549.568 -90.1288ZM452.16 10.6044C452.437 11.2631 452.723 11.9219 453 12.5807C458.518 11.0231 464.035 9.47156 469.561 7.91396C469.345 7.40912 469.137 6.91048 468.914 6.40564C463.326 7.80318 457.739 9.20683 452.16 10.6044ZM613.445 -124.938C613.376 -124.999 613.314 -125.061 613.253 -125.129C604.259 -120.173 595.266 -115.223 586.265 -110.267C586.327 -110.199 586.388 -110.138 586.45 -110.07C595.451 -115.026 604.452 -119.982 613.445 -124.938ZM544.42 -86.6873C544.335 -86.7796 544.258 -86.872 544.173 -86.9705C535.666 -82.2854 527.166 -77.6003 518.658 -72.9151C518.743 -72.8166 518.82 -72.7243 518.904 -72.6319C527.412 -77.3171 535.912 -82.0022 544.42 -86.6873ZM652.023 -146.997C651.792 -147.212 651.561 -147.422 651.33 -147.643C645.681 -143.838 640.047 -140.04 634.406 -136.241C634.722 -135.952 635.031 -135.663 635.347 -135.367C640.903 -139.24 646.467 -143.118 652.023 -146.991V-146.997ZM77.4254 31.2226C77.6951 31.8259 77.9725 32.4417 78.2345 33.0511C82.342 31.9306 86.4495 30.8163 90.5569 29.6958C90.2795 29.0555 90.0021 28.4214 89.7246 27.7811C85.6172 28.9262 81.5251 30.0713 77.4254 31.2226ZM133.003 -12.7043C132.818 -13.1783 132.641 -13.6462 132.464 -14.1202C127.008 -11.8054 121.552 -9.48441 116.096 -7.1757C116.335 -6.82478 116.573 -6.47382 116.805 -6.12289C122.207 -8.32077 127.609 -10.5125 133.003 -12.7104V-12.7043Z" fill="url(#paint0_linear_125_159)"/>
<path fill-rule="evenodd" clip-rule="evenodd" d="M390.432 80.3703C378.372 85.7265 366.304 91.0827 354.243 96.445C353.889 95.9279 353.542 95.4045 353.188 94.8874C365.256 89.525 377.316 84.1627 389.376 78.8004C389.723 79.3237 390.085 79.847 390.432 80.3703Z" fill="url(#paint1_linear_125_159)"/>
</g>
<g style="mix-blend-mode:multiply">
<path fill-rule="evenodd" clip-rule="evenodd" d="M380.099 357.039C383.243 356.903 386.395 356.768 389.547 356.638C389.624 356.226 389.701 355.807 389.785 355.395C386.78 354.619 383.775 353.831 379.906 352.828C381.594 350.765 382.827 349.269 384.399 347.348C376.13 347.484 368.986 346.825 370.342 337.695C374.828 335.503 380.037 332.96 385.254 330.412C384.823 329.747 384.399 329.082 383.967 328.417C379.86 328.94 375.745 329.464 371.637 329.981C371.437 329.574 371.229 329.174 371.021 328.774C375.159 327.001 379.289 325.24 383.42 323.479C383.297 323.245 383.189 323.018 383.073 322.778C378.904 323.719 374.743 324.668 368.185 326.145C371.036 323.707 372.385 322.55 373.132 321.922C367.044 318.77 361.758 315.273 355.708 313.149C351.385 311.628 345.906 311.123 341.182 311.646C317.385 314.245 293.672 317.36 269.914 320.204C266.608 320.604 263.209 320.518 258.154 320.721C260.659 315.833 262.547 312.145 263.71 309.861C256.173 308.968 247.057 307.891 237.933 306.814C237.748 305.687 237.57 304.554 237.393 303.428C251.565 299.457 265.745 295.486 279.924 291.515C279.77 290.948 279.616 290.376 279.462 289.803C267.802 291.287 256.143 292.764 244.66 294.223C244.706 287.907 244.745 282.397 244.807 275.397C248.275 273.71 253.854 270.995 260.951 267.541C251.565 266.673 243.35 265.91 232.762 264.931C237 263.158 239.705 262.025 243.096 260.609C237.031 255.764 241.123 253.72 246.656 251.38C254.509 248.037 261.892 243.992 269.559 240.366C271.07 239.658 272.981 239.326 274.753 239.159C292.524 237.509 306.627 230.719 317.554 219.594C318.548 218.578 317.886 216.62 318.625 215.334C319.828 213.259 321.554 211.387 323.057 209.423C329.399 213.616 330.555 209.399 333.267 206C334.57 204.387 338.785 204.264 341.629 201.869C333.529 202.011 325.43 202.153 317.331 202.288C316.961 201.334 316.591 200.386 316.221 199.437C328.489 193.81 340.82 188.263 352.965 182.47C355.254 181.38 356.787 179.287 359.97 176.529C363.145 176.394 368.662 176.16 374.188 175.926C374.473 175.039 374.766 174.153 375.059 173.266C372.254 172.583 369.487 171.665 366.613 171.29C363.06 170.834 359.407 170.816 353.365 170.471C356.664 167.497 358.297 166.014 361.534 163.102C351.454 163.311 342.947 163.49 334.4 163.674C335.125 160.738 335.826 157.826 336.543 154.877C341.344 153.651 346.499 152.328 351.662 151.004C351.508 150.505 351.354 150.013 351.208 149.514C340.773 149.939 328.366 153.344 320.444 149.988C311.505 146.19 298.504 153.067 291.969 140.889C311.936 137.62 330.994 134.498 350.052 131.377C349.982 130.774 349.921 130.164 349.851 129.567C328.366 130.706 306.881 131.851 285.388 132.99C284.949 132.134 284.502 131.279 284.07 130.423C292.293 125.147 300.508 119.877 308.33 114.853C300.361 113.948 291.838 112.975 283.315 111.996C283.315 111.14 283.323 110.285 283.338 109.423C295.144 103.839 303.213 94.3332 319.627 93.5452C337.105 92.7079 354.321 88.4229 371.653 85.6525C371.953 85.6032 372.408 85.6894 372.57 85.5478C384.329 74.9708 401.237 78.9665 415.648 75.9682C429.704 73.05 443.938 70.532 458.248 68.5496C483.841 65.0096 509.634 62.3315 535.173 58.5637C541.715 57.5971 551.24 58.9085 553.198 50.4925C553.336 49.883 554.593 48.8733 555.04 48.9657C567.601 51.5637 577.704 40.3773 591.151 45.1486C594.719 46.4168 600.846 43.6833 605.524 42.2304C618.825 38.0994 631.987 33.6913 645.774 29.1971C646.082 30.7362 646.375 32.2137 646.822 34.4485C658.759 30.5514 670.326 26.7775 682.856 22.6896C682.14 24.6412 681.608 26.0941 680.776 28.3844C693.753 25.3861 703.509 14.1074 719.77 19.9007C714.09 21.8462 708.703 23.6808 703.309 25.5155C703.525 26.0265 703.733 26.5313 703.949 27.0423C707.062 26.3897 710.16 25.6386 713.312 25.1276C716.571 24.5981 720.093 20.1346 723.23 25.3923C723.392 25.657 726.22 25.4969 726.567 24.9859C732.493 16.1882 744.954 16.8778 754.163 12.9376C769.128 6.52868 784.703 1.00625 800.085 -4.78705C801.742 -5.41502 803.83 -5.32268 805.718 -5.56278C806.011 -4.94097 806.304 -4.32531 806.589 -3.70966C797.095 0.168961 787.601 4.04759 778.099 7.92621C778.476 8.54186 778.846 9.15135 779.224 9.76701C786.159 7.31055 793.134 4.91565 800.031 2.373C806.874 -0.14502 813.733 -2.64452 820.352 -5.50115C822.387 -6.37538 823.681 -8.37627 825.254 -9.90309C826.186 -10.8019 827.103 -12.6366 827.858 -12.5812C840.612 -11.6577 846.692 -22.0315 857.774 -23.7122C860.525 -24.1309 863.423 -23.9461 866.259 -24.0446C866.444 -23.3736 866.636 -22.7087 866.837 -22.0377C878.304 -26.0517 889.848 -29.9303 901.192 -34.1722C904.197 -35.2927 906.555 -37.509 910.223 -39.8855C915.602 -36.4193 922.446 -40.8397 929.497 -43.056C945.302 -48.0182 960.954 -53.2944 976.867 -58.0226C979.464 -58.7921 983.063 -57.4008 986.192 -57.0067C986.323 -55.9663 986.446 -54.9259 986.57 -53.8854C1007.39 -61.501 1028.21 -69.1105 1049.04 -76.7261C1049.36 -76.209 1049.68 -75.698 1050 -75.1808C1023.74 -63.0094 997.474 -50.8379 971.072 -38.5987C973.862 -39.4052 976.837 -41.0182 979.757 -40.9505C984.466 -40.8335 989.19 -47.7781 994.068 -41.1044C994.23 -40.8828 998.044 -42.0464 999.832 -42.9637C1004.05 -45.1185 1008.06 -47.5011 1012.16 -49.7975C1012.83 -49.2742 1013.49 -48.7385 1014.14 -48.209C1013.54 -46.3682 1012.93 -44.5336 1011.99 -41.6954C1016.49 -42.8406 1019.81 -43.6717 1023.12 -44.509C1023.47 -43.9796 1023.81 -43.45 1024.16 -42.9206C1019.6 -40.6673 1014.95 -38.5186 1010.51 -36.1299C1005.96 -33.6858 1001.97 -30.4044 997.112 -28.5328C978.062 -21.2188 958.866 -14.145 939.546 -7.30505C917.614 0.464493 895.404 7.71074 873.472 15.4803C851.994 23.0898 830.694 31.0132 809.417 38.9675C806.365 40.1064 803.946 42.292 801.102 43.8372C798.266 45.3641 795.469 47.131 792.317 48.0422C783.47 50.591 774.384 52.6165 765.545 55.1838C763.611 55.744 762.301 57.6895 761.353 59.7827C845.236 37.5268 922.53 3.03176 1004.9 -21.699C1005.27 -21.0895 1005.64 -20.48 1006.01 -19.8644C1000.03 -17.7404 994.045 -15.6164 988.065 -13.4862C988.257 -12.9506 988.458 -12.4088 988.65 -11.8732C991.078 -11.7501 993.505 -11.6331 998.353 -11.3868C957.494 2.89632 918.739 16.4407 879.976 29.9912C880.392 30.7608 880.801 31.5242 881.217 32.2937C918.384 19.8021 955.56 7.31054 992.735 -5.17492C993.166 -4.39304 993.598 -3.59879 994.029 -2.81075C949.294 15.6896 900.621 27.7872 857.844 49.8707C861.558 49.3966 865.265 48.9287 868.971 48.4546C869.203 48.9656 869.426 49.4705 869.657 49.9692C841.961 59.3087 814.257 68.6481 786.56 77.9814C786.83 78.7387 787.1 79.4959 787.377 80.2593C822.865 70.9014 858.167 60.5646 898.849 65.9454C881.602 72.3851 865.935 78.2339 850.268 84.0764C850.607 85.0061 850.939 85.9295 851.278 86.8591C863.246 84.3165 875.221 81.7677 887.197 79.2189C887.443 79.9331 887.69 80.6534 887.944 81.3675C881.664 83.0852 875.375 84.8152 869.087 86.5329C869.149 87.1485 869.203 87.7642 869.264 88.386C884.692 87.8196 900.12 87.2408 915.548 86.6683C867.708 94.2655 821.285 105.169 776.673 120.88C825.462 111.959 872.139 95.6507 924.403 94.6164C917.198 97.7993 908.412 97.2144 906.663 105.002C906.316 106.548 901.608 107.736 898.687 108.598C869.75 117.143 840.612 125.294 811.829 134.203C798.05 138.463 784.826 143.234 772.357 150.518C758.494 158.607 740.777 162.523 724.678 168.132C711.485 172.731 698.207 177.151 685.515 183.227C729.534 173.414 773.56 163.613 818.58 153.584C818.056 155.726 818.079 156.139 817.933 156.182C805.256 160.073 792.44 163.68 779.964 167.928C775.756 169.363 772.304 172.3 768.666 174.701C765.414 176.837 762.385 179.17 759.257 181.423C758.594 180.839 757.931 180.26 757.268 179.675C759.002 178.234 760.729 176.794 763.387 174.584C751.792 177.153 746.254 180.933 746.773 185.924C741.124 187.925 735.275 190 729.426 192.074C728.979 191.446 728.539 190.824 728.1 190.197C732.138 188.005 736.184 185.813 740.23 183.628C739.798 183.012 739.374 182.396 738.943 181.787C732.678 184.502 726.412 187.223 718.506 190.652C721.272 191.206 722.428 191.428 725.565 192.05C721.704 194.174 719.038 196.039 715.963 197.246C711.046 199.185 704.873 199.739 704.719 205.81C704.704 206.536 701.953 207.213 700.473 207.934C690.648 212.723 680.822 217.519 672.299 223.559C729.264 211.16 786.237 198.766 843.24 186.361C845.737 191.015 845.036 191.668 837.322 193.503C819.613 197.732 801.888 201.912 784.379 206.604C779.185 207.995 774.685 211.036 768.982 213.733C768.897 213.591 768.08 212.372 767.68 211.757C711.932 229.297 656.262 246.812 600.592 264.334C600.746 264.721 600.892 265.103 601.046 265.485C602.318 265.325 603.589 265.158 604.861 264.998C605.439 265.657 606.009 266.304 606.579 266.95C602.31 269.431 598.033 271.912 594.75 273.815C610.147 273.925 626.847 274.042 643.539 274.159C643.577 274.584 643.624 275.003 643.654 275.422C619.457 280.95 595.259 286.472 571.061 291.995C571.061 292.414 571.069 292.832 571.084 293.251C578.513 292.617 585.919 291.958 593.348 291.355C610.425 289.969 627.471 287.907 644.595 287.451C664.354 286.928 684.19 287.827 700.658 288.061C662.735 293.971 621.414 300.399 580.108 306.832C580.185 307.325 580.255 307.811 580.332 308.304C612.875 305.656 645.411 303.009 677.947 300.368C678.055 301.113 678.156 301.864 678.263 302.609C633.151 313.198 586.327 314.62 539.951 318.69C593.147 319.533 645.542 312.422 698.562 308.815C666.673 316.793 634.761 324.766 602.873 332.739C602.857 333.01 602.842 333.287 602.834 333.558C620.435 332.499 638.036 331.446 655.638 330.393C655.645 330.627 655.661 330.861 655.669 331.101C614.833 336.291 573.989 341.475 533.146 346.665C532.969 345.957 532.791 345.261 532.614 344.559C533.462 343.962 534.302 343.359 536.375 341.881C508.94 345.366 482.908 349.047 456.738 351.892C431.238 354.668 405.583 356.589 380.006 358.886C380.022 358.27 380.045 357.654 380.06 357.039H380.099ZM795.646 60.5522C796.023 61.2418 796.409 61.9436 796.779 62.6393C822.734 53.5338 848.673 44.4221 874.628 35.3228C874.25 34.6394 873.888 33.9622 873.518 33.285C847.556 42.3721 821.601 51.4652 795.646 60.5461V60.5522ZM681.908 36.5234C682.209 37.1698 682.51 37.8285 682.81 38.4749C693.067 35.2797 703.309 32.0845 713.566 28.8954C713.327 28.3783 713.088 27.8673 712.857 27.3563C702.538 30.4161 692.22 33.4697 681.908 36.5234ZM853.143 51.5514C852.68 50.751 852.218 49.9507 851.756 49.1565C843.71 51.97 835.665 54.7836 827.619 57.5972C827.897 58.0712 828.159 58.5452 828.429 59.0193C836.667 56.532 844.905 54.0448 853.143 51.5514ZM653.935 230.239C653.503 229.149 653.056 228.059 652.625 226.969C647.515 228.466 642.406 229.968 637.289 231.476C637.659 232.307 638.037 233.151 638.414 233.988C643.585 232.732 648.764 231.488 653.935 230.239Z" fill="url(#paint2_linear_125_159)"/>
</g>
<g style="mix-blend-mode:multiply">
<path fill-rule="evenodd" clip-rule="evenodd" d="M336.018 137.263C330.092 139.867 324.15 142.471 318.217 145.069C317.908 144.571 317.6 144.078 317.292 143.579C329.136 137.38 340.989 131.186 352.833 124.987C352.641 124.599 352.448 124.205 352.255 123.811C344.01 127.166 335.764 130.521 327.495 133.858C326.74 134.16 325.915 134.357 325.098 134.511C320.082 135.465 314.456 135.453 310.148 137.497C294.204 145.045 276.055 146.03 259.818 151.94C248.775 155.96 237.061 157.087 226.288 161.23C220.624 163.403 215.23 166.118 208.117 169.314C211.631 164.653 214.205 161.242 217.58 156.779C212.925 157.813 209.812 158.497 206.706 159.192C206.652 159.081 206.591 158.977 206.529 158.866C215.407 155.4 224.292 151.94 233.17 148.474C233.124 148.264 233.07 148.055 233.023 147.846C227.305 149.305 221.641 150.949 215.869 152.18C210.244 153.38 204.518 154.162 198.414 155.209C196.996 156.219 194.584 157.943 192.165 159.666C193.112 155.154 192.681 153.171 186.986 154.821C162.418 161.901 137.827 168.92 113.229 175.944C107.757 177.508 102.301 179.183 96.745 180.432C94.8493 180.857 92.6452 180.137 90.3719 179.921C88.4145 180.876 85.9253 182.544 83.128 183.4C65.3726 188.774 47.494 193.823 29.7849 199.308C23.72 201.186 17.9865 203.926 12.1683 206.394C7.49824 208.364 3.61426 208.247 0 204.049C6.92027 204.4 11.991 202.67 16.4838 198.354C19.0962 195.848 23.7585 194.561 27.7196 193.25C44.2111 187.808 60.7411 182.452 77.3405 177.299C86.0641 174.59 95.0958 172.663 103.742 169.812C112.011 167.091 119.856 163.354 128.117 160.602C132.425 159.168 137.465 159.426 141.758 157.973C150.797 154.932 159.405 150.862 168.475 147.92C201.273 137.287 234.195 126.944 267.062 116.491C268.634 115.998 270.206 115.542 271.671 114.779C194.037 137.183 116.396 159.58 38.7627 181.978C38.3235 181.06 37.8842 180.143 37.4372 179.219C41.0592 177.785 44.5733 176.024 48.334 174.99C54.237 173.365 60.3712 172.435 66.2897 170.847C80.9162 166.931 95.4966 162.892 110.023 158.706C113.144 157.807 115.972 156.052 118.931 154.692C118.546 154.039 118.161 153.399 117.776 152.746C110.647 155.424 103.511 158.109 96.4368 160.781C96.614 158.521 96.7527 156.871 96.9531 154.402C97.5079 154.39 99.3343 154.402 101.161 154.316C102.802 154.249 105.538 154.513 105.923 153.898C112.227 143.875 125.582 142.785 135.207 137.041C137.604 135.619 140.286 134.548 142.235 132.03C136.217 134.172 130.136 136.185 124.21 138.488C111.819 143.321 99.6349 148.578 87.089 153.067C82.7272 154.624 77.2943 153.762 72.8246 155.197C61.3499 158.878 50.1372 163.225 38.1771 166.217C58.2289 157.536 78.2807 148.868 98.3248 140.187C98.0088 139.639 97.6929 139.085 97.3769 138.531C93.7858 139.762 90.1561 140.926 86.6112 142.256C81.2707 144.257 76.2925 147.729 70.1043 144.324C68.879 143.653 65.9814 144.952 63.6387 146.454C65.3803 146.719 67.1142 146.978 68.8559 147.236C60.456 149.514 53.3893 157.056 42.9858 152.789C41.9223 153.417 40.1345 154.47 38.3235 155.535C37.4527 154.267 36.7822 153.282 35.9653 152.081C61.3653 141.338 87.0659 130.46 112.774 119.581C112.605 119.261 112.435 118.941 112.266 118.621C82.7658 130.103 53.2737 141.578 23.7817 153.054C23.4888 152.556 23.196 152.063 22.9109 151.558C40.4967 143.893 58.0902 136.216 75.6837 128.545C75.4062 127.997 75.1288 127.449 74.8437 126.901C63.4846 130.922 52.1255 134.929 40.7741 138.95C40.4967 138.512 40.2115 138.075 39.9341 137.644C58.5679 129.148 79.5522 123.657 91.7898 107.724C93.0845 106.098 93.9553 103.888 95.7355 102.946C116.82 91.7412 139.161 82.8266 162.503 75.8574C175.272 72.0465 188.257 68.8082 201.004 64.9542C206.367 63.3289 211.261 60.4907 216.586 58.7361C226.419 55.5101 236.414 52.6842 246.34 49.6859C246.209 49.1811 246.062 48.6763 245.916 48.1715C229.925 51.1204 213.927 54.0694 197.937 57.0246C197.682 56.2181 197.428 55.4177 197.181 54.6173C202.792 53.189 208.409 51.7669 214.027 50.3386C230.789 47.2726 247.642 44.496 262.6 36.3325C245.261 37.8285 227.976 39.4846 213.989 50.4371C215.53 48.1407 217.071 45.8381 219.113 42.7722C208.433 44.8469 197.813 46.9156 187.194 48.978C186.955 48.4178 186.708 47.8575 186.47 47.2911C192.989 44.7916 199.516 42.292 206.044 39.7986C205.936 39.5154 205.828 39.2322 205.728 38.949C200.981 39.6508 196.233 40.3527 191.479 41.0546C191.255 40.2049 191.039 39.3615 190.816 38.5119C209.041 32.5647 228.053 28.7292 246.479 22.7327C230.519 25.4293 214.551 28.1197 198.584 30.8101C198.468 30.4037 198.36 30.0035 198.245 29.6033C216.478 24.1055 234.703 18.6017 252.929 13.1039C252.79 12.2235 252.659 11.3431 252.52 10.4565C244.352 11.4293 236.183 12.4082 228.014 13.3809C227.698 13.0607 227.375 12.753 227.051 12.4328C228.592 11.3431 229.956 9.79781 231.721 9.24371C238.102 7.26131 244.637 5.65442 251.079 3.82593C254.57 2.84088 259.233 3.47507 260.358 -1.04384C260.496 -1.56097 262.531 -2.06583 263.733 -2.20743C280.363 -4.15904 295.498 -11.3007 312.036 -13.8495C318.432 -14.8407 324.505 -18.0174 330.685 -21.3358C323.958 -20.5601 317.23 -19.7782 310.503 -19.0025C310.518 -19.1933 310.541 -19.3841 310.557 -19.5811C323.711 -23.5521 336.874 -27.517 350.021 -31.4879C336.195 -35.7421 321.97 -32.2452 307.967 -31.6911C307.882 -32.2759 307.79 -32.867 307.705 -33.4642C330.547 -37.0596 353.404 -40.655 376.245 -44.2566C376.284 -44.429 376.322 -44.6075 376.361 -44.7799C369.086 -44.7799 361.804 -44.7799 354.529 -44.7799C354.529 -45.4386 354.544 -46.0974 354.544 -46.7561C365.626 -47.6611 376.715 -48.5785 387.789 -49.4835C387.866 -50.0191 387.943 -50.5547 388.028 -51.0842C379.073 -51.5521 370.103 -52.0261 361.133 -52.4879C361.133 -53.0543 361.133 -53.6083 361.133 -54.1686C370.681 -55.1783 380.229 -56.2495 389.793 -57.1853C396.228 -57.8194 402.778 -57.764 409.089 -58.9461C414.792 -60.0111 420.156 -62.5538 425.797 -64.0621C442.342 -68.4948 458.865 -73.0507 475.556 -76.9908C493.921 -81.3189 512.446 -85.1113 530.934 -88.9653C559.347 -94.8941 588.176 -99.0559 615.834 -108.087C626.561 -111.591 637.974 -113.45 648.933 -116.947C642.221 -116.085 635.508 -115.235 628.789 -114.373C628.681 -114.681 628.565 -114.995 628.457 -115.309C634.376 -116.836 640.286 -118.394 646.213 -119.89C662.573 -124.014 678.849 -128.459 695.333 -132.123C706.461 -134.591 717.858 -136.063 729.171 -137.688C730.581 -137.891 732.408 -136.451 733.741 -135.496C735.005 -134.591 735.875 -133.311 737.617 -131.452C733.571 -130.411 729.911 -129.469 724.601 -128.09C730.997 -127.782 735.945 -127.936 740.638 -127.222C746.202 -126.385 747.543 -121.909 743.551 -117.624C748.391 -117.285 752.976 -116.959 758.401 -116.571C757.314 -114.404 756.42 -112.606 755.357 -110.47C760.474 -109.473 767.171 -111.209 770.484 -106.087C770.793 -105.606 773.721 -106.234 775.378 -106.573C784.102 -108.334 792.432 -108.752 800.3 -104.825C803.074 -103.446 806.889 -103.476 810.018 -102.454C812.106 -101.771 813.817 -100.38 815.697 -99.3022C814.11 -97.5599 812.823 -95.5158 810.865 -94.1553C808.253 -92.3452 805.124 -91.0586 801.556 -89.2054C805.124 -87.1061 807.698 -85.3946 810.503 -83.9786C818.772 -79.8229 818.803 -79.866 812.823 -73.1184C820.452 -70.5696 818.487 -66.3586 814.472 -61.9689C811.282 -58.4905 807.999 -55.0613 804.115 -50.9241C810.28 -50.961 810.38 -39.6638 821.516 -45.9681C823.55 -47.1194 829.091 -43.8195 833.507 -42.4158C829.253 -39.0359 825.061 -36.3454 818.641 -37.4536C817.27 -37.6937 815.173 -35.6682 813.409 -34.6893C814.811 -33.6673 816.137 -31.7958 817.624 -31.7834C822.525 -31.7219 827.496 -32.3375 832.043 -32.6699C832.597 -29.7394 832.274 -26.5504 833.869 -24.3771C835.364 -22.3393 838.662 -20.9603 841.568 -20.0306C848.989 -17.6604 850.052 -13.6278 844.558 -8.28392C842.654 -6.4308 841.514 -4.06056 839.641 -1.37631C838.516 -1.55486 836.805 -1.82574 835.171 -2.08432C831.619 1.3264 832.674 7.86462 837.106 9.22522C842.407 10.8567 842.438 13.0053 841.691 17.9306C840.042 28.8215 828.413 27.7625 821.562 32.226C820.475 32.9402 818.973 33.2111 816.175 34.2146C823.519 35.2428 829.284 36.0492 835.056 36.8558C835.241 37.6746 835.426 38.4934 835.618 39.3184C823.974 44.0897 812.33 48.861 800.693 53.6385C800.778 54.2049 800.863 54.7713 800.948 55.3438C806.134 56.0457 811.32 56.7414 816.507 57.4432C816.337 57.9296 816.167 58.4221 816.006 58.9085C804.808 60.0721 793.611 61.2356 782.414 62.393C782.375 62.9594 782.337 63.532 782.298 64.0984C792.478 64.8926 802.658 65.6868 812.838 66.4748C812.73 67.3121 812.615 68.1495 812.499 68.9867C805.171 70.0888 797.834 71.1846 790.498 72.2805C790.498 73.0623 790.49 73.8442 790.482 74.6199C795.307 74.6568 800.131 74.6938 804.947 74.7369C805.009 75.2171 805.07 75.6973 805.124 76.1837C779.293 80.5364 753.446 84.889 727.614 89.2417C727.614 89.728 727.614 90.2145 727.63 90.6947C730.674 90.4854 733.71 90.2637 736.754 90.0421C736.808 90.2945 736.862 90.5407 736.916 90.787C730.99 92.1783 724.902 93.1757 719.176 95.0412C706.114 99.3015 692.998 103.556 680.305 108.592C660.986 116.251 641.982 124.494 622.909 132.627C612.397 137.115 602.025 141.831 591.629 146.528C580.085 151.737 568.849 157.536 557.02 162.172C537.862 169.677 518.288 176.375 498.968 183.572C493.273 185.69 487.84 188.337 480.989 191.299C482.993 189.181 484.049 188.06 485.097 186.94C439.768 207.355 392.467 222.303 344.202 234.991C343.886 234.259 343.563 233.526 343.254 232.8C350.899 230.491 358.544 228.188 366.188 225.88C365.996 225.276 365.795 224.679 365.603 224.082C355.947 226.582 346.298 229.075 336.635 231.575C336.596 231.371 336.558 231.174 336.519 230.971C367.599 220.222 398.686 209.479 429.758 198.73C429.48 198.052 429.203 197.381 428.925 196.71C425.157 197.849 421.389 198.982 417.628 200.121C417.482 199.751 417.335 199.382 417.189 199.013C433.079 191.908 448.97 184.81 464.86 177.705C464.567 177.2 464.267 176.689 463.966 176.178C447.775 182.87 431.915 190.326 415.285 196.027C399.549 201.426 383.335 205.736 367.498 211.104C350.953 216.719 333.352 219.908 316.205 224.162C315.982 223.386 315.758 222.611 315.535 221.835C330.262 218.061 345.05 214.466 359.692 210.402C365.032 208.925 369.965 206.277 375.143 204.277C384.699 200.583 394.286 196.963 403.865 193.324C404.319 193.158 404.843 193.127 405.313 192.973C408.327 192.031 412.457 195.208 414.545 190.837C415.686 191.36 416.819 191.877 417.235 192.068C420.842 189.427 423.963 186.878 427.415 184.686C434.251 180.34 441.063 175.913 448.299 172.084C452.145 170.046 457 169.461 461.107 167.713C464.205 166.395 466.833 164.271 469.676 162.511C469.168 161.864 468.659 161.218 468.158 160.571C466.201 161.279 464.29 162.117 462.286 162.671C456.922 164.148 451.358 165.139 446.18 166.999C440.654 168.981 435.576 171.906 430.135 174.11C422.367 177.249 414.453 180.112 406.6 183.092C406.238 182.488 405.876 181.898 405.514 181.294C422.221 173.389 438.928 165.484 455.636 157.579C455.505 157.241 455.366 156.896 455.227 156.557C447.035 159.032 438.843 161.501 430.652 163.97C430.421 163.416 430.182 162.862 429.958 162.308C457.354 152.562 486.376 145.876 510.651 129.844C502.706 132.239 494.791 134.726 486.8 136.998C483.517 137.934 480.219 140.181 476.797 136.665C475.888 135.736 470.925 137.571 467.827 138.137C467.896 138.654 467.95 139.183 468.012 139.701C469.43 139.824 470.848 139.953 471.164 139.978C439.298 152.999 406.793 166.285 374.288 179.564C373.902 178.893 373.517 178.216 373.132 177.545C383.451 172.903 393.777 168.267 404.088 163.619C409.498 161.181 415.054 158.934 420.179 156.114C421.882 155.172 422.444 152.722 423.446 151.121C425.242 151.669 426.868 152.18 428.502 152.679C428.995 150.579 429.488 148.486 430.074 145.956C390.34 157.943 351.531 169.652 312.73 181.356C312.491 180.752 312.252 180.155 312.013 179.552C325.715 174.842 339.417 170.132 353.118 165.416C352.964 164.838 352.803 164.259 352.641 163.68C346.113 165.546 339.579 167.368 333.074 169.277C326.193 171.302 319.334 173.408 312.213 174.91C353.311 160.504 396.05 149.6 434.782 129.85C436.855 130.306 438.921 130.761 442.088 131.463C442.419 129.241 442.673 127.468 443.051 124.882C434.875 127.351 427.87 129.518 420.811 131.58C407.101 135.588 393.338 139.43 379.674 143.561C373.509 145.426 367.583 147.895 361.472 149.89C359.052 150.684 356.417 151.023 353.866 151.435C349.658 152.106 344.703 151.435 344.102 157.056C343.979 158.263 340.966 159.395 338.307 159.962C338.923 158.897 339.548 157.832 341.043 155.264C333.329 157.592 326.94 159.519 320.552 161.446C320.197 160.553 319.843 159.648 319.496 158.755C347.185 149.662 374.866 140.556 403.156 131.26C401.907 130.54 401.214 130.152 400.535 129.758C401.845 129.21 403.14 128.299 404.473 128.182C408.011 127.868 411.571 127.886 415.116 127.782C415.147 127.123 415.17 126.47 415.193 125.818C413.312 125.904 411.448 125.996 408.434 126.138C411.07 124.26 412.989 122.899 415.077 121.41C407.517 119.606 400.343 118.448 392.382 122.512C385.077 126.249 377.101 129.118 369.202 131.882C366.127 132.959 362.459 132.719 359.06 133.076C360.794 130.515 362.528 127.96 364.254 125.405C363.992 124.98 363.722 124.562 363.46 124.143C354.267 128.539 345.081 132.935 335.895 137.33L336.003 137.226L336.018 137.263ZM153.918 117.974C153.995 118.184 154.08 118.393 154.165 118.602C216.894 99.677 279.616 80.7519 342.337 61.8329C342.26 61.6235 342.183 61.4142 342.098 61.2049C279.369 80.1301 216.64 99.0553 153.918 117.974ZM467.087 104.134C467.11 103.439 467.141 102.743 467.164 102.047C464.768 102.306 462.109 102.066 460.02 102.909C452.823 105.846 445.918 109.337 438.705 112.218C436.246 113.197 433.141 112.852 430.397 113.418C428.455 113.819 425.843 114.354 424.949 115.524C423.338 117.642 422.799 120.271 421.674 123.053C428.016 121.139 434.697 119.126 441.803 116.983C442.388 111.602 443.583 110.654 449.74 111.368C448.299 112.889 446.858 114.397 444.901 116.454C454.909 114.566 460.812 110.383 462.61 103.907C464.082 103.98 465.584 104.054 467.079 104.134H467.087ZM398.678 117.297C398.301 116.534 397.915 115.758 397.538 114.988C388.298 118.565 379.066 122.155 369.826 125.731C370.142 126.366 370.458 127.006 370.774 127.646C380.075 124.192 389.369 120.745 398.671 117.297H398.678ZM463.573 108.832C463.989 109.509 464.405 110.18 464.829 110.857C471.85 108.419 479.941 107.933 485.521 102.86C485.205 102.257 484.881 101.659 484.565 101.056C477.568 103.648 470.57 106.246 463.573 108.832ZM731.629 -107.164C738.103 -108.482 743.566 -109.596 749.03 -110.716C739.128 -113.942 735.737 -113.136 731.629 -107.164ZM241.539 72.6498C241.439 72.4713 241.331 72.2928 241.238 72.1081C227.113 76.3684 212.987 80.6287 198.861 84.8952C198.931 85.0861 199 85.2708 199.077 85.4616C213.234 81.189 227.39 76.9225 241.547 72.6498H241.539ZM396.651 -23.8046C396.636 -24.648 396.613 -25.5099 396.582 -26.3595C389.654 -25.8362 382.726 -25.3129 375.798 -24.7896C375.814 -24.137 375.829 -23.4967 375.852 -22.8441C382.788 -23.1704 389.723 -23.4905 396.651 -23.8107V-23.8046ZM153.818 98.7228C153.864 98.8152 153.91 98.9013 153.957 98.9937C166.333 95.2628 178.709 91.5258 191.086 87.7949C191.047 87.7026 191.009 87.6102 190.97 87.5179C178.594 91.2549 166.202 94.992 153.826 98.7228H153.818ZM248.891 69.7932C248.937 69.9225 248.991 70.058 249.037 70.1934C260.735 66.6657 272.441 63.1319 284.139 59.6042C284.085 59.4688 284.039 59.3394 283.993 59.204C272.295 62.7317 260.589 66.2655 248.891 69.7932ZM100.382 115.696C100.544 116.01 100.714 116.318 100.876 116.638C108.952 113.474 117.02 110.303 125.089 107.139C124.865 106.72 124.642 106.295 124.418 105.877C116.404 109.152 108.389 112.427 100.382 115.696ZM828.975 41.6948C828.945 40.9067 828.906 40.1187 828.875 39.3245C823.735 39.6693 818.595 40.0141 813.463 40.3527C813.486 41.1777 813.517 42.0027 813.547 42.8276C818.695 42.4521 823.835 42.0765 828.975 41.6886V41.6948ZM746.549 80.6103C746.549 81.2198 746.533 81.8169 746.526 82.4264C753.723 80.9796 760.921 79.5328 768.119 78.0922C768.003 77.6181 767.895 77.1441 767.787 76.6639C760.705 77.9814 753.623 79.2866 746.541 80.6041L746.549 80.6103Z" fill="url(#paint3_linear_125_159)"/>
<path fill-rule="evenodd" clip-rule="evenodd" d="M359.052 133.113C352.194 136.124 345.343 139.153 338.469 142.133C336.273 143.081 333.992 143.893 333.521 144.072C334.115 142.459 335.063 139.861 336.011 137.263L335.903 137.367C338.461 136.937 341.266 136.937 343.524 135.976C348.533 133.834 353.103 130.343 359.045 133.113H359.052Z" fill="url(#paint4_linear_125_159)"/>
<path fill-rule="evenodd" clip-rule="evenodd" d="M397.785 127.511C393.307 129.382 388.83 131.248 384.353 133.119C383.906 132.344 383.459 131.574 383.02 130.798C387.443 128.748 391.866 126.704 396.282 124.654C396.791 125.602 397.292 126.557 397.785 127.511Z" fill="url(#paint5_linear_125_159)"/>
<path fill-rule="evenodd" clip-rule="evenodd" d="M313.585 146.713C307.405 149.97 301.217 153.227 295.029 156.483C294.674 155.972 294.327 155.449 293.98 154.932C300.153 151.675 306.326 148.418 312.506 145.149C312.861 145.673 313.223 146.196 313.585 146.713Z" fill="url(#paint6_linear_125_159)"/>
</g>
<g style="mix-blend-mode:multiply">
<path fill-rule="evenodd" clip-rule="evenodd" d="M974.154 267.553C952.137 279.59 930.383 291.958 908.019 303.569C885.077 315.494 861.527 326.687 837.051 338.785C839.934 338.822 841.105 338.84 842.276 338.852C842.731 339.499 843.178 340.145 843.64 340.792C807.197 358.812 770.754 376.832 734.311 394.846C734.118 394.649 733.926 394.464 733.733 394.273C748.444 385.58 763.14 376.887 777.852 368.194C777.613 367.985 777.366 367.782 777.119 367.573C745.331 378.562 713.542 389.564 681.754 400.553C726.412 374.708 773.551 351.947 814.58 322.513C774.746 344.406 736.792 368.613 692.427 384.706C691.872 384.06 691.317 383.419 690.77 382.773C718.544 367.246 746.31 351.726 774.091 336.199C773.736 335.774 773.382 335.355 773.02 334.931C735.151 352.224 697.282 369.53 662.519 385.402C675.242 376.309 690.046 364.876 705.998 354.601C719.815 345.698 734.943 338.095 749.515 329.944C755.858 326.398 762.231 322.907 768.596 319.392C768.249 319.059 767.895 318.727 767.548 318.394C743.882 327.149 720.208 335.903 696.542 344.652C696.211 344.301 695.895 343.95 695.564 343.593C708.564 334.475 721.565 325.351 733.548 316.935C729.356 317.218 723.892 317.581 718.444 317.945C718.343 317.126 718.235 316.307 718.135 315.482C719.268 314.922 720.401 314.362 721.542 313.801C721.333 313.42 721.125 313.038 720.917 312.65C662.388 329.014 603.866 345.378 545.26 361.767C545.46 362.463 545.861 363.86 545.915 364.02C539.156 364.987 533.045 365.036 527.789 366.747C510.08 372.541 492.626 378.845 475.148 385.106C467.534 387.834 466.44 387.704 464.451 382.699C519.698 361.601 574.898 340.515 630.106 319.435C618.3 319.305 606.533 320.857 594.757 322.414C592.993 322.648 590.257 323.603 589.633 323.042C584.369 318.357 579.06 321.263 573.557 322.402C570.128 323.116 566.452 323.098 561.62 323.516C563.554 321.337 564.271 320.53 565.974 318.603C556.873 320.186 549.645 321.448 542.431 322.704C542.616 323.418 542.801 324.126 542.986 324.84C548.011 324.372 553.043 323.904 558.068 323.436C558.253 324.169 558.43 324.895 558.615 325.628C552.265 327.161 545.922 328.694 539.788 330.184C535.966 325.989 528.416 326.018 517.139 330.27C521.093 330.566 523.674 330.763 526.256 330.96C526.233 331.772 526.202 332.591 526.179 333.404C521.817 333.33 517.455 333.139 513.094 333.219C508.208 333.305 503.014 332.862 498.49 334.019C485.097 337.436 471.988 341.536 458.741 345.341C458.587 345.39 458.255 345.052 456.028 343.654C499.854 327.173 542.709 311.056 585.564 294.944C570.459 297.043 556.295 300.756 542.046 304.283C524.661 308.593 507.445 315.1 489.705 316.252C473.753 317.28 459.334 320.691 444.908 324.797C414.776 333.373 385.007 342.737 355.06 351.682C352.032 352.587 347.339 354.2 345.759 353.172C337.783 348.007 331.394 353.222 323.041 354.619C364.924 327.161 415.378 314.712 461.222 295.326C412.904 307.128 367.236 323.683 323.256 343.593C335.848 335.694 348.441 327.801 361.033 319.909C360.555 319.392 360.077 318.881 359.599 318.363C353.211 320.414 346.815 322.457 340.426 324.508C340.018 323.812 339.609 323.116 339.193 322.42C350.745 317.939 362.304 313.463 373.848 308.987C373.324 308.076 372.8 307.165 372.284 306.26C355.037 310.15 337.79 314.035 318.802 318.308C346.167 292.087 382.626 281.098 418.406 269.247C417.975 268.502 417.543 267.763 417.119 267.018C387.473 274.67 357.827 282.329 328.181 289.976C327.942 289.458 327.687 288.941 327.433 288.412C330.739 286.774 334.053 285.143 337.367 283.505C285.087 289.317 236.645 306.149 185.861 315.827C185.529 314.977 185.198 314.122 184.866 313.272C224.616 302.966 264.365 292.66 304.122 282.354C303.798 281.523 303.467 280.704 303.151 279.879C261.251 290.216 219.368 300.546 175.203 311.437C178.802 308.624 180.605 307.214 182.408 305.81C182.1 305.281 181.807 304.751 181.499 304.222C175.002 305.785 168.506 307.355 162.01 308.925C161.778 308.242 161.555 307.565 161.324 306.888C246.91 281.738 336.796 266.999 421.473 239.098C418.953 237.971 416.279 237.152 414.291 237.756C405.182 240.52 396.335 243.851 387.234 246.634C383.982 247.625 380.298 247.754 376.777 248.086C373.232 248.413 369.487 248.007 366.119 248.764C342.676 254.028 319.249 259.334 295.953 264.98C272.164 270.742 248.59 277.071 224.801 282.834C203.847 287.919 182.793 292.746 161.647 297.308C156.245 298.465 150.342 298.047 144.701 298.589C139.191 299.118 133.72 299.949 128.233 300.645C128.056 300.042 127.878 299.438 127.701 298.835C131.007 297.696 134.313 296.563 138.821 295.024C135.685 293.312 133.643 292.198 131.616 291.078C131.678 290.302 131.747 289.532 131.824 288.757C136.979 288.344 142.15 288.042 147.29 287.451C149.464 287.199 153.448 286.054 153.386 285.789C151.567 277.915 161.154 280.809 164.745 278.174C166.98 276.542 170.687 276.197 173.554 275.323C142.466 280.002 111.541 284.656 80.6232 289.311C80.4383 288.732 80.2456 288.159 80.0684 287.581C102.864 282.292 125.651 277.004 148.446 271.715C147.66 270.835 146.882 269.948 146.096 269.062C148.215 267.061 149.864 264.02 152.554 263.219C169.045 258.325 185.799 253.997 202.406 249.342C209.819 247.268 218.928 247.028 220.215 241.401C225.109 241.277 228.839 241.739 232.145 240.994C244.637 238.187 256.982 234.985 269.382 231.932C268.965 231.304 268.557 230.676 268.133 230.048C270.445 228.589 272.557 226.877 275.069 225.72C285.195 221.047 298.75 225.892 307.975 218.27C308.522 217.821 310.795 218.769 312.29 218.966C314.818 219.311 317.523 220.185 319.866 219.773C327.479 218.43 334.978 216.682 342.484 214.958C350.043 213.222 357.557 211.332 365.079 209.51C364.847 208.82 364.632 208.143 364.4 207.453C353.658 209.553 342.923 211.64 332.188 213.733C331.887 213.093 331.595 212.452 331.302 211.806C332.982 210.975 334.546 209.774 336.372 209.368C353.342 205.594 370.249 201.506 387.427 198.44C397.984 196.55 407.186 189.267 419.292 192.967C419.994 193.176 422.352 191.773 422.259 191.477C420.263 185.653 426.806 187.254 429.811 185.905C432.717 184.6 435.784 183.523 438.782 182.347C438.52 181.83 438.25 181.319 437.996 180.802C432.216 182.279 426.428 183.751 420.325 185.296C428.178 171.955 445.394 175.532 458.117 170.859C455.52 169.511 453.878 168.661 451.659 167.516C464.952 163.945 477.236 160.651 489.898 157.253C488.349 155.258 487.331 153.941 486.268 152.568C500.894 148.634 514.966 144.983 528.899 141.024C533.8 139.633 540.921 138.463 542.647 135.539C549.159 124.525 566.56 127.837 574.22 119.002C574.49 118.688 576.339 118.805 576.956 119.206C585.618 124.753 591.983 118.572 597.94 115.795C621.175 104.941 643.677 93.0957 666.765 82.0263C679.665 75.839 692.974 70.1196 706.476 64.8065C720.324 59.3579 730.203 47.0818 748.398 49.0211C748.645 49.0457 748.93 48.7317 749.215 48.6086C765.159 41.4116 782.298 35.4583 796.724 26.6668C810.272 18.4047 824.66 21.5014 838.654 19.5005C839.394 20.1716 840.126 20.8365 840.851 21.5076C834.994 26.8884 829.129 32.2569 823.642 37.2806C834.038 36.9913 844.95 36.6834 855.87 36.3756C856.255 37.2867 856.633 38.1979 857.011 39.1091C839.186 49.8338 821.354 60.5585 803.529 71.2893C803.984 71.7942 804.446 72.3051 804.908 72.8161C822.51 64.9604 840.103 57.0985 858.544 48.8672C863.738 61.956 847.709 63.5936 843.91 71.4063C840.535 78.32 827.912 82.3588 819.365 87.6718C819.674 88.1397 819.974 88.6137 820.275 89.0878C825.446 87.3332 830.609 85.5847 835.418 83.9471C838.477 85.8741 841.506 87.7765 844.557 89.6912C837.699 94.1732 830.871 98.6305 822.779 103.919C827.788 104.461 830.331 104.738 835.433 105.286C830.986 108.82 828.135 110.814 825.731 113.092C823.797 114.939 822.402 117.156 820.776 119.206C821.762 119.741 822.733 120.283 823.712 120.819C828.243 118.017 832.774 115.216 835.379 113.603C840.211 114.046 843.186 114.853 845.914 114.477C860.355 112.458 874.735 110.137 889.123 107.921C889.639 108.863 890.148 109.811 890.664 110.759C884.191 115.031 877.725 119.304 871.244 123.571C875.506 123.909 878.92 121.73 881.309 122.29C886.318 123.497 890.803 126.175 892.221 119.458C895.064 120.185 898.008 120.72 900.706 121.699C902.378 122.308 903.518 124.205 905.16 124.463C923.154 127.283 939.977 124.987 955.32 116.669C956.854 115.838 958.634 115.068 960.414 114.804C969.507 113.498 978.724 112.686 987.725 111.06C994.052 109.909 998.992 109.294 998.337 116.38C1002.19 115.659 1005.27 115.081 1010.1 114.182C1002.62 120.677 996.826 125.719 990.191 131.476C998.691 130.349 1005.36 129.462 1009.52 128.908C1015.5 134.375 1020.2 138.673 1025.59 143.604C1015.34 148.671 1004.93 153.811 994.53 158.958C994.892 159.488 995.254 160.017 995.616 160.547C1010.1 155.991 1024.6 151.441 1039.09 146.892C1039.9 147.877 1040.73 148.862 1041.54 149.841C1035.3 155.622 1029.05 161.396 1023.89 166.174C1026.74 167.331 1031.34 169.203 1037.45 171.69C1033.32 174.257 1030.72 176.172 1027.79 177.643C1006.74 188.263 985.49 198.637 964.614 209.473C960.476 211.621 956.599 214.983 954.495 218.51C951.544 223.442 950.357 229.05 948.261 234.813C949.379 234.905 951.421 235.078 955.721 235.453C949.325 237.836 945.256 239.35 941.187 240.859C941.295 241.105 941.402 241.345 941.51 241.597C946.25 240.742 950.974 239.892 955.729 239.043C955.906 239.467 956.083 239.898 956.268 240.323C952.6 242.133 948.932 243.949 945.263 245.765C945.495 246.517 945.718 247.274 945.949 248.025C952.207 247.206 958.441 246.381 963.82 245.673C972.621 252.107 967.573 256.49 960.977 260.855C963.843 261.514 966.078 262.019 969.145 262.727C966.964 265.608 965.269 267.849 963.574 270.084C963.99 270.367 964.406 270.65 964.814 270.933C967.396 269.333 969.978 267.732 972.567 266.137C973.099 266.612 973.638 267.079 974.177 267.56L974.154 267.553ZM311.019 278.968C311.304 279.7 311.589 280.427 311.874 281.166C339.948 274.27 368.022 267.387 396.104 260.492C395.811 259.741 395.511 258.99 395.226 258.239C367.159 265.146 339.093 272.054 311.019 278.962V278.968ZM432.062 187.42C432.308 187.949 432.563 188.473 432.809 189.008C443.56 185.967 454.31 182.926 465.06 179.891C464.752 179.219 464.421 178.542 464.112 177.871C453.431 181.054 442.75 184.237 432.062 187.42ZM368.207 274.769C368.015 274.252 367.822 273.735 367.637 273.217C358.937 275.36 350.244 277.509 341.543 279.651C341.859 280.525 342.175 281.406 342.491 282.28C351.068 279.78 359.638 277.275 368.207 274.769ZM665.578 309.289C665.162 308.427 664.746 307.565 664.33 306.709C659.036 308.291 653.757 309.88 648.478 311.468C649.064 312.564 649.642 313.654 650.22 314.743C655.337 312.927 660.454 311.099 665.578 309.289Z" fill="url(#paint7_linear_125_159)"/>
<path fill-rule="evenodd" clip-rule="evenodd" d="M350.66 201.365C329.753 205.92 308.861 210.476 287.954 215.038C288.247 215.876 288.54 216.713 288.833 217.55C309.655 212.767 330.478 207.977 351.292 203.187C351.076 202.584 350.868 201.968 350.66 201.365Z" fill="url(#paint8_linear_125_159)"/>
<path fill-rule="evenodd" clip-rule="evenodd" d="M215.414 235.663C233.2 231.15 250.994 226.631 268.78 222.118C268.487 221.386 268.195 220.647 267.909 219.908C250.17 224.599 232.437 229.291 214.705 233.976C214.936 234.542 215.175 235.096 215.406 235.663H215.414Z" fill="url(#paint9_linear_125_159)"/>
<path fill-rule="evenodd" clip-rule="evenodd" d="M405.977 187.531C390.348 191.323 374.712 195.122 359.076 198.914C359.33 199.548 359.585 200.189 359.831 200.829C375.468 197.012 391.104 193.201 406.74 189.39C406.485 188.774 406.239 188.153 405.977 187.537V187.531Z" fill="url(#paint10_linear_125_159)"/>
<path fill-rule="evenodd" clip-rule="evenodd" d="M438.335 393.473C430.251 396.391 422.159 399.303 414.083 402.222C414.484 403.016 414.892 403.816 415.301 404.616C423.462 402.012 431.63 399.39 439.791 396.779C439.306 395.677 438.828 394.575 438.335 393.473Z" fill="url(#paint11_linear_125_159)"/>
</g>
<defs>
<linearGradient id="paint0_linear_125_159" x1="308.407" y1="-190.572" x2="598.435" y2="419.015" gradientUnits="userSpaceOnUse">
<stop stop-color="#FEDC31"/>
<stop offset="0.09" stop-color="#FDC347"/>
<stop offset="0.27" stop-color="#FC8682"/>
<stop offset="0.52" stop-color="#FA2CD7"/>
<stop offset="0.76" stop-color="#987CDB"/>
<stop offset="1" stop-color="#33D0E0"/>
</linearGradient>
<linearGradient id="paint1_linear_125_159" x1="202.04" y1="-140.018" x2="492.115" y2="469.673" gradientUnits="userSpaceOnUse">
<stop stop-color="#FEDC31"/>
<stop offset="0.09" stop-color="#FDC347"/>
<stop offset="0.27" stop-color="#FC8682"/>
<stop offset="0.52" stop-color="#FA2CD7"/>
<stop offset="0.76" stop-color="#987CDB"/>
<stop offset="1" stop-color="#33D0E0"/>
</linearGradient>
<linearGradient id="paint2_linear_125_159" x1="387.543" y1="-228.226" x2="677.572" y2="381.37" gradientUnits="userSpaceOnUse">
<stop stop-color="#FEDC31"/>
<stop offset="0.09" stop-color="#FDC347"/>
<stop offset="0.27" stop-color="#FC8682"/>
<stop offset="0.52" stop-color="#FA2CD7"/>
<stop offset="0.76" stop-color="#987CDB"/>
<stop offset="1" stop-color="#33D0E0"/>
</linearGradient>
<linearGradient id="paint3_linear_125_159" x1="248.077" y1="-161.873" x2="538.111" y2="447.727" gradientUnits="userSpaceOnUse">
<stop stop-color="#FEDC31"/>
<stop offset="0.09" stop-color="#FDC347"/>
<stop offset="0.27" stop-color="#FC8682"/>
<stop offset="0.52" stop-color="#FA2CD7"/>
<stop offset="0.76" stop-color="#987CDB"/>
<stop offset="1" stop-color="#33D0E0"/>
</linearGradient>
<linearGradient id="paint4_linear_125_159" x1="155.175" y1="-117.682" x2="445.217" y2="491.932" gradientUnits="userSpaceOnUse">
<stop stop-color="#FEDC31"/>
<stop offset="0.09" stop-color="#FDC347"/>
<stop offset="0.27" stop-color="#FC8682"/>
<stop offset="0.52" stop-color="#FA2CD7"/>
<stop offset="0.76" stop-color="#987CDB"/>
<stop offset="1" stop-color="#33D0E0"/>
</linearGradient>
<linearGradient id="paint5_linear_125_159" x1="192.986" y1="-135.712" x2="483.063" y2="473.965" gradientUnits="userSpaceOnUse">
<stop stop-color="#FEDC31"/>
<stop offset="0.09" stop-color="#FDC347"/>
<stop offset="0.27" stop-color="#FC8682"/>
<stop offset="0.52" stop-color="#FA2CD7"/>
<stop offset="0.76" stop-color="#987CDB"/>
<stop offset="1" stop-color="#33D0E0"/>
</linearGradient>
<linearGradient id="paint6_linear_125_159" x1="117.102" y1="-99.479" x2="407.065" y2="509.97" gradientUnits="userSpaceOnUse">
<stop stop-color="#FEDC31"/>
<stop offset="0.09" stop-color="#FDC347"/>
<stop offset="0.27" stop-color="#FC8682"/>
<stop offset="0.52" stop-color="#FA2CD7"/>
<stop offset="0.76" stop-color="#987CDB"/>
<stop offset="1" stop-color="#33D0E0"/>
</linearGradient>
<linearGradient id="paint7_linear_125_159" x1="269.158" y1="-171.913" x2="559.192" y2="437.688" gradientUnits="userSpaceOnUse">
<stop stop-color="#FEDC31"/>
<stop offset="0.09" stop-color="#FDC347"/>
<stop offset="0.27" stop-color="#FC8682"/>
<stop offset="0.52" stop-color="#FA2CD7"/>
<stop offset="0.76" stop-color="#987CDB"/>
<stop offset="1" stop-color="#33D0E0"/>
</linearGradient>
<linearGradient id="paint8_linear_125_159" x1="96.5658" y1="-89.8097" x2="386.615" y2="519.817" gradientUnits="userSpaceOnUse">
<stop stop-color="#FEDC31"/>
<stop offset="0.09" stop-color="#FDC347"/>
<stop offset="0.27" stop-color="#FC8682"/>
<stop offset="0.52" stop-color="#FA2CD7"/>
<stop offset="0.76" stop-color="#987CDB"/>
<stop offset="1" stop-color="#33D0E0"/>
</linearGradient>
<linearGradient id="paint9_linear_125_159" x1="28.8364" y1="-57.5909" x2="318.888" y2="552.045" gradientUnits="userSpaceOnUse">
<stop stop-color="#FEDC31"/>
<stop offset="0.09" stop-color="#FDC347"/>
<stop offset="0.27" stop-color="#FC8682"/>
<stop offset="0.52" stop-color="#FA2CD7"/>
<stop offset="0.76" stop-color="#987CDB"/>
<stop offset="1" stop-color="#33D0E0"/>
</linearGradient>
<linearGradient id="paint10_linear_125_159" x1="151.597" y1="-115.996" x2="441.644" y2="493.637" gradientUnits="userSpaceOnUse">
<stop stop-color="#FEDC31"/>
<stop offset="0.09" stop-color="#FDC347"/>
<stop offset="0.27" stop-color="#FC8682"/>
<stop offset="0.52" stop-color="#FA2CD7"/>
<stop offset="0.76" stop-color="#987CDB"/>
<stop offset="1" stop-color="#33D0E0"/>
</linearGradient>
<linearGradient id="paint11_linear_125_159" x1="71.2525" y1="-77.7977" x2="361.306" y2="531.847" gradientUnits="userSpaceOnUse">
<stop stop-color="#FEDC31"/>
<stop offset="0.09" stop-color="#FDC347"/>
<stop offset="0.27" stop-color="#FC8682"/>
<stop offset="0.52" stop-color="#FA2CD7"/>
<stop offset="0.76" stop-color="#987CDB"/>
<stop offset="1" stop-color="#33D0E0"/>
</linearGradient>
</defs>
</svg>
