<svg width="482" height="109" viewBox="0 0 482 109" fill="none" xmlns="http://www.w3.org/2000/svg">
<path d="M271.535 11.6912C270.752 10.9699 269.909 10.3087 269.096 9.64747C261.056 3.27593 250.817 0 238.561 0C220.161 0 205.135 6.22126 193.27 18.5135C181.556 30.8058 175.653 46.2538 175.653 64.617C175.653 78.1114 179.899 88.7206 188.271 96.4747C193.782 101.494 200.377 104.86 208.026 106.663C212.181 107.625 216.638 108.166 221.426 108.166C226.666 108.166 231.605 107.655 236.302 106.663C238.681 106.152 241 105.521 243.259 104.77C243.168 104.619 243.048 104.499 242.957 104.349H242.927L242.837 104.108C242.626 103.718 242.476 103.297 242.355 102.876L240.398 97.9173H240.368L235.369 84.483C232.147 85.5048 228.684 86.0458 224.98 86.0458C209.772 86.0458 200.347 75.5869 200.347 60.2591C200.347 49.8002 203.539 40.6937 210.073 32.9697C216.608 25.0954 225.13 21.1283 235.309 21.1283C250.516 21.1283 260.092 31.5872 260.092 46.915C260.092 57.3739 256.749 66.4804 250.215 74.3546C248.739 76.0978 247.173 77.6306 245.487 78.983H245.607L253.708 97.5266C254.28 98.4883 254.34 99.1796 254.34 99.2998C254.37 99.42 254.401 99.5402 254.431 99.6304C258.827 96.9856 262.893 93.7097 266.627 89.8026C267.53 88.8709 268.373 87.9092 269.186 86.9474C279.305 75.136 284.394 60.6498 284.394 43.6691C284.394 30.1746 280.148 19.4152 271.626 11.6611L271.535 11.6912Z" fill="#002D67"/>
<path d="M233.35 32.9695C226.876 32.9695 221.485 35.464 217.33 40.4831C213.174 45.382 211.156 51.1825 211.156 57.8245C211.156 67.5621 217.149 74.2041 226.785 74.2041C233.26 74.2041 238.65 71.7096 242.806 66.7807C246.961 61.7616 249.069 55.9912 249.069 49.3491C249.069 39.6115 242.986 32.9695 233.35 32.9695Z" fill="#1BCEC1"/>
<path d="M79.3194 49.6198C83.8666 42.9477 86.1552 35.6745 86.1552 27.6199C86.1552 18.5135 82.9632 11.9916 76.7297 7.90425C70.4961 3.81685 62.4558 1.68298 52.7291 1.68298H16.5625L0 106.332H23.85L30.0836 66.4503H37.3711L52.2774 106.332H80.0723L61.2211 63.1142C68.6592 60.8301 74.7422 56.2919 79.3194 49.6198ZM42.37 47.3357H33.0949L37.1904 20.7976H46.4654C56.6438 20.7976 61.6728 24.2839 61.6728 31.4068C61.6728 42.3166 53.783 47.3357 42.37 47.3357Z" fill="#002D67"/>
<path d="M169.057 1.68298H101.633L98.4406 21.6992H146.171L86.4554 88.4501L83.5645 106.332H165.323L168.515 85.7151H117.292L169.057 27.9205L177.459 18.5135L180.199 1.68298H169.057Z" fill="#002D67"/>
<path d="M363.322 71.4693L331.552 1.71301H306.016L289.453 106.363H312.701C318.182 72.5513 321.825 49.199 323.482 35.9751L356.306 106.363H380.607L397.32 1.71301H373.922C367.688 41.7455 364.045 64.9475 363.292 71.4693H363.322Z" fill="#002D67"/>
<path d="M478.808 21.549L482 1.68298H416.503L399.94 106.332H466.672L469.864 86.3162H426.832L430.656 62.3629H470.015L473.207 42.4969H433.848L437.191 21.549H478.808Z" fill="#002D67"/>
</svg>
